G04 #@! TF.FileFunction,Profile,NP*
%FSLAX46Y46*%
G04 Gerber Fmt 4.6, Leading zero omitted, Abs format (unit mm)*
G04 Created by KiCad (PCBNEW 4.0.2+e4-6225~38~ubuntu16.04.1-stable) date Mit 05 Apr 2017 15:20:37 CST*
%MOMM*%
G01*
G04 APERTURE LIST*
%ADD10C,0.100000*%
G04 APERTURE END LIST*
D10*
X94132950Y-167675940D02*
X94132950Y-167675940D01*
X93819339Y-167717090D02*
X94132950Y-167675940D01*
X93428493Y-167756748D02*
X93819339Y-167717090D01*
X92971733Y-167794524D02*
X93428493Y-167756748D01*
X92460456Y-167830033D02*
X92971733Y-167794524D01*
X91906062Y-167862898D02*
X92460456Y-167830033D01*
X91319945Y-167892737D02*
X91906062Y-167862898D01*
X90713506Y-167919153D02*
X91319945Y-167892737D01*
X90098143Y-167941787D02*
X90713506Y-167919153D01*
X89485253Y-167960245D02*
X90098143Y-167941787D01*
X88886233Y-167974158D02*
X89485253Y-167960245D01*
X88312484Y-167983133D02*
X88886233Y-167974158D01*
X87775401Y-167986802D02*
X88312484Y-167983133D01*
X87286380Y-167984826D02*
X87775401Y-167986802D01*
X86856827Y-167976698D02*
X87286380Y-167984826D01*
X86498131Y-167962136D02*
X86856827Y-167976698D01*
X86221694Y-167940715D02*
X86498131Y-167962136D01*
X85983829Y-167912972D02*
X86221694Y-167940715D01*
X85734443Y-167879964D02*
X85983829Y-167912972D01*
X85475535Y-167842095D02*
X85734443Y-167879964D01*
X85209101Y-167799779D02*
X85475535Y-167842095D01*
X84937137Y-167753429D02*
X85209101Y-167799779D01*
X84661640Y-167703459D02*
X84937137Y-167753429D01*
X84384608Y-167650288D02*
X84661640Y-167703459D01*
X84108036Y-167594327D02*
X84384608Y-167650288D01*
X83833919Y-167535988D02*
X84108036Y-167594327D01*
X83564253Y-167475689D02*
X83833919Y-167535988D01*
X83301038Y-167413843D02*
X83564253Y-167475689D01*
X83046268Y-167350865D02*
X83301038Y-167413843D01*
X82801943Y-167287170D02*
X83046268Y-167350865D01*
X82570052Y-167223171D02*
X82801943Y-167287170D01*
X82352600Y-167159284D02*
X82570052Y-167223171D01*
X82151576Y-167095919D02*
X82352600Y-167159284D01*
X81449505Y-166835129D02*
X82151576Y-167095919D01*
X80730384Y-166509428D02*
X81449505Y-166835129D01*
X79999803Y-166123853D02*
X80730384Y-166509428D01*
X79263359Y-165683445D02*
X79999803Y-166123853D01*
X78526643Y-165193242D02*
X79263359Y-165683445D01*
X77795253Y-164658284D02*
X78526643Y-165193242D01*
X77074776Y-164083609D02*
X77795253Y-164658284D01*
X76370812Y-163474255D02*
X77074776Y-164083609D01*
X75688952Y-162835261D02*
X76370812Y-163474255D01*
X75034792Y-162171667D02*
X75688952Y-162835261D01*
X74413923Y-161488508D02*
X75034792Y-162171667D01*
X73831938Y-160790827D02*
X74413923Y-161488508D01*
X73294432Y-160083662D02*
X73831938Y-160790827D01*
X72807000Y-159372053D02*
X73294432Y-160083662D01*
X72375231Y-158661037D02*
X72807000Y-159372053D01*
X72004724Y-157955653D02*
X72375231Y-158661037D01*
X71969576Y-157882772D02*
X72004724Y-157955653D01*
X71934428Y-157809891D02*
X71969576Y-157882772D01*
X71899280Y-157737010D02*
X71934428Y-157809891D01*
X71864133Y-157664126D02*
X71899280Y-157737010D01*
X71828985Y-157591245D02*
X71864133Y-157664126D01*
X71793837Y-157518364D02*
X71828985Y-157591245D01*
X71758689Y-157445483D02*
X71793837Y-157518364D01*
X71723538Y-157372602D02*
X71758689Y-157445483D01*
X71688390Y-157299721D02*
X71723538Y-157372602D01*
X71653242Y-157226840D02*
X71688390Y-157299721D01*
X71618094Y-157153959D02*
X71653242Y-157226840D01*
X71582946Y-157081075D02*
X71618094Y-157153959D01*
X71547798Y-157008194D02*
X71582946Y-157081075D01*
X71512650Y-156935313D02*
X71547798Y-157008194D01*
X71477502Y-156862432D02*
X71512650Y-156935313D01*
X71442354Y-156789550D02*
X71477502Y-156862432D01*
X71415007Y-156820699D02*
X71442354Y-156789550D01*
X71387660Y-156851845D02*
X71415007Y-156820699D01*
X71360312Y-156882994D02*
X71387660Y-156851845D01*
X71332965Y-156914140D02*
X71360312Y-156882994D01*
X71305618Y-156945289D02*
X71332965Y-156914140D01*
X71278270Y-156976438D02*
X71305618Y-156945289D01*
X71250923Y-157007584D02*
X71278270Y-156976438D01*
X71223576Y-157038733D02*
X71250923Y-157007584D01*
X71196228Y-157069882D02*
X71223576Y-157038733D01*
X71168881Y-157101028D02*
X71196228Y-157069882D01*
X71141534Y-157132177D02*
X71168881Y-157101028D01*
X71114186Y-157163323D02*
X71141534Y-157132177D01*
X71086839Y-157194472D02*
X71114186Y-157163323D01*
X71059492Y-157225620D02*
X71086839Y-157194472D01*
X71032144Y-157256767D02*
X71059492Y-157225620D01*
X71004797Y-157287915D02*
X71032144Y-157256767D01*
X70871811Y-157433110D02*
X71004797Y-157287915D01*
X70724866Y-157582025D02*
X70871811Y-157433110D01*
X70565292Y-157733697D02*
X70724866Y-157582025D01*
X70394409Y-157887158D02*
X70565292Y-157733697D01*
X70213539Y-158041449D02*
X70394409Y-157887158D01*
X70024007Y-158195607D02*
X70213539Y-158041449D01*
X69827134Y-158348665D02*
X70024007Y-158195607D01*
X69624245Y-158499659D02*
X69827134Y-158348665D01*
X69416659Y-158647628D02*
X69624245Y-158499659D01*
X69205704Y-158791610D02*
X69416659Y-158647628D01*
X68992702Y-158930635D02*
X69205704Y-158791610D01*
X68778972Y-159063748D02*
X68992702Y-158930635D01*
X68565841Y-159189977D02*
X68778972Y-159063748D01*
X68354631Y-159308364D02*
X68565841Y-159189977D01*
X68146665Y-159417945D02*
X68354631Y-159308364D01*
X67943264Y-159517753D02*
X68146665Y-159417945D01*
X67708743Y-159621411D02*
X67943264Y-159517753D01*
X67468787Y-159714027D02*
X67708743Y-159621411D01*
X67224142Y-159795545D02*
X67468787Y-159714027D01*
X66975558Y-159865908D02*
X67224142Y-159795545D01*
X66723782Y-159925059D02*
X66975558Y-159865908D01*
X66469562Y-159972944D02*
X66723782Y-159925059D01*
X66213643Y-160009506D02*
X66469562Y-159972944D01*
X65956778Y-160034680D02*
X66213643Y-160009506D01*
X65699711Y-160048424D02*
X65956778Y-160034680D01*
X65443190Y-160050682D02*
X65699711Y-160048424D01*
X65187965Y-160041369D02*
X65443190Y-160050682D01*
X64934781Y-160020456D02*
X65187965Y-160041369D01*
X64684388Y-159987879D02*
X64934781Y-160020456D01*
X64437534Y-159943581D02*
X64684388Y-159987879D01*
X64194964Y-159887507D02*
X64437534Y-159943581D01*
X63957426Y-159819598D02*
X64194964Y-159887507D01*
X63070734Y-159457073D02*
X63957426Y-159819598D01*
X62186284Y-158935876D02*
X63070734Y-159457073D01*
X61312120Y-158270359D02*
X62186284Y-158935876D01*
X60456276Y-157474871D02*
X61312120Y-158270359D01*
X59626796Y-156563761D02*
X60456276Y-157474871D01*
X58831717Y-155551377D02*
X59626796Y-156563761D01*
X58079078Y-154452070D02*
X58831717Y-155551377D01*
X57376921Y-153280188D02*
X58079078Y-154452070D01*
X56733282Y-152050080D02*
X57376921Y-153280188D01*
X56156205Y-150776095D02*
X56733282Y-152050080D01*
X55653726Y-149472584D02*
X56156205Y-150776095D01*
X55233886Y-148153892D02*
X55653726Y-149472584D01*
X54904725Y-146834370D02*
X55233886Y-148153892D01*
X54674282Y-145528370D02*
X54904725Y-146834370D01*
X54550598Y-144250237D02*
X54674282Y-145528370D01*
X54541708Y-143014320D02*
X54550598Y-144250237D01*
X54568547Y-142563530D02*
X54541708Y-143014320D01*
X54610181Y-142135184D02*
X54568547Y-142563530D01*
X54666913Y-141728646D02*
X54610181Y-142135184D01*
X54739060Y-141343271D02*
X54666913Y-141728646D01*
X54826930Y-140978423D02*
X54739060Y-141343271D01*
X54930839Y-140633463D02*
X54826930Y-140978423D01*
X55051094Y-140307750D02*
X54930839Y-140633463D01*
X55188008Y-140000647D02*
X55051094Y-140307750D01*
X55341898Y-139711511D02*
X55188008Y-140000647D01*
X55513069Y-139439702D02*
X55341898Y-139711511D01*
X55701836Y-139184585D02*
X55513069Y-139439702D01*
X55908513Y-138945517D02*
X55701836Y-139184585D01*
X56133407Y-138721859D02*
X55908513Y-138945517D01*
X56376835Y-138512972D02*
X56133407Y-138721859D01*
X56639107Y-138318216D02*
X56376835Y-138512972D01*
X56920534Y-138136950D02*
X56639107Y-138318216D01*
X56998997Y-138090028D02*
X56920534Y-138136950D01*
X57076526Y-138043998D02*
X56998997Y-138090028D01*
X57152670Y-137999116D02*
X57076526Y-138043998D01*
X57226968Y-137955642D02*
X57152670Y-137999116D01*
X57298968Y-137913828D02*
X57226968Y-137955642D01*
X57368214Y-137873936D02*
X57298968Y-137913828D01*
X57434251Y-137836217D02*
X57368214Y-137873936D01*
X57496623Y-137800928D02*
X57434251Y-137836217D01*
X57554873Y-137768329D02*
X57496623Y-137800928D01*
X57608546Y-137738673D02*
X57554873Y-137768329D01*
X57657190Y-137712229D02*
X57608546Y-137738673D01*
X57700345Y-137689227D02*
X57657190Y-137712229D01*
X57737556Y-137669952D02*
X57700345Y-137689227D01*
X57768371Y-137654627D02*
X57737556Y-137669952D01*
X57792332Y-137643536D02*
X57768371Y-137654627D01*
X57808983Y-137636932D02*
X57792332Y-137643536D01*
X57818748Y-137624937D02*
X57808983Y-137636932D01*
X57822530Y-137598070D02*
X57818748Y-137624937D01*
X57820554Y-137557094D02*
X57822530Y-137598070D01*
X57813019Y-137502803D02*
X57820554Y-137557094D01*
X57800150Y-137435989D02*
X57813019Y-137502803D01*
X57782200Y-137357441D02*
X57800150Y-137435989D01*
X57759369Y-137267943D02*
X57782200Y-137357441D01*
X57731880Y-137168285D02*
X57759369Y-137267943D01*
X57699975Y-137059257D02*
X57731880Y-137168285D01*
X57663873Y-136941643D02*
X57699975Y-137059257D01*
X57623792Y-136816235D02*
X57663873Y-136941643D01*
X57579960Y-136683816D02*
X57623792Y-136816235D01*
X57532600Y-136545180D02*
X57579960Y-136683816D01*
X57481938Y-136401112D02*
X57532600Y-136545180D01*
X57428195Y-136252400D02*
X57481938Y-136401112D01*
X57371598Y-136099834D02*
X57428195Y-136252400D01*
X57313187Y-135941786D02*
X57371598Y-136099834D01*
X57254120Y-135777000D02*
X57313187Y-135941786D01*
X57194803Y-135606800D02*
X57254120Y-135777000D01*
X57135638Y-135432519D02*
X57194803Y-135606800D01*
X57077031Y-135255484D02*
X57135638Y-135432519D01*
X57019382Y-135077027D02*
X57077031Y-135255484D01*
X56963096Y-134898476D02*
X57019382Y-135077027D01*
X56908576Y-134721158D02*
X56963096Y-134898476D01*
X56856226Y-134546406D02*
X56908576Y-134721158D01*
X56806454Y-134375549D02*
X56856226Y-134546406D01*
X56759656Y-134209918D02*
X56806454Y-134375549D01*
X56716239Y-134050838D02*
X56759656Y-134209918D01*
X56676606Y-133899643D02*
X56716239Y-134050838D01*
X56641165Y-133757660D02*
X56676606Y-133899643D01*
X56610312Y-133626218D02*
X56641165Y-133757660D01*
X56584461Y-133506649D02*
X56610312Y-133626218D01*
X56423029Y-132626423D02*
X56584461Y-133506649D01*
X56297144Y-131738417D02*
X56423029Y-132626423D01*
X56206170Y-130848313D02*
X56297144Y-131738417D01*
X56149469Y-129961797D02*
X56206170Y-130848313D01*
X56126411Y-129084557D02*
X56149469Y-129961797D01*
X56136345Y-128222275D02*
X56126411Y-129084557D01*
X56178642Y-127380640D02*
X56136345Y-128222275D01*
X56252666Y-126565334D02*
X56178642Y-127380640D01*
X56357777Y-125782049D02*
X56252666Y-126565334D01*
X56493337Y-125036463D02*
X56357777Y-125782049D01*
X56658713Y-124334266D02*
X56493337Y-125036463D01*
X56853266Y-123681144D02*
X56658713Y-124334266D01*
X57076357Y-123082780D02*
X56853266Y-123681144D01*
X57327351Y-122544858D02*
X57076357Y-123082780D01*
X57605611Y-122073070D02*
X57327351Y-122544858D01*
X57910499Y-121673097D02*
X57605611Y-122073070D01*
X58305186Y-121284996D02*
X57910499Y-121673097D01*
X58786079Y-120916447D02*
X58305186Y-121284996D01*
X59344707Y-120569413D02*
X58786079Y-120916447D01*
X59972606Y-120245859D02*
X59344707Y-120569413D01*
X60661310Y-119947748D02*
X59972606Y-120245859D01*
X61402355Y-119677040D02*
X60661310Y-119947748D01*
X62187277Y-119435698D02*
X61402355Y-119677040D01*
X63007607Y-119225691D02*
X62187277Y-119435698D01*
X63854883Y-119048977D02*
X63007607Y-119225691D01*
X64720639Y-118907519D02*
X63854883Y-119048977D01*
X65596409Y-118803283D02*
X64720639Y-118907519D01*
X66473728Y-118738231D02*
X65596409Y-118803283D01*
X67344129Y-118714327D02*
X66473728Y-118738231D01*
X68199150Y-118733518D02*
X67344129Y-118714327D01*
X69030325Y-118797797D02*
X68199150Y-118733518D01*
X69829186Y-118909111D02*
X69030325Y-118797797D01*
X69950897Y-118929798D02*
X69829186Y-118909111D01*
X70080079Y-118950880D02*
X69950897Y-118929798D01*
X70215596Y-118972216D02*
X70080079Y-118950880D01*
X70356321Y-118993636D02*
X70215596Y-118972216D01*
X70501115Y-119015001D02*
X70356321Y-118993636D01*
X70648850Y-119036167D02*
X70501115Y-119015001D01*
X70798388Y-119056995D02*
X70648850Y-119036167D01*
X70948601Y-119077315D02*
X70798388Y-119056995D01*
X71098356Y-119096958D02*
X70948601Y-119077315D01*
X71246517Y-119115810D02*
X71098356Y-119096958D01*
X71391952Y-119133703D02*
X71246517Y-119115810D01*
X71533532Y-119150496D02*
X71391952Y-119133703D01*
X71670122Y-119166018D02*
X71533532Y-119150496D01*
X71800587Y-119180129D02*
X71670122Y-119166018D01*
X71923797Y-119192660D02*
X71800587Y-119180129D01*
X72038616Y-119203497D02*
X71923797Y-119192660D01*
X72413247Y-119243730D02*
X72038616Y-119203497D01*
X72782588Y-119296898D02*
X72413247Y-119243730D01*
X73148529Y-119363779D02*
X72782588Y-119296898D01*
X73512948Y-119445138D02*
X73148529Y-119363779D01*
X73877732Y-119541752D02*
X73512948Y-119445138D01*
X74244764Y-119654386D02*
X73877732Y-119541752D01*
X74615926Y-119783822D02*
X74244764Y-119654386D01*
X74993105Y-119930823D02*
X74615926Y-119783822D01*
X75378180Y-120096163D02*
X74993105Y-119930823D01*
X75773040Y-120280618D02*
X75378180Y-120096163D01*
X76179561Y-120484955D02*
X75773040Y-120280618D01*
X76599635Y-120709948D02*
X76179561Y-120484955D01*
X77035138Y-120956368D02*
X76599635Y-120709948D01*
X77487961Y-121224987D02*
X77035138Y-120956368D01*
X77959980Y-121516579D02*
X77487961Y-121224987D01*
X78453084Y-121831911D02*
X77959980Y-121516579D01*
X78752604Y-122025482D02*
X78453084Y-121831911D01*
X79019411Y-122195199D02*
X78752604Y-122025482D01*
X79256501Y-122341867D02*
X79019411Y-122195199D01*
X79466866Y-122466296D02*
X79256501Y-122341867D01*
X79653500Y-122569299D02*
X79466866Y-122466296D01*
X79819401Y-122651685D02*
X79653500Y-122569299D01*
X79967559Y-122714259D02*
X79819401Y-122651685D01*
X80100974Y-122757835D02*
X79967559Y-122714259D01*
X80222635Y-122783235D02*
X80100974Y-122757835D01*
X80335538Y-122791250D02*
X80222635Y-122783235D01*
X80442678Y-122782698D02*
X80335538Y-122791250D01*
X80547049Y-122758371D02*
X80442678Y-122782698D01*
X80651646Y-122719094D02*
X80547049Y-122758371D01*
X80759464Y-122665675D02*
X80651646Y-122719094D01*
X80873496Y-122598927D02*
X80759464Y-122665675D01*
X80996736Y-122519653D02*
X80873496Y-122598927D01*
X81323798Y-122309804D02*
X80996736Y-122519653D01*
X81648181Y-122115068D02*
X81323798Y-122309804D01*
X81970595Y-121935225D02*
X81648181Y-122115068D01*
X82291750Y-121770051D02*
X81970595Y-121935225D01*
X82612354Y-121619325D02*
X82291750Y-121770051D01*
X82933119Y-121482820D02*
X82612354Y-121619325D01*
X83254757Y-121360315D02*
X82933119Y-121482820D01*
X83577975Y-121251586D02*
X83254757Y-121360315D01*
X83903481Y-121156413D02*
X83577975Y-121251586D01*
X84231991Y-121074568D02*
X83903481Y-121156413D01*
X84564212Y-121005830D02*
X84231991Y-121074568D01*
X84900852Y-120949978D02*
X84564212Y-121005830D01*
X85242623Y-120906784D02*
X84900852Y-120949978D01*
X85590236Y-120876028D02*
X85242623Y-120906784D01*
X85944400Y-120857486D02*
X85590236Y-120876028D01*
X86305825Y-120850938D02*
X85944400Y-120857486D01*
X87253298Y-120897050D02*
X86305825Y-120850938D01*
X88188535Y-121036206D02*
X87253298Y-120897050D01*
X89107281Y-121264704D02*
X88188535Y-121036206D01*
X90005292Y-121578854D02*
X89107281Y-121264704D01*
X90878313Y-121974959D02*
X90005292Y-121578854D01*
X91722092Y-122449323D02*
X90878313Y-121974959D01*
X92532386Y-122998254D02*
X91722092Y-122449323D01*
X93304939Y-123618054D02*
X92532386Y-122998254D01*
X94035502Y-124305028D02*
X93304939Y-123618054D01*
X94719826Y-125055482D02*
X94035502Y-124305028D01*
X95353657Y-125865719D02*
X94719826Y-125055482D01*
X95932749Y-126732048D02*
X95353657Y-125865719D01*
X96452848Y-127650769D02*
X95932749Y-126732048D01*
X96909709Y-128618190D02*
X96452848Y-127650769D01*
X97299077Y-129630617D02*
X96909709Y-128618190D01*
X97616701Y-130684351D02*
X97299077Y-129630617D01*
X97728326Y-131139519D02*
X97616701Y-130684351D01*
X97830279Y-131611829D02*
X97728326Y-131139519D01*
X97922348Y-132098208D02*
X97830279Y-131611829D01*
X98004328Y-132595576D02*
X97922348Y-132098208D01*
X98076018Y-133100864D02*
X98004328Y-132595576D01*
X98137207Y-133610989D02*
X98076018Y-133100864D01*
X98187693Y-134122876D02*
X98137207Y-133610989D01*
X98227269Y-134633452D02*
X98187693Y-134122876D01*
X98255729Y-135139638D02*
X98227269Y-134633452D01*
X98272860Y-135638361D02*
X98255729Y-135139638D01*
X98278476Y-136126540D02*
X98272860Y-135638361D01*
X98272352Y-136601106D02*
X98278476Y-136126540D01*
X98254289Y-137058974D02*
X98272352Y-136601106D01*
X98224078Y-137497074D02*
X98254289Y-137058974D01*
X98181518Y-137912330D02*
X98224078Y-137497074D01*
X98126400Y-138301664D02*
X98181518Y-137912330D01*
X98112628Y-138388252D02*
X98126400Y-138301664D01*
X98099956Y-138473122D02*
X98112628Y-138388252D01*
X98088413Y-138555799D02*
X98099956Y-138473122D01*
X98078028Y-138635818D02*
X98088413Y-138555799D01*
X98068855Y-138712706D02*
X98078028Y-138635818D01*
X98060925Y-138785994D02*
X98068855Y-138712706D01*
X98054264Y-138855212D02*
X98060925Y-138785994D01*
X98048902Y-138919894D02*
X98054264Y-138855212D01*
X98044866Y-138979564D02*
X98048902Y-138919894D01*
X98042326Y-139033759D02*
X98044866Y-138979564D01*
X98041198Y-139082008D02*
X98042326Y-139033759D01*
X98041406Y-139123836D02*
X98041198Y-139082008D01*
X98043100Y-139158781D02*
X98041406Y-139123836D01*
X98046317Y-139186382D02*
X98043100Y-139158781D01*
X98051087Y-139206138D02*
X98046317Y-139186382D01*
X98057437Y-139217596D02*
X98051087Y-139206138D01*
X98099081Y-139212996D02*
X98057437Y-139217596D01*
X98190439Y-139171823D02*
X98099081Y-139212996D01*
X98325943Y-139097827D02*
X98190439Y-139171823D01*
X98500026Y-138994754D02*
X98325943Y-139097827D01*
X98707118Y-138866348D02*
X98500026Y-138994754D01*
X98941653Y-138716355D02*
X98707118Y-138866348D01*
X99198063Y-138548521D02*
X98941653Y-138716355D01*
X99470783Y-138366592D02*
X99198063Y-138548521D01*
X99754241Y-138174314D02*
X99470783Y-138366592D01*
X100042873Y-137975435D02*
X99754241Y-138174314D01*
X100331109Y-137773697D02*
X100042873Y-137975435D01*
X100613385Y-137572850D02*
X100331109Y-137773697D01*
X100884129Y-137376635D02*
X100613385Y-137572850D01*
X101137776Y-137188805D02*
X100884129Y-137376635D01*
X101368758Y-137013099D02*
X101137776Y-137188805D01*
X101571510Y-136853265D02*
X101368758Y-137013099D01*
X101646668Y-136792291D02*
X101571510Y-136853265D01*
X101733782Y-136721047D02*
X101646668Y-136792291D01*
X101831843Y-136640464D02*
X101733782Y-136721047D01*
X101939846Y-136551471D02*
X101831843Y-136640464D01*
X102056777Y-136455002D02*
X101939846Y-136551471D01*
X102181629Y-136351991D02*
X102056777Y-136455002D01*
X102313396Y-136243363D02*
X102181629Y-136351991D01*
X102451064Y-136130057D02*
X102313396Y-136243363D01*
X102593628Y-136013000D02*
X102451064Y-136130057D01*
X102740082Y-135893126D02*
X102593628Y-136013000D01*
X102889411Y-135771367D02*
X102740082Y-135893126D01*
X103040609Y-135648654D02*
X102889411Y-135771367D01*
X103192670Y-135525918D02*
X103040609Y-135648654D01*
X103344579Y-135404091D02*
X103192670Y-135525918D01*
X103495334Y-135284107D02*
X103344579Y-135404091D01*
X103643924Y-135166895D02*
X103495334Y-135284107D01*
X103711254Y-135114048D02*
X103643924Y-135166895D01*
X103778581Y-135061199D02*
X103711254Y-135114048D01*
X103845910Y-135008353D02*
X103778581Y-135061199D01*
X103913240Y-134955507D02*
X103845910Y-135008353D01*
X103980567Y-134902658D02*
X103913240Y-134955507D01*
X104047897Y-134849812D02*
X103980567Y-134902658D01*
X104115227Y-134796966D02*
X104047897Y-134849812D01*
X104182556Y-134744117D02*
X104115227Y-134796966D01*
X104249883Y-134691271D02*
X104182556Y-134744117D01*
X104317213Y-134638425D02*
X104249883Y-134691271D01*
X104384543Y-134585579D02*
X104317213Y-134638425D01*
X104451870Y-134532730D02*
X104384543Y-134585579D01*
X104519199Y-134479884D02*
X104451870Y-134532730D01*
X104586529Y-134427038D02*
X104519199Y-134479884D01*
X104653856Y-134374189D02*
X104586529Y-134427038D01*
X104721186Y-134321343D02*
X104653856Y-134374189D01*
X104693923Y-134260081D02*
X104721186Y-134321343D01*
X104666661Y-134198816D02*
X104693923Y-134260081D01*
X104639398Y-134137554D02*
X104666661Y-134198816D01*
X104612135Y-134076292D02*
X104639398Y-134137554D01*
X104584873Y-134015027D02*
X104612135Y-134076292D01*
X104557610Y-133953765D02*
X104584873Y-134015027D01*
X104530347Y-133892503D02*
X104557610Y-133953765D01*
X104503085Y-133831238D02*
X104530347Y-133892503D01*
X104475822Y-133769976D02*
X104503085Y-133831238D01*
X104448559Y-133708714D02*
X104475822Y-133769976D01*
X104421297Y-133647452D02*
X104448559Y-133708714D01*
X104394034Y-133586188D02*
X104421297Y-133647452D01*
X104366771Y-133524926D02*
X104394034Y-133586188D01*
X104339509Y-133463664D02*
X104366771Y-133524926D01*
X104312246Y-133402399D02*
X104339509Y-133463664D01*
X104284983Y-133341137D02*
X104312246Y-133402399D01*
X104162400Y-133057046D02*
X104284983Y-133341137D01*
X104042704Y-132760335D02*
X104162400Y-133057046D01*
X103926739Y-132449972D02*
X104042704Y-132760335D01*
X103815346Y-132124923D02*
X103926739Y-132449972D01*
X103709374Y-131784159D02*
X103815346Y-132124923D01*
X103609659Y-131426649D02*
X103709374Y-131784159D01*
X103517051Y-131051355D02*
X103609659Y-131426649D01*
X103432390Y-130657254D02*
X103517051Y-131051355D01*
X103356520Y-130243305D02*
X103432390Y-130657254D01*
X103290285Y-129808482D02*
X103356520Y-130243305D01*
X103234527Y-129351754D02*
X103290285Y-129808482D01*
X103190091Y-128872086D02*
X103234527Y-129351754D01*
X103157822Y-128368443D02*
X103190091Y-128872086D01*
X103138574Y-127839802D02*
X103157822Y-128368443D01*
X103133155Y-127285122D02*
X103138574Y-127839802D01*
X103142440Y-126703377D02*
X103133155Y-127285122D01*
X103150822Y-126369943D02*
X103142440Y-126703377D01*
X103157144Y-126063580D02*
X103150822Y-126369943D01*
X103162845Y-125779910D02*
X103157144Y-126063580D01*
X103169364Y-125514559D02*
X103162845Y-125779910D01*
X103178113Y-125263152D02*
X103169364Y-125514559D01*
X103190559Y-125021316D02*
X103178113Y-125263152D01*
X103208142Y-124784676D02*
X103190559Y-125021316D01*
X103232300Y-124548854D02*
X103208142Y-124784676D01*
X103264470Y-124309475D02*
X103232300Y-124548854D01*
X103306090Y-124062170D02*
X103264470Y-124309475D01*
X103358603Y-123802559D02*
X103306090Y-124062170D01*
X103423446Y-123526266D02*
X103358603Y-123802559D01*
X103502059Y-123228920D02*
X103423446Y-123526266D01*
X103595881Y-122906145D02*
X103502059Y-123228920D01*
X103706351Y-122553565D02*
X103595881Y-122906145D01*
X103834912Y-122166805D02*
X103706351Y-122553565D01*
X103836888Y-122153851D02*
X103834912Y-122166805D01*
X103843492Y-122116541D02*
X103836888Y-122153851D01*
X103855204Y-122057142D02*
X103843492Y-122116541D01*
X103872617Y-121977939D02*
X103855204Y-122057142D01*
X103896295Y-121881213D02*
X103872617Y-121977939D01*
X103926807Y-121769244D02*
X103896295Y-121881213D01*
X103964743Y-121644316D02*
X103926807Y-121769244D01*
X104010680Y-121508708D02*
X103964743Y-121644316D01*
X104065194Y-121364704D02*
X104010680Y-121508708D01*
X104128866Y-121214581D02*
X104065194Y-121364704D01*
X104202275Y-121060626D02*
X104128866Y-121214581D01*
X104285996Y-120905116D02*
X104202275Y-121060626D01*
X104380609Y-120750334D02*
X104285996Y-120905116D01*
X104486693Y-120598564D02*
X104380609Y-120750334D01*
X104604823Y-120452082D02*
X104486693Y-120598564D01*
X104735582Y-120313175D02*
X104604823Y-120452082D01*
X104901373Y-120164370D02*
X104735582Y-120313175D01*
X105076648Y-120032564D02*
X104901373Y-120164370D01*
X105261455Y-119916678D02*
X105076648Y-120032564D01*
X105455855Y-119815640D02*
X105261455Y-119916678D01*
X105659896Y-119728365D02*
X105455855Y-119815640D01*
X105873637Y-119653785D02*
X105659896Y-119728365D01*
X106097129Y-119590819D02*
X105873637Y-119653785D01*
X106330428Y-119538390D02*
X106097129Y-119590819D01*
X106573588Y-119495422D02*
X106330428Y-119538390D01*
X106826665Y-119460838D02*
X106573588Y-119495422D01*
X107089708Y-119433548D02*
X106826665Y-119460838D01*
X107362777Y-119412494D02*
X107089708Y-119433548D01*
X107645925Y-119396605D02*
X107362777Y-119412494D01*
X107939202Y-119384780D02*
X107645925Y-119396605D01*
X108242667Y-119375974D02*
X107939202Y-119384780D01*
X108556374Y-119369088D02*
X108242667Y-119375974D01*
X109383991Y-119362258D02*
X108556374Y-119369088D01*
X110224830Y-119374224D02*
X109383991Y-119362258D01*
X111074993Y-119405235D02*
X110224830Y-119374224D01*
X111930578Y-119455493D02*
X111074993Y-119405235D01*
X112787695Y-119525213D02*
X111930578Y-119455493D01*
X113642439Y-119614607D02*
X112787695Y-119525213D01*
X114490918Y-119723898D02*
X113642439Y-119614607D01*
X115329231Y-119853294D02*
X114490918Y-119723898D01*
X116153480Y-120003010D02*
X115329231Y-119853294D01*
X116959767Y-120173266D02*
X116153480Y-120003010D01*
X117744195Y-120364277D02*
X116959767Y-120173266D01*
X118502867Y-120576251D02*
X117744195Y-120364277D01*
X119231884Y-120809412D02*
X118502867Y-120576251D01*
X119927350Y-121063971D02*
X119231884Y-120809412D01*
X120585365Y-121340142D02*
X119927350Y-121063971D01*
X121202032Y-121638143D02*
X120585365Y-121340142D01*
X122133411Y-122155589D02*
X121202032Y-121638143D01*
X123041870Y-122725845D02*
X122133411Y-122155589D01*
X123922279Y-123342737D02*
X123041870Y-122725845D01*
X124769510Y-124000101D02*
X123922279Y-123342737D01*
X125578435Y-124691768D02*
X124769510Y-124000101D01*
X126343924Y-125411570D02*
X125578435Y-124691768D01*
X127060850Y-126153335D02*
X126343924Y-125411570D01*
X127724083Y-126910895D02*
X127060850Y-126153335D01*
X128328499Y-127678083D02*
X127724083Y-126910895D01*
X128868963Y-128448730D02*
X128328499Y-127678083D01*
X129340350Y-129216668D02*
X128868963Y-128448730D01*
X129737530Y-129975727D02*
X129340350Y-129216668D01*
X130055374Y-130719738D02*
X129737530Y-129975727D01*
X130288758Y-131442532D02*
X130055374Y-130719738D01*
X130432548Y-132137942D02*
X130288758Y-131442532D01*
X130481618Y-132799798D02*
X130432548Y-132137942D01*
X130477497Y-133025564D02*
X130481618Y-132799798D01*
X130464628Y-133239568D02*
X130477497Y-133025564D01*
X130442219Y-133443321D02*
X130464628Y-133239568D01*
X130409529Y-133638334D02*
X130442219Y-133443321D01*
X130365788Y-133826116D02*
X130409529Y-133638334D01*
X130310224Y-134008180D02*
X130365788Y-133826116D01*
X130242070Y-134186031D02*
X130310224Y-134008180D01*
X130160567Y-134361184D02*
X130242070Y-134186031D01*
X130064945Y-134535146D02*
X130160567Y-134361184D01*
X129954435Y-134709426D02*
X130064945Y-134535146D01*
X129828273Y-134885539D02*
X129954435Y-134709426D01*
X129685694Y-135064993D02*
X129828273Y-134885539D01*
X129525928Y-135249298D02*
X129685694Y-135064993D01*
X129348216Y-135439964D02*
X129525928Y-135249298D01*
X129151784Y-135638502D02*
X129348216Y-135439964D01*
X128935869Y-135846421D02*
X129151784Y-135638502D01*
X128485722Y-136244766D02*
X128935869Y-135846421D01*
X128004102Y-136624225D02*
X128485722Y-136244766D01*
X127498029Y-136984214D02*
X128004102Y-136624225D01*
X126974532Y-137324139D02*
X127498029Y-136984214D01*
X126440633Y-137643417D02*
X126974532Y-137324139D01*
X125903358Y-137941455D02*
X126440633Y-137643417D01*
X125369729Y-138217669D02*
X125903358Y-137941455D01*
X124846771Y-138471466D02*
X125369729Y-138217669D01*
X124341512Y-138702261D02*
X124846771Y-138471466D01*
X123860972Y-138909463D02*
X124341512Y-138702261D01*
X123412177Y-139092487D02*
X123860972Y-138909463D01*
X123002150Y-139250743D02*
X123412177Y-139092487D01*
X122637917Y-139383642D02*
X123002150Y-139250743D01*
X122326499Y-139490595D02*
X122637917Y-139383642D01*
X122074926Y-139571015D02*
X122326499Y-139490595D01*
X121890220Y-139624315D02*
X122074926Y-139571015D01*
X121807261Y-139646441D02*
X121890220Y-139624315D01*
X121734811Y-139666282D02*
X121807261Y-139646441D01*
X121672059Y-139684400D02*
X121734811Y-139666282D01*
X121618183Y-139701390D02*
X121672059Y-139684400D01*
X121572370Y-139717872D02*
X121618183Y-139701390D01*
X121533804Y-139734438D02*
X121572370Y-139717872D01*
X121501665Y-139751682D02*
X121533804Y-139734438D01*
X121475136Y-139770224D02*
X121501665Y-139751682D01*
X121453405Y-139790629D02*
X121475136Y-139770224D01*
X121435653Y-139813517D02*
X121453405Y-139790629D01*
X121421062Y-139839481D02*
X121435653Y-139813517D01*
X121408814Y-139869129D02*
X121421062Y-139839481D01*
X121398117Y-139903055D02*
X121408814Y-139869129D01*
X121388127Y-139941855D02*
X121398117Y-139903055D01*
X121378023Y-139986127D02*
X121388127Y-139941855D01*
X121366988Y-140036470D02*
X121378023Y-139986127D01*
X121184769Y-140813092D02*
X121366988Y-140036470D01*
X120988980Y-141547056D02*
X121184769Y-140813092D01*
X120779630Y-142244082D02*
X120988980Y-141547056D01*
X120556731Y-142909893D02*
X120779630Y-142244082D01*
X120320291Y-143550213D02*
X120556731Y-142909893D01*
X120070318Y-144170763D02*
X120320291Y-143550213D01*
X119806824Y-144777267D02*
X120070318Y-144170763D01*
X119529815Y-145375445D02*
X119806824Y-144777267D01*
X119239301Y-145971024D02*
X119529815Y-145375445D01*
X118935291Y-146569722D02*
X119239301Y-145971024D01*
X118617797Y-147177265D02*
X118935291Y-146569722D01*
X118286826Y-147799370D02*
X118617797Y-147177265D01*
X117942385Y-148441767D02*
X118286826Y-147799370D01*
X117584485Y-149110171D02*
X117942385Y-148441767D01*
X117213137Y-149810311D02*
X117584485Y-149110171D01*
X116828350Y-150547907D02*
X117213137Y-149810311D01*
X115782925Y-152484146D02*
X116828350Y-150547907D01*
X114713583Y-154285466D02*
X115782925Y-152484146D01*
X113614790Y-155956044D02*
X114713583Y-154285466D01*
X112481016Y-157500053D02*
X113614790Y-155956044D01*
X111306723Y-158921674D02*
X112481016Y-157500053D01*
X110086380Y-160225078D02*
X111306723Y-158921674D01*
X108814455Y-161414442D02*
X110086380Y-160225078D01*
X107485417Y-162493942D02*
X108814455Y-161414442D01*
X106093726Y-163467755D02*
X107485417Y-162493942D01*
X104633855Y-164340056D02*
X106093726Y-163467755D01*
X103100268Y-165115019D02*
X104633855Y-164340056D01*
X101487433Y-165796822D02*
X103100268Y-165115019D01*
X99789818Y-166389639D02*
X101487433Y-165796822D01*
X98001887Y-166897647D02*
X99789818Y-166389639D01*
X96118110Y-167325022D02*
X98001887Y-166897647D01*
X94132950Y-167675940D02*
X96118110Y-167325022D01*
M02*
