G04 #@! TF.FileFunction,Legend,Bot*
%FSLAX46Y46*%
G04 Gerber Fmt 4.6, Leading zero omitted, Abs format (unit mm)*
G04 Created by KiCad (PCBNEW 4.0.2+e4-6225~38~ubuntu16.04.1-stable) date Mit 05 Apr 2017 15:20:37 CST*
%MOMM*%
G01*
G04 APERTURE LIST*
%ADD10C,0.100000*%
%ADD11C,0.010000*%
G04 APERTURE END LIST*
D10*
D11*
G36*
X66864804Y-157520686D02*
X66918070Y-157685541D01*
X66972192Y-157852855D01*
X67024306Y-158013795D01*
X67071554Y-158159529D01*
X67111072Y-158281226D01*
X67136204Y-158358423D01*
X67167807Y-158458012D01*
X67192874Y-158542277D01*
X67209253Y-158603565D01*
X67214791Y-158634219D01*
X67214271Y-158636166D01*
X67190098Y-158641864D01*
X67134323Y-158649337D01*
X67057562Y-158657230D01*
X67031390Y-158659531D01*
X66858197Y-158674159D01*
X66706867Y-158209295D01*
X66661637Y-158073860D01*
X66618130Y-157950031D01*
X66578760Y-157844189D01*
X66545941Y-157762715D01*
X66522090Y-157711990D01*
X66514110Y-157699966D01*
X66460139Y-157662646D01*
X66406627Y-157659852D01*
X66371724Y-157683364D01*
X66363315Y-157696691D01*
X66359406Y-157715134D01*
X66361201Y-157743459D01*
X66369910Y-157786433D01*
X66386736Y-157848823D01*
X66412888Y-157935394D01*
X66449571Y-158050914D01*
X66497991Y-158200149D01*
X66518138Y-158261850D01*
X66557363Y-158383027D01*
X66591578Y-158490934D01*
X66618732Y-158578920D01*
X66636774Y-158640331D01*
X66643652Y-158668516D01*
X66643666Y-158668905D01*
X66635503Y-158684968D01*
X66606723Y-158697726D01*
X66550892Y-158708755D01*
X66461575Y-158719630D01*
X66419044Y-158723902D01*
X66289672Y-158736441D01*
X66177304Y-158391762D01*
X66135709Y-158263498D01*
X66094660Y-158135722D01*
X66057718Y-158019603D01*
X66028444Y-157926307D01*
X66016769Y-157888333D01*
X65992695Y-157815227D01*
X65976106Y-157778391D01*
X65968054Y-157779964D01*
X65967467Y-157787791D01*
X65966076Y-157818456D01*
X65958001Y-157836319D01*
X65935200Y-157842759D01*
X65889628Y-157839152D01*
X65813242Y-157826874D01*
X65776226Y-157820524D01*
X65698991Y-157806308D01*
X65654559Y-157793372D01*
X65633891Y-157776565D01*
X65627946Y-157750735D01*
X65627666Y-157735858D01*
X65608621Y-157666971D01*
X65559006Y-157615464D01*
X65490103Y-157592346D01*
X65480244Y-157592000D01*
X65419939Y-157609981D01*
X65381396Y-157656239D01*
X65373666Y-157694817D01*
X65392162Y-157739294D01*
X65443139Y-157794001D01*
X65519828Y-157853307D01*
X65615460Y-157911579D01*
X65664253Y-157936634D01*
X65752633Y-157983945D01*
X65832429Y-158034638D01*
X65890589Y-158080179D01*
X65902783Y-158092593D01*
X65967814Y-158197386D01*
X65998951Y-158319786D01*
X65995528Y-158451172D01*
X65956880Y-158582921D01*
X65942943Y-158612358D01*
X65880218Y-158693557D01*
X65795338Y-158741449D01*
X65694389Y-158754266D01*
X65583456Y-158730242D01*
X65564166Y-158722420D01*
X65496831Y-158685008D01*
X65436339Y-158638881D01*
X65434677Y-158637306D01*
X65397675Y-158603507D01*
X65379971Y-158597746D01*
X65370304Y-158618765D01*
X65367370Y-158629789D01*
X65345691Y-158663818D01*
X65316943Y-158664686D01*
X65276846Y-158655619D01*
X65210083Y-158642388D01*
X65137792Y-158629066D01*
X64997168Y-158604055D01*
X65016323Y-158534681D01*
X65021802Y-158493083D01*
X65026139Y-158416606D01*
X65029140Y-158312691D01*
X65030610Y-158188782D01*
X65030474Y-158115703D01*
X65393629Y-158115703D01*
X65397675Y-158189634D01*
X65399498Y-158217101D01*
X65406932Y-158304921D01*
X65417603Y-158361390D01*
X65434695Y-158397491D01*
X65458979Y-158422279D01*
X65521399Y-158453203D01*
X65577485Y-158443951D01*
X65620969Y-158395743D01*
X65623692Y-158390287D01*
X65643395Y-158307836D01*
X65621419Y-158231358D01*
X65558126Y-158161866D01*
X65535990Y-158145770D01*
X65463054Y-158096473D01*
X65419536Y-158072667D01*
X65398655Y-158077896D01*
X65393629Y-158115703D01*
X65030474Y-158115703D01*
X65030355Y-158052321D01*
X65029947Y-158012778D01*
X65028270Y-157863013D01*
X65027735Y-157749325D01*
X65028862Y-157665465D01*
X65032169Y-157605181D01*
X65038174Y-157562222D01*
X65047394Y-157530337D01*
X65060349Y-157503276D01*
X65074085Y-157480361D01*
X65136282Y-157404161D01*
X65214250Y-157356773D01*
X65316511Y-157334244D01*
X65395944Y-157331027D01*
X65551892Y-157346306D01*
X65690064Y-157388205D01*
X65804735Y-157453613D01*
X65890180Y-157539421D01*
X65934748Y-157623750D01*
X65953104Y-157673204D01*
X65962026Y-157685330D01*
X65965082Y-157663083D01*
X65965404Y-157649157D01*
X65984664Y-157559422D01*
X66033420Y-157480773D01*
X66092640Y-157433608D01*
X66175592Y-157408341D01*
X66273102Y-157403544D01*
X66363904Y-157419321D01*
X66394958Y-157432125D01*
X66435113Y-157448978D01*
X66453482Y-157448626D01*
X66453593Y-157447869D01*
X66447833Y-157422807D01*
X66431916Y-157366378D01*
X66408447Y-157287581D01*
X66386552Y-157216305D01*
X66359833Y-157127150D01*
X66339830Y-157054056D01*
X66328793Y-157005686D01*
X66327917Y-156990628D01*
X66351675Y-156984878D01*
X66407063Y-156977282D01*
X66483503Y-156969225D01*
X66508954Y-156966926D01*
X66681158Y-156951956D01*
X66864804Y-157520686D01*
X66864804Y-157520686D01*
G37*
X66864804Y-157520686D02*
X66918070Y-157685541D01*
X66972192Y-157852855D01*
X67024306Y-158013795D01*
X67071554Y-158159529D01*
X67111072Y-158281226D01*
X67136204Y-158358423D01*
X67167807Y-158458012D01*
X67192874Y-158542277D01*
X67209253Y-158603565D01*
X67214791Y-158634219D01*
X67214271Y-158636166D01*
X67190098Y-158641864D01*
X67134323Y-158649337D01*
X67057562Y-158657230D01*
X67031390Y-158659531D01*
X66858197Y-158674159D01*
X66706867Y-158209295D01*
X66661637Y-158073860D01*
X66618130Y-157950031D01*
X66578760Y-157844189D01*
X66545941Y-157762715D01*
X66522090Y-157711990D01*
X66514110Y-157699966D01*
X66460139Y-157662646D01*
X66406627Y-157659852D01*
X66371724Y-157683364D01*
X66363315Y-157696691D01*
X66359406Y-157715134D01*
X66361201Y-157743459D01*
X66369910Y-157786433D01*
X66386736Y-157848823D01*
X66412888Y-157935394D01*
X66449571Y-158050914D01*
X66497991Y-158200149D01*
X66518138Y-158261850D01*
X66557363Y-158383027D01*
X66591578Y-158490934D01*
X66618732Y-158578920D01*
X66636774Y-158640331D01*
X66643652Y-158668516D01*
X66643666Y-158668905D01*
X66635503Y-158684968D01*
X66606723Y-158697726D01*
X66550892Y-158708755D01*
X66461575Y-158719630D01*
X66419044Y-158723902D01*
X66289672Y-158736441D01*
X66177304Y-158391762D01*
X66135709Y-158263498D01*
X66094660Y-158135722D01*
X66057718Y-158019603D01*
X66028444Y-157926307D01*
X66016769Y-157888333D01*
X65992695Y-157815227D01*
X65976106Y-157778391D01*
X65968054Y-157779964D01*
X65967467Y-157787791D01*
X65966076Y-157818456D01*
X65958001Y-157836319D01*
X65935200Y-157842759D01*
X65889628Y-157839152D01*
X65813242Y-157826874D01*
X65776226Y-157820524D01*
X65698991Y-157806308D01*
X65654559Y-157793372D01*
X65633891Y-157776565D01*
X65627946Y-157750735D01*
X65627666Y-157735858D01*
X65608621Y-157666971D01*
X65559006Y-157615464D01*
X65490103Y-157592346D01*
X65480244Y-157592000D01*
X65419939Y-157609981D01*
X65381396Y-157656239D01*
X65373666Y-157694817D01*
X65392162Y-157739294D01*
X65443139Y-157794001D01*
X65519828Y-157853307D01*
X65615460Y-157911579D01*
X65664253Y-157936634D01*
X65752633Y-157983945D01*
X65832429Y-158034638D01*
X65890589Y-158080179D01*
X65902783Y-158092593D01*
X65967814Y-158197386D01*
X65998951Y-158319786D01*
X65995528Y-158451172D01*
X65956880Y-158582921D01*
X65942943Y-158612358D01*
X65880218Y-158693557D01*
X65795338Y-158741449D01*
X65694389Y-158754266D01*
X65583456Y-158730242D01*
X65564166Y-158722420D01*
X65496831Y-158685008D01*
X65436339Y-158638881D01*
X65434677Y-158637306D01*
X65397675Y-158603507D01*
X65379971Y-158597746D01*
X65370304Y-158618765D01*
X65367370Y-158629789D01*
X65345691Y-158663818D01*
X65316943Y-158664686D01*
X65276846Y-158655619D01*
X65210083Y-158642388D01*
X65137792Y-158629066D01*
X64997168Y-158604055D01*
X65016323Y-158534681D01*
X65021802Y-158493083D01*
X65026139Y-158416606D01*
X65029140Y-158312691D01*
X65030610Y-158188782D01*
X65030474Y-158115703D01*
X65393629Y-158115703D01*
X65397675Y-158189634D01*
X65399498Y-158217101D01*
X65406932Y-158304921D01*
X65417603Y-158361390D01*
X65434695Y-158397491D01*
X65458979Y-158422279D01*
X65521399Y-158453203D01*
X65577485Y-158443951D01*
X65620969Y-158395743D01*
X65623692Y-158390287D01*
X65643395Y-158307836D01*
X65621419Y-158231358D01*
X65558126Y-158161866D01*
X65535990Y-158145770D01*
X65463054Y-158096473D01*
X65419536Y-158072667D01*
X65398655Y-158077896D01*
X65393629Y-158115703D01*
X65030474Y-158115703D01*
X65030355Y-158052321D01*
X65029947Y-158012778D01*
X65028270Y-157863013D01*
X65027735Y-157749325D01*
X65028862Y-157665465D01*
X65032169Y-157605181D01*
X65038174Y-157562222D01*
X65047394Y-157530337D01*
X65060349Y-157503276D01*
X65074085Y-157480361D01*
X65136282Y-157404161D01*
X65214250Y-157356773D01*
X65316511Y-157334244D01*
X65395944Y-157331027D01*
X65551892Y-157346306D01*
X65690064Y-157388205D01*
X65804735Y-157453613D01*
X65890180Y-157539421D01*
X65934748Y-157623750D01*
X65953104Y-157673204D01*
X65962026Y-157685330D01*
X65965082Y-157663083D01*
X65965404Y-157649157D01*
X65984664Y-157559422D01*
X66033420Y-157480773D01*
X66092640Y-157433608D01*
X66175592Y-157408341D01*
X66273102Y-157403544D01*
X66363904Y-157419321D01*
X66394958Y-157432125D01*
X66435113Y-157448978D01*
X66453482Y-157448626D01*
X66453593Y-157447869D01*
X66447833Y-157422807D01*
X66431916Y-157366378D01*
X66408447Y-157287581D01*
X66386552Y-157216305D01*
X66359833Y-157127150D01*
X66339830Y-157054056D01*
X66328793Y-157005686D01*
X66327917Y-156990628D01*
X66351675Y-156984878D01*
X66407063Y-156977282D01*
X66483503Y-156969225D01*
X66508954Y-156966926D01*
X66681158Y-156951956D01*
X66864804Y-157520686D01*
G36*
X64465431Y-157005144D02*
X64602713Y-157034486D01*
X64728541Y-157093145D01*
X64834955Y-157175253D01*
X64913997Y-157274941D01*
X64952388Y-157364180D01*
X64963266Y-157447058D01*
X64961210Y-157559511D01*
X64947986Y-157691416D01*
X64925358Y-157832647D01*
X64895091Y-157973080D01*
X64858949Y-158102591D01*
X64818698Y-158211054D01*
X64797118Y-158255072D01*
X64722252Y-158353652D01*
X64628166Y-158415163D01*
X64516917Y-158439129D01*
X64390565Y-158425079D01*
X64262416Y-158378010D01*
X64134540Y-158305710D01*
X64043344Y-158225722D01*
X63983188Y-158131340D01*
X63948431Y-158015855D01*
X63945935Y-158001684D01*
X63942841Y-157947601D01*
X63945882Y-157874531D01*
X63953553Y-157795910D01*
X63964350Y-157725174D01*
X63976769Y-157675757D01*
X63983917Y-157662359D01*
X64005157Y-157667102D01*
X64055275Y-157686191D01*
X64124849Y-157715940D01*
X64151451Y-157727914D01*
X64311571Y-157800883D01*
X64299898Y-157929617D01*
X64295519Y-158007642D01*
X64301264Y-158057356D01*
X64319174Y-158092002D01*
X64326226Y-158100342D01*
X64375653Y-158139880D01*
X64419962Y-158142089D01*
X64460178Y-158105831D01*
X64497327Y-158029967D01*
X64532436Y-157913357D01*
X64545798Y-157856583D01*
X64579235Y-157701055D01*
X64602263Y-157580986D01*
X64615458Y-157490951D01*
X64619395Y-157425523D01*
X64614650Y-157379280D01*
X64601797Y-157346795D01*
X64600131Y-157344160D01*
X64555412Y-157306181D01*
X64501904Y-157300874D01*
X64450756Y-157323567D01*
X64413115Y-157369588D01*
X64400000Y-157428040D01*
X64390538Y-157463101D01*
X64359258Y-157475057D01*
X64301816Y-157463828D01*
X64213865Y-157429332D01*
X64202700Y-157424364D01*
X64121763Y-157384844D01*
X64077113Y-157349471D01*
X64065550Y-157308222D01*
X64083877Y-157251075D01*
X64123729Y-157176988D01*
X64192000Y-157083676D01*
X64272333Y-157027163D01*
X64372455Y-157003562D01*
X64465431Y-157005144D01*
X64465431Y-157005144D01*
G37*
X64465431Y-157005144D02*
X64602713Y-157034486D01*
X64728541Y-157093145D01*
X64834955Y-157175253D01*
X64913997Y-157274941D01*
X64952388Y-157364180D01*
X64963266Y-157447058D01*
X64961210Y-157559511D01*
X64947986Y-157691416D01*
X64925358Y-157832647D01*
X64895091Y-157973080D01*
X64858949Y-158102591D01*
X64818698Y-158211054D01*
X64797118Y-158255072D01*
X64722252Y-158353652D01*
X64628166Y-158415163D01*
X64516917Y-158439129D01*
X64390565Y-158425079D01*
X64262416Y-158378010D01*
X64134540Y-158305710D01*
X64043344Y-158225722D01*
X63983188Y-158131340D01*
X63948431Y-158015855D01*
X63945935Y-158001684D01*
X63942841Y-157947601D01*
X63945882Y-157874531D01*
X63953553Y-157795910D01*
X63964350Y-157725174D01*
X63976769Y-157675757D01*
X63983917Y-157662359D01*
X64005157Y-157667102D01*
X64055275Y-157686191D01*
X64124849Y-157715940D01*
X64151451Y-157727914D01*
X64311571Y-157800883D01*
X64299898Y-157929617D01*
X64295519Y-158007642D01*
X64301264Y-158057356D01*
X64319174Y-158092002D01*
X64326226Y-158100342D01*
X64375653Y-158139880D01*
X64419962Y-158142089D01*
X64460178Y-158105831D01*
X64497327Y-158029967D01*
X64532436Y-157913357D01*
X64545798Y-157856583D01*
X64579235Y-157701055D01*
X64602263Y-157580986D01*
X64615458Y-157490951D01*
X64619395Y-157425523D01*
X64614650Y-157379280D01*
X64601797Y-157346795D01*
X64600131Y-157344160D01*
X64555412Y-157306181D01*
X64501904Y-157300874D01*
X64450756Y-157323567D01*
X64413115Y-157369588D01*
X64400000Y-157428040D01*
X64390538Y-157463101D01*
X64359258Y-157475057D01*
X64301816Y-157463828D01*
X64213865Y-157429332D01*
X64202700Y-157424364D01*
X64121763Y-157384844D01*
X64077113Y-157349471D01*
X64065550Y-157308222D01*
X64083877Y-157251075D01*
X64123729Y-157176988D01*
X64192000Y-157083676D01*
X64272333Y-157027163D01*
X64372455Y-157003562D01*
X64465431Y-157005144D01*
G36*
X63186514Y-155615768D02*
X63233247Y-155650868D01*
X63292919Y-155700996D01*
X63308318Y-155714636D01*
X63433719Y-155826863D01*
X63343290Y-155996581D01*
X63252860Y-156166299D01*
X63339004Y-156253308D01*
X63408682Y-156317663D01*
X63487004Y-156381502D01*
X63520991Y-156406259D01*
X63574074Y-156443232D01*
X63609855Y-156469010D01*
X63619101Y-156476475D01*
X63621782Y-156497916D01*
X63627462Y-156553362D01*
X63635335Y-156634652D01*
X63644594Y-156733628D01*
X63645559Y-156744127D01*
X63669750Y-157007505D01*
X63825129Y-156627710D01*
X63873999Y-156509230D01*
X63918053Y-156404266D01*
X63954585Y-156319112D01*
X63980895Y-156260059D01*
X63994278Y-156233400D01*
X63994752Y-156232810D01*
X64018872Y-156235184D01*
X64064670Y-156258901D01*
X64122500Y-156296827D01*
X64182717Y-156341828D01*
X64235675Y-156386770D01*
X64271728Y-156424518D01*
X64281908Y-156445199D01*
X64273785Y-156471922D01*
X64251590Y-156531762D01*
X64217386Y-156619726D01*
X64173233Y-156730821D01*
X64121192Y-156860053D01*
X64063325Y-157002429D01*
X64001693Y-157152955D01*
X63938356Y-157306638D01*
X63875377Y-157458484D01*
X63814815Y-157603500D01*
X63758733Y-157736692D01*
X63709192Y-157853068D01*
X63668252Y-157947632D01*
X63637975Y-158015393D01*
X63620423Y-158051356D01*
X63617072Y-158055855D01*
X63595731Y-158043416D01*
X63550153Y-158012533D01*
X63490181Y-157969878D01*
X63489833Y-157969625D01*
X63426656Y-157924387D01*
X63374850Y-157888324D01*
X63346679Y-157869897D01*
X63338278Y-157852022D01*
X63345062Y-157812480D01*
X63368544Y-157745783D01*
X63404887Y-157658735D01*
X63451073Y-157546488D01*
X63478216Y-157464220D01*
X63487804Y-157404890D01*
X63481323Y-157361455D01*
X63471740Y-157342248D01*
X63454280Y-157339874D01*
X63418515Y-157363339D01*
X63361691Y-157414897D01*
X63281057Y-157496806D01*
X63273540Y-157504690D01*
X63092785Y-157694633D01*
X63010850Y-157640319D01*
X62941912Y-157593348D01*
X62873825Y-157545063D01*
X62860224Y-157535084D01*
X62791532Y-157484164D01*
X63071891Y-157237533D01*
X63174325Y-157148029D01*
X63249889Y-157079646D01*
X63301919Y-157023847D01*
X63333755Y-156972094D01*
X63348734Y-156915853D01*
X63350195Y-156846585D01*
X63341475Y-156755754D01*
X63325913Y-156634825D01*
X63321411Y-156599425D01*
X63308022Y-156500961D01*
X63296825Y-156440175D01*
X63286588Y-156412549D01*
X63276077Y-156413569D01*
X63272292Y-156419508D01*
X63252063Y-156455292D01*
X63243955Y-156467742D01*
X63223725Y-156463220D01*
X63184053Y-156441096D01*
X63181740Y-156439592D01*
X63141935Y-156416426D01*
X63121349Y-156409999D01*
X63121070Y-156410267D01*
X63109725Y-156430175D01*
X63081394Y-156481254D01*
X63039376Y-156557515D01*
X62986971Y-156652973D01*
X62930606Y-156755916D01*
X62867615Y-156868836D01*
X62807539Y-156972404D01*
X62754780Y-157059344D01*
X62713735Y-157122378D01*
X62691307Y-157151763D01*
X62616949Y-157207342D01*
X62534908Y-157223656D01*
X62443522Y-157200458D01*
X62341129Y-157137503D01*
X62285891Y-157091580D01*
X62193200Y-157008713D01*
X62251396Y-156892898D01*
X62282967Y-156830877D01*
X62306481Y-156786183D01*
X62315793Y-156770100D01*
X62335626Y-156775401D01*
X62374993Y-156797848D01*
X62376583Y-156798886D01*
X62423992Y-156821045D01*
X62459835Y-156823655D01*
X62477660Y-156802792D01*
X62510929Y-156751849D01*
X62555479Y-156678268D01*
X62607144Y-156589487D01*
X62661762Y-156492947D01*
X62715168Y-156396087D01*
X62763199Y-156306348D01*
X62801691Y-156231168D01*
X62826480Y-156177987D01*
X62833666Y-156155719D01*
X62818526Y-156129038D01*
X62781980Y-156093921D01*
X62780750Y-156092948D01*
X62745311Y-156062202D01*
X62731703Y-156034648D01*
X62739519Y-155997607D01*
X62768351Y-155938399D01*
X62775363Y-155925125D01*
X62813205Y-155863353D01*
X62845309Y-155839221D01*
X62878987Y-155850097D01*
X62907750Y-155877500D01*
X62940822Y-155908907D01*
X62960092Y-155919833D01*
X62975625Y-155902397D01*
X63004895Y-155855909D01*
X63042545Y-155789101D01*
X63057353Y-155761311D01*
X63097597Y-155689093D01*
X63132693Y-155634059D01*
X63156856Y-155605005D01*
X63161750Y-155602599D01*
X63186514Y-155615768D01*
X63186514Y-155615768D01*
G37*
X63186514Y-155615768D02*
X63233247Y-155650868D01*
X63292919Y-155700996D01*
X63308318Y-155714636D01*
X63433719Y-155826863D01*
X63343290Y-155996581D01*
X63252860Y-156166299D01*
X63339004Y-156253308D01*
X63408682Y-156317663D01*
X63487004Y-156381502D01*
X63520991Y-156406259D01*
X63574074Y-156443232D01*
X63609855Y-156469010D01*
X63619101Y-156476475D01*
X63621782Y-156497916D01*
X63627462Y-156553362D01*
X63635335Y-156634652D01*
X63644594Y-156733628D01*
X63645559Y-156744127D01*
X63669750Y-157007505D01*
X63825129Y-156627710D01*
X63873999Y-156509230D01*
X63918053Y-156404266D01*
X63954585Y-156319112D01*
X63980895Y-156260059D01*
X63994278Y-156233400D01*
X63994752Y-156232810D01*
X64018872Y-156235184D01*
X64064670Y-156258901D01*
X64122500Y-156296827D01*
X64182717Y-156341828D01*
X64235675Y-156386770D01*
X64271728Y-156424518D01*
X64281908Y-156445199D01*
X64273785Y-156471922D01*
X64251590Y-156531762D01*
X64217386Y-156619726D01*
X64173233Y-156730821D01*
X64121192Y-156860053D01*
X64063325Y-157002429D01*
X64001693Y-157152955D01*
X63938356Y-157306638D01*
X63875377Y-157458484D01*
X63814815Y-157603500D01*
X63758733Y-157736692D01*
X63709192Y-157853068D01*
X63668252Y-157947632D01*
X63637975Y-158015393D01*
X63620423Y-158051356D01*
X63617072Y-158055855D01*
X63595731Y-158043416D01*
X63550153Y-158012533D01*
X63490181Y-157969878D01*
X63489833Y-157969625D01*
X63426656Y-157924387D01*
X63374850Y-157888324D01*
X63346679Y-157869897D01*
X63338278Y-157852022D01*
X63345062Y-157812480D01*
X63368544Y-157745783D01*
X63404887Y-157658735D01*
X63451073Y-157546488D01*
X63478216Y-157464220D01*
X63487804Y-157404890D01*
X63481323Y-157361455D01*
X63471740Y-157342248D01*
X63454280Y-157339874D01*
X63418515Y-157363339D01*
X63361691Y-157414897D01*
X63281057Y-157496806D01*
X63273540Y-157504690D01*
X63092785Y-157694633D01*
X63010850Y-157640319D01*
X62941912Y-157593348D01*
X62873825Y-157545063D01*
X62860224Y-157535084D01*
X62791532Y-157484164D01*
X63071891Y-157237533D01*
X63174325Y-157148029D01*
X63249889Y-157079646D01*
X63301919Y-157023847D01*
X63333755Y-156972094D01*
X63348734Y-156915853D01*
X63350195Y-156846585D01*
X63341475Y-156755754D01*
X63325913Y-156634825D01*
X63321411Y-156599425D01*
X63308022Y-156500961D01*
X63296825Y-156440175D01*
X63286588Y-156412549D01*
X63276077Y-156413569D01*
X63272292Y-156419508D01*
X63252063Y-156455292D01*
X63243955Y-156467742D01*
X63223725Y-156463220D01*
X63184053Y-156441096D01*
X63181740Y-156439592D01*
X63141935Y-156416426D01*
X63121349Y-156409999D01*
X63121070Y-156410267D01*
X63109725Y-156430175D01*
X63081394Y-156481254D01*
X63039376Y-156557515D01*
X62986971Y-156652973D01*
X62930606Y-156755916D01*
X62867615Y-156868836D01*
X62807539Y-156972404D01*
X62754780Y-157059344D01*
X62713735Y-157122378D01*
X62691307Y-157151763D01*
X62616949Y-157207342D01*
X62534908Y-157223656D01*
X62443522Y-157200458D01*
X62341129Y-157137503D01*
X62285891Y-157091580D01*
X62193200Y-157008713D01*
X62251396Y-156892898D01*
X62282967Y-156830877D01*
X62306481Y-156786183D01*
X62315793Y-156770100D01*
X62335626Y-156775401D01*
X62374993Y-156797848D01*
X62376583Y-156798886D01*
X62423992Y-156821045D01*
X62459835Y-156823655D01*
X62477660Y-156802792D01*
X62510929Y-156751849D01*
X62555479Y-156678268D01*
X62607144Y-156589487D01*
X62661762Y-156492947D01*
X62715168Y-156396087D01*
X62763199Y-156306348D01*
X62801691Y-156231168D01*
X62826480Y-156177987D01*
X62833666Y-156155719D01*
X62818526Y-156129038D01*
X62781980Y-156093921D01*
X62780750Y-156092948D01*
X62745311Y-156062202D01*
X62731703Y-156034648D01*
X62739519Y-155997607D01*
X62768351Y-155938399D01*
X62775363Y-155925125D01*
X62813205Y-155863353D01*
X62845309Y-155839221D01*
X62878987Y-155850097D01*
X62907750Y-155877500D01*
X62940822Y-155908907D01*
X62960092Y-155919833D01*
X62975625Y-155902397D01*
X63004895Y-155855909D01*
X63042545Y-155789101D01*
X63057353Y-155761311D01*
X63097597Y-155689093D01*
X63132693Y-155634059D01*
X63156856Y-155605005D01*
X63161750Y-155602599D01*
X63186514Y-155615768D01*
G36*
X62206880Y-155251242D02*
X62285655Y-155281334D01*
X62374289Y-155339501D01*
X62461652Y-155417055D01*
X62536612Y-155505307D01*
X62541888Y-155512781D01*
X62581283Y-155575072D01*
X62602270Y-155629304D01*
X62610399Y-155694485D01*
X62611416Y-155750945D01*
X62604479Y-155839909D01*
X62581822Y-155932198D01*
X62540677Y-156034156D01*
X62478276Y-156152126D01*
X62391851Y-156292453D01*
X62342332Y-156367655D01*
X62242500Y-156502602D01*
X62148408Y-156597880D01*
X62056473Y-156655113D01*
X61963116Y-156675927D01*
X61864755Y-156661946D01*
X61775982Y-156624678D01*
X61662590Y-156548192D01*
X61567624Y-156451188D01*
X61496123Y-156341828D01*
X61453128Y-156228273D01*
X61443676Y-156118687D01*
X61447259Y-156092257D01*
X61463103Y-156035846D01*
X61489264Y-155968541D01*
X61520197Y-155901912D01*
X61550356Y-155847530D01*
X61574194Y-155816965D01*
X61580621Y-155814000D01*
X61602230Y-155828056D01*
X61644713Y-155865269D01*
X61699684Y-155918199D01*
X61711396Y-155929973D01*
X61825929Y-156045947D01*
X61790048Y-156121192D01*
X61760249Y-156200013D01*
X61759457Y-156257488D01*
X61787913Y-156303331D01*
X61794754Y-156309836D01*
X61847242Y-156339217D01*
X61901366Y-156331138D01*
X61960168Y-156284309D01*
X62013329Y-156217070D01*
X62093913Y-156101556D01*
X61876858Y-155883760D01*
X61709017Y-155715345D01*
X62021339Y-155715345D01*
X62115294Y-155796365D01*
X62167852Y-155839893D01*
X62207371Y-155869326D01*
X62222518Y-155877442D01*
X62237522Y-155859737D01*
X62261962Y-155814144D01*
X62280724Y-155773039D01*
X62307681Y-155698541D01*
X62312843Y-155645308D01*
X62305710Y-155616100D01*
X62269043Y-155562600D01*
X62217705Y-155545169D01*
X62157781Y-155562980D01*
X62095359Y-155615206D01*
X62069141Y-155648212D01*
X62021339Y-155715345D01*
X61709017Y-155715345D01*
X61659803Y-155665963D01*
X61701693Y-155586523D01*
X61737569Y-155531662D01*
X61792601Y-155461966D01*
X61855349Y-155391854D01*
X61860000Y-155387030D01*
X61950726Y-155305385D01*
X62034806Y-155258709D01*
X62122291Y-155243067D01*
X62206880Y-155251242D01*
X62206880Y-155251242D01*
G37*
X62206880Y-155251242D02*
X62285655Y-155281334D01*
X62374289Y-155339501D01*
X62461652Y-155417055D01*
X62536612Y-155505307D01*
X62541888Y-155512781D01*
X62581283Y-155575072D01*
X62602270Y-155629304D01*
X62610399Y-155694485D01*
X62611416Y-155750945D01*
X62604479Y-155839909D01*
X62581822Y-155932198D01*
X62540677Y-156034156D01*
X62478276Y-156152126D01*
X62391851Y-156292453D01*
X62342332Y-156367655D01*
X62242500Y-156502602D01*
X62148408Y-156597880D01*
X62056473Y-156655113D01*
X61963116Y-156675927D01*
X61864755Y-156661946D01*
X61775982Y-156624678D01*
X61662590Y-156548192D01*
X61567624Y-156451188D01*
X61496123Y-156341828D01*
X61453128Y-156228273D01*
X61443676Y-156118687D01*
X61447259Y-156092257D01*
X61463103Y-156035846D01*
X61489264Y-155968541D01*
X61520197Y-155901912D01*
X61550356Y-155847530D01*
X61574194Y-155816965D01*
X61580621Y-155814000D01*
X61602230Y-155828056D01*
X61644713Y-155865269D01*
X61699684Y-155918199D01*
X61711396Y-155929973D01*
X61825929Y-156045947D01*
X61790048Y-156121192D01*
X61760249Y-156200013D01*
X61759457Y-156257488D01*
X61787913Y-156303331D01*
X61794754Y-156309836D01*
X61847242Y-156339217D01*
X61901366Y-156331138D01*
X61960168Y-156284309D01*
X62013329Y-156217070D01*
X62093913Y-156101556D01*
X61876858Y-155883760D01*
X61709017Y-155715345D01*
X62021339Y-155715345D01*
X62115294Y-155796365D01*
X62167852Y-155839893D01*
X62207371Y-155869326D01*
X62222518Y-155877442D01*
X62237522Y-155859737D01*
X62261962Y-155814144D01*
X62280724Y-155773039D01*
X62307681Y-155698541D01*
X62312843Y-155645308D01*
X62305710Y-155616100D01*
X62269043Y-155562600D01*
X62217705Y-155545169D01*
X62157781Y-155562980D01*
X62095359Y-155615206D01*
X62069141Y-155648212D01*
X62021339Y-155715345D01*
X61709017Y-155715345D01*
X61659803Y-155665963D01*
X61701693Y-155586523D01*
X61737569Y-155531662D01*
X61792601Y-155461966D01*
X61855349Y-155391854D01*
X61860000Y-155387030D01*
X61950726Y-155305385D01*
X62034806Y-155258709D01*
X62122291Y-155243067D01*
X62206880Y-155251242D01*
G36*
X61517022Y-154427809D02*
X61525661Y-154438255D01*
X61556549Y-154490370D01*
X61582087Y-154556681D01*
X61596564Y-154619435D01*
X61595914Y-154656703D01*
X61586297Y-154694361D01*
X61574928Y-154745083D01*
X61567952Y-154781831D01*
X61571792Y-154789683D01*
X61591507Y-154766666D01*
X61620096Y-154727490D01*
X61678705Y-154646397D01*
X61788336Y-154769823D01*
X61897967Y-154893250D01*
X61829302Y-154988500D01*
X61797956Y-155032260D01*
X61746407Y-155104553D01*
X61678928Y-155199369D01*
X61599793Y-155310700D01*
X61513276Y-155432538D01*
X61449121Y-155522958D01*
X61363837Y-155642259D01*
X61286077Y-155749243D01*
X61219299Y-155839297D01*
X61166958Y-155907809D01*
X61132513Y-155950169D01*
X61119897Y-155962166D01*
X61098670Y-155947214D01*
X61058071Y-155907515D01*
X61005872Y-155850809D01*
X60991083Y-155833916D01*
X60879978Y-155705665D01*
X60963625Y-155585207D01*
X61011170Y-155516754D01*
X61073704Y-155426739D01*
X61142056Y-155328361D01*
X61190419Y-155258763D01*
X61248763Y-155171939D01*
X61298768Y-155092202D01*
X61334752Y-155028950D01*
X61350426Y-154993985D01*
X61353531Y-154909335D01*
X61317416Y-154824350D01*
X61285001Y-154783692D01*
X61241712Y-154737614D01*
X61365211Y-154565118D01*
X61421438Y-154487216D01*
X61458897Y-154439147D01*
X61483423Y-154416300D01*
X61500853Y-154414058D01*
X61517022Y-154427809D01*
X61517022Y-154427809D01*
G37*
X61517022Y-154427809D02*
X61525661Y-154438255D01*
X61556549Y-154490370D01*
X61582087Y-154556681D01*
X61596564Y-154619435D01*
X61595914Y-154656703D01*
X61586297Y-154694361D01*
X61574928Y-154745083D01*
X61567952Y-154781831D01*
X61571792Y-154789683D01*
X61591507Y-154766666D01*
X61620096Y-154727490D01*
X61678705Y-154646397D01*
X61788336Y-154769823D01*
X61897967Y-154893250D01*
X61829302Y-154988500D01*
X61797956Y-155032260D01*
X61746407Y-155104553D01*
X61678928Y-155199369D01*
X61599793Y-155310700D01*
X61513276Y-155432538D01*
X61449121Y-155522958D01*
X61363837Y-155642259D01*
X61286077Y-155749243D01*
X61219299Y-155839297D01*
X61166958Y-155907809D01*
X61132513Y-155950169D01*
X61119897Y-155962166D01*
X61098670Y-155947214D01*
X61058071Y-155907515D01*
X61005872Y-155850809D01*
X60991083Y-155833916D01*
X60879978Y-155705665D01*
X60963625Y-155585207D01*
X61011170Y-155516754D01*
X61073704Y-155426739D01*
X61142056Y-155328361D01*
X61190419Y-155258763D01*
X61248763Y-155171939D01*
X61298768Y-155092202D01*
X61334752Y-155028950D01*
X61350426Y-154993985D01*
X61353531Y-154909335D01*
X61317416Y-154824350D01*
X61285001Y-154783692D01*
X61241712Y-154737614D01*
X61365211Y-154565118D01*
X61421438Y-154487216D01*
X61458897Y-154439147D01*
X61483423Y-154416300D01*
X61500853Y-154414058D01*
X61517022Y-154427809D01*
G36*
X61142473Y-154030067D02*
X61177226Y-154070689D01*
X61225554Y-154129081D01*
X61245553Y-154153630D01*
X61358166Y-154292427D01*
X61308768Y-154360005D01*
X61276237Y-154403501D01*
X61225095Y-154470654D01*
X61159227Y-154556465D01*
X61082516Y-154655938D01*
X60998848Y-154764075D01*
X60912106Y-154875879D01*
X60826176Y-154986351D01*
X60744941Y-155090495D01*
X60672286Y-155183314D01*
X60612096Y-155259809D01*
X60568254Y-155314984D01*
X60544646Y-155343840D01*
X60541666Y-155346910D01*
X60527080Y-155331123D01*
X60492208Y-155290300D01*
X60443600Y-155232148D01*
X60424713Y-155209320D01*
X60366711Y-155133578D01*
X60333599Y-155077951D01*
X60328111Y-155047055D01*
X60328314Y-155046700D01*
X60345338Y-155023024D01*
X60383786Y-154971972D01*
X60439829Y-154898485D01*
X60509640Y-154807503D01*
X60589391Y-154703968D01*
X60675253Y-154592821D01*
X60763400Y-154479002D01*
X60850001Y-154367452D01*
X60931231Y-154263113D01*
X61003259Y-154170926D01*
X61062260Y-154095830D01*
X61104404Y-154042768D01*
X61125863Y-154016681D01*
X61127760Y-154014833D01*
X61142473Y-154030067D01*
X61142473Y-154030067D01*
G37*
X61142473Y-154030067D02*
X61177226Y-154070689D01*
X61225554Y-154129081D01*
X61245553Y-154153630D01*
X61358166Y-154292427D01*
X61308768Y-154360005D01*
X61276237Y-154403501D01*
X61225095Y-154470654D01*
X61159227Y-154556465D01*
X61082516Y-154655938D01*
X60998848Y-154764075D01*
X60912106Y-154875879D01*
X60826176Y-154986351D01*
X60744941Y-155090495D01*
X60672286Y-155183314D01*
X60612096Y-155259809D01*
X60568254Y-155314984D01*
X60544646Y-155343840D01*
X60541666Y-155346910D01*
X60527080Y-155331123D01*
X60492208Y-155290300D01*
X60443600Y-155232148D01*
X60424713Y-155209320D01*
X60366711Y-155133578D01*
X60333599Y-155077951D01*
X60328111Y-155047055D01*
X60328314Y-155046700D01*
X60345338Y-155023024D01*
X60383786Y-154971972D01*
X60439829Y-154898485D01*
X60509640Y-154807503D01*
X60589391Y-154703968D01*
X60675253Y-154592821D01*
X60763400Y-154479002D01*
X60850001Y-154367452D01*
X60931231Y-154263113D01*
X61003259Y-154170926D01*
X61062260Y-154095830D01*
X61104404Y-154042768D01*
X61125863Y-154016681D01*
X61127760Y-154014833D01*
X61142473Y-154030067D01*
G36*
X60505535Y-153279177D02*
X60611839Y-153342278D01*
X60714985Y-153444570D01*
X60747679Y-153486481D01*
X60827084Y-153617187D01*
X60870209Y-153742538D01*
X60875786Y-153858178D01*
X60867688Y-153899065D01*
X60846996Y-153953098D01*
X60814960Y-154015744D01*
X60778614Y-154075536D01*
X60744993Y-154121006D01*
X60721133Y-154140684D01*
X60719412Y-154140783D01*
X60701344Y-154124583D01*
X60665350Y-154082676D01*
X60618576Y-154023464D01*
X60609132Y-154011047D01*
X60511847Y-153882361D01*
X60556019Y-153801720D01*
X60600190Y-153721078D01*
X60555930Y-153661581D01*
X60501636Y-153609178D01*
X60448880Y-153597024D01*
X60401277Y-153625507D01*
X60387551Y-153643529D01*
X60367110Y-153688495D01*
X60362110Y-153743320D01*
X60373588Y-153815253D01*
X60402579Y-153911545D01*
X60440653Y-154015080D01*
X60486797Y-154158893D01*
X60503886Y-154278596D01*
X60492567Y-154380242D01*
X60482906Y-154410330D01*
X60438997Y-154486467D01*
X60369608Y-154562911D01*
X60285608Y-154631258D01*
X60197870Y-154683105D01*
X60117264Y-154710049D01*
X60092583Y-154712039D01*
X60043925Y-154703449D01*
X59984783Y-154683195D01*
X59982811Y-154682345D01*
X59913495Y-154632765D01*
X59852346Y-154554316D01*
X59808085Y-154460458D01*
X59791018Y-154386324D01*
X59782208Y-154328927D01*
X59769824Y-154305657D01*
X59748838Y-154308335D01*
X59744443Y-154310572D01*
X59721842Y-154313948D01*
X59693913Y-154297174D01*
X59654727Y-154255080D01*
X59600306Y-154185075D01*
X59959499Y-154185075D01*
X59961065Y-154245433D01*
X59990030Y-154293624D01*
X60029509Y-154325375D01*
X60070160Y-154326132D01*
X60122574Y-154294789D01*
X60143875Y-154277535D01*
X60186185Y-154230823D01*
X60206046Y-154175157D01*
X60204698Y-154101059D01*
X60183381Y-153999052D01*
X60181327Y-153991205D01*
X60155523Y-153893495D01*
X60055261Y-154019391D01*
X59990482Y-154111479D01*
X59959499Y-154185075D01*
X59600306Y-154185075D01*
X59599801Y-154184426D01*
X59491033Y-154039080D01*
X59558974Y-153996928D01*
X59595182Y-153967161D01*
X59652583Y-153911327D01*
X59725090Y-153835728D01*
X59806617Y-153746668D01*
X59870333Y-153674471D01*
X59955776Y-153577630D01*
X60037679Y-153487605D01*
X60109631Y-153411238D01*
X60165222Y-153355371D01*
X60191543Y-153331661D01*
X60293000Y-153273204D01*
X60398460Y-153255930D01*
X60505535Y-153279177D01*
X60505535Y-153279177D01*
G37*
X60505535Y-153279177D02*
X60611839Y-153342278D01*
X60714985Y-153444570D01*
X60747679Y-153486481D01*
X60827084Y-153617187D01*
X60870209Y-153742538D01*
X60875786Y-153858178D01*
X60867688Y-153899065D01*
X60846996Y-153953098D01*
X60814960Y-154015744D01*
X60778614Y-154075536D01*
X60744993Y-154121006D01*
X60721133Y-154140684D01*
X60719412Y-154140783D01*
X60701344Y-154124583D01*
X60665350Y-154082676D01*
X60618576Y-154023464D01*
X60609132Y-154011047D01*
X60511847Y-153882361D01*
X60556019Y-153801720D01*
X60600190Y-153721078D01*
X60555930Y-153661581D01*
X60501636Y-153609178D01*
X60448880Y-153597024D01*
X60401277Y-153625507D01*
X60387551Y-153643529D01*
X60367110Y-153688495D01*
X60362110Y-153743320D01*
X60373588Y-153815253D01*
X60402579Y-153911545D01*
X60440653Y-154015080D01*
X60486797Y-154158893D01*
X60503886Y-154278596D01*
X60492567Y-154380242D01*
X60482906Y-154410330D01*
X60438997Y-154486467D01*
X60369608Y-154562911D01*
X60285608Y-154631258D01*
X60197870Y-154683105D01*
X60117264Y-154710049D01*
X60092583Y-154712039D01*
X60043925Y-154703449D01*
X59984783Y-154683195D01*
X59982811Y-154682345D01*
X59913495Y-154632765D01*
X59852346Y-154554316D01*
X59808085Y-154460458D01*
X59791018Y-154386324D01*
X59782208Y-154328927D01*
X59769824Y-154305657D01*
X59748838Y-154308335D01*
X59744443Y-154310572D01*
X59721842Y-154313948D01*
X59693913Y-154297174D01*
X59654727Y-154255080D01*
X59600306Y-154185075D01*
X59959499Y-154185075D01*
X59961065Y-154245433D01*
X59990030Y-154293624D01*
X60029509Y-154325375D01*
X60070160Y-154326132D01*
X60122574Y-154294789D01*
X60143875Y-154277535D01*
X60186185Y-154230823D01*
X60206046Y-154175157D01*
X60204698Y-154101059D01*
X60183381Y-153999052D01*
X60181327Y-153991205D01*
X60155523Y-153893495D01*
X60055261Y-154019391D01*
X59990482Y-154111479D01*
X59959499Y-154185075D01*
X59600306Y-154185075D01*
X59599801Y-154184426D01*
X59491033Y-154039080D01*
X59558974Y-153996928D01*
X59595182Y-153967161D01*
X59652583Y-153911327D01*
X59725090Y-153835728D01*
X59806617Y-153746668D01*
X59870333Y-153674471D01*
X59955776Y-153577630D01*
X60037679Y-153487605D01*
X60109631Y-153411238D01*
X60165222Y-153355371D01*
X60191543Y-153331661D01*
X60293000Y-153273204D01*
X60398460Y-153255930D01*
X60505535Y-153279177D01*
G36*
X61433757Y-153670872D02*
X61471096Y-153711193D01*
X61516987Y-153766201D01*
X61563617Y-153825982D01*
X61603173Y-153880623D01*
X61627845Y-153920210D01*
X61632127Y-153933490D01*
X61616464Y-153962271D01*
X61584099Y-154009468D01*
X61543439Y-154064089D01*
X61502889Y-154115143D01*
X61470854Y-154151637D01*
X61456628Y-154163000D01*
X61437206Y-154147930D01*
X61400062Y-154108727D01*
X61360418Y-154062458D01*
X61297172Y-153986196D01*
X61257477Y-153934443D01*
X61239676Y-153897698D01*
X61242110Y-153866459D01*
X61263124Y-153831225D01*
X61301059Y-153782495D01*
X61309658Y-153771427D01*
X61356095Y-153713554D01*
X61392915Y-153671919D01*
X61412439Y-153655180D01*
X61412782Y-153655151D01*
X61433757Y-153670872D01*
X61433757Y-153670872D01*
G37*
X61433757Y-153670872D02*
X61471096Y-153711193D01*
X61516987Y-153766201D01*
X61563617Y-153825982D01*
X61603173Y-153880623D01*
X61627845Y-153920210D01*
X61632127Y-153933490D01*
X61616464Y-153962271D01*
X61584099Y-154009468D01*
X61543439Y-154064089D01*
X61502889Y-154115143D01*
X61470854Y-154151637D01*
X61456628Y-154163000D01*
X61437206Y-154147930D01*
X61400062Y-154108727D01*
X61360418Y-154062458D01*
X61297172Y-153986196D01*
X61257477Y-153934443D01*
X61239676Y-153897698D01*
X61242110Y-153866459D01*
X61263124Y-153831225D01*
X61301059Y-153782495D01*
X61309658Y-153771427D01*
X61356095Y-153713554D01*
X61392915Y-153671919D01*
X61412439Y-153655180D01*
X61412782Y-153655151D01*
X61433757Y-153670872D01*
G36*
X59419720Y-153249692D02*
X59456326Y-153295948D01*
X59505782Y-153364518D01*
X59563182Y-153448681D01*
X59601931Y-153507798D01*
X59616948Y-153533673D01*
X59620289Y-153556150D01*
X59607701Y-153582881D01*
X59574933Y-153621515D01*
X59517734Y-153679705D01*
X59492437Y-153704835D01*
X59348176Y-153847991D01*
X59237236Y-153687510D01*
X59189314Y-153615252D01*
X59153406Y-153555434D01*
X59134589Y-153516810D01*
X59133189Y-153508141D01*
X59150900Y-153483250D01*
X59189377Y-153439232D01*
X59240283Y-153384672D01*
X59295283Y-153328154D01*
X59346040Y-153278263D01*
X59384219Y-153243584D01*
X59400873Y-153232469D01*
X59419720Y-153249692D01*
X59419720Y-153249692D01*
G37*
X59419720Y-153249692D02*
X59456326Y-153295948D01*
X59505782Y-153364518D01*
X59563182Y-153448681D01*
X59601931Y-153507798D01*
X59616948Y-153533673D01*
X59620289Y-153556150D01*
X59607701Y-153582881D01*
X59574933Y-153621515D01*
X59517734Y-153679705D01*
X59492437Y-153704835D01*
X59348176Y-153847991D01*
X59237236Y-153687510D01*
X59189314Y-153615252D01*
X59153406Y-153555434D01*
X59134589Y-153516810D01*
X59133189Y-153508141D01*
X59150900Y-153483250D01*
X59189377Y-153439232D01*
X59240283Y-153384672D01*
X59295283Y-153328154D01*
X59346040Y-153278263D01*
X59384219Y-153243584D01*
X59400873Y-153232469D01*
X59419720Y-153249692D01*
G36*
X59438632Y-151753313D02*
X59532466Y-151798482D01*
X59622690Y-151875817D01*
X59702137Y-151975299D01*
X59763638Y-152086910D01*
X59800027Y-152200632D01*
X59806833Y-152267954D01*
X59794992Y-152362666D01*
X59757481Y-152459885D01*
X59691317Y-152564590D01*
X59593517Y-152681763D01*
X59502533Y-152775952D01*
X59387327Y-152887233D01*
X59293588Y-152970264D01*
X59215341Y-153029028D01*
X59146608Y-153067508D01*
X59081413Y-153089686D01*
X59017274Y-153099285D01*
X58941116Y-153100501D01*
X58882851Y-153085944D01*
X58819753Y-153050177D01*
X58743543Y-152983989D01*
X58667818Y-152891407D01*
X58602934Y-152787202D01*
X58559247Y-152686145D01*
X58555429Y-152673149D01*
X58552726Y-152642913D01*
X58852906Y-152642913D01*
X58853541Y-152682441D01*
X58873582Y-152717672D01*
X58885710Y-152730853D01*
X58913358Y-152749330D01*
X58946787Y-152750645D01*
X58990224Y-152732118D01*
X59047895Y-152691070D01*
X59124026Y-152624821D01*
X59222843Y-152530693D01*
X59261791Y-152492424D01*
X59361490Y-152392351D01*
X59432867Y-152315679D01*
X59478930Y-152257341D01*
X59502686Y-152212269D01*
X59507144Y-152175394D01*
X59495311Y-152141649D01*
X59482043Y-152121341D01*
X59453923Y-152096895D01*
X59417204Y-152093518D01*
X59368196Y-152113380D01*
X59303213Y-152158652D01*
X59218566Y-152231506D01*
X59110569Y-152334111D01*
X59095465Y-152348919D01*
X58992958Y-152452091D01*
X58920064Y-152532384D01*
X58874230Y-152594443D01*
X58852906Y-152642913D01*
X58552726Y-152642913D01*
X58545420Y-152561208D01*
X58570818Y-152440992D01*
X58629293Y-152323409D01*
X58630557Y-152321500D01*
X58673655Y-152266205D01*
X58740221Y-152191742D01*
X58821704Y-152106632D01*
X58909550Y-152019397D01*
X58995208Y-151938559D01*
X59070126Y-151872640D01*
X59119324Y-151834463D01*
X59240816Y-151768685D01*
X59354583Y-151743824D01*
X59438632Y-151753313D01*
X59438632Y-151753313D01*
G37*
X59438632Y-151753313D02*
X59532466Y-151798482D01*
X59622690Y-151875817D01*
X59702137Y-151975299D01*
X59763638Y-152086910D01*
X59800027Y-152200632D01*
X59806833Y-152267954D01*
X59794992Y-152362666D01*
X59757481Y-152459885D01*
X59691317Y-152564590D01*
X59593517Y-152681763D01*
X59502533Y-152775952D01*
X59387327Y-152887233D01*
X59293588Y-152970264D01*
X59215341Y-153029028D01*
X59146608Y-153067508D01*
X59081413Y-153089686D01*
X59017274Y-153099285D01*
X58941116Y-153100501D01*
X58882851Y-153085944D01*
X58819753Y-153050177D01*
X58743543Y-152983989D01*
X58667818Y-152891407D01*
X58602934Y-152787202D01*
X58559247Y-152686145D01*
X58555429Y-152673149D01*
X58552726Y-152642913D01*
X58852906Y-152642913D01*
X58853541Y-152682441D01*
X58873582Y-152717672D01*
X58885710Y-152730853D01*
X58913358Y-152749330D01*
X58946787Y-152750645D01*
X58990224Y-152732118D01*
X59047895Y-152691070D01*
X59124026Y-152624821D01*
X59222843Y-152530693D01*
X59261791Y-152492424D01*
X59361490Y-152392351D01*
X59432867Y-152315679D01*
X59478930Y-152257341D01*
X59502686Y-152212269D01*
X59507144Y-152175394D01*
X59495311Y-152141649D01*
X59482043Y-152121341D01*
X59453923Y-152096895D01*
X59417204Y-152093518D01*
X59368196Y-152113380D01*
X59303213Y-152158652D01*
X59218566Y-152231506D01*
X59110569Y-152334111D01*
X59095465Y-152348919D01*
X58992958Y-152452091D01*
X58920064Y-152532384D01*
X58874230Y-152594443D01*
X58852906Y-152642913D01*
X58552726Y-152642913D01*
X58545420Y-152561208D01*
X58570818Y-152440992D01*
X58629293Y-152323409D01*
X58630557Y-152321500D01*
X58673655Y-152266205D01*
X58740221Y-152191742D01*
X58821704Y-152106632D01*
X58909550Y-152019397D01*
X58995208Y-151938559D01*
X59070126Y-151872640D01*
X59119324Y-151834463D01*
X59240816Y-151768685D01*
X59354583Y-151743824D01*
X59438632Y-151753313D01*
G36*
X59021597Y-150794929D02*
X59040624Y-150840367D01*
X59047874Y-150862804D01*
X59061278Y-150937627D01*
X59054273Y-151016979D01*
X59025221Y-151114101D01*
X59012728Y-151146750D01*
X59008355Y-151167339D01*
X59024875Y-151160123D01*
X59062513Y-151127126D01*
X59104482Y-151091342D01*
X59131921Y-151074084D01*
X59136405Y-151074209D01*
X59157472Y-151106510D01*
X59188128Y-151160437D01*
X59221881Y-151223609D01*
X59252236Y-151283643D01*
X59272701Y-151328156D01*
X59277666Y-151343588D01*
X59262477Y-151361577D01*
X59220059Y-151403124D01*
X59155136Y-151464015D01*
X59072432Y-151540038D01*
X58976669Y-151626980D01*
X58872572Y-151720628D01*
X58764864Y-151816771D01*
X58658270Y-151911196D01*
X58557511Y-151999689D01*
X58467314Y-152078039D01*
X58392400Y-152142032D01*
X58337493Y-152187457D01*
X58307318Y-152210101D01*
X58304248Y-152211689D01*
X58280835Y-152200741D01*
X58255568Y-152169355D01*
X58228032Y-152123012D01*
X58190237Y-152057777D01*
X58166471Y-152016140D01*
X58107338Y-151911864D01*
X58168627Y-151859246D01*
X58321580Y-151726203D01*
X58455255Y-151606427D01*
X58566811Y-151502615D01*
X58653410Y-151417465D01*
X58712213Y-151353676D01*
X58738494Y-151317759D01*
X58760413Y-151272809D01*
X58766288Y-151237295D01*
X58756150Y-151193369D01*
X58738786Y-151146083D01*
X58700547Y-151045955D01*
X58846232Y-150912124D01*
X58911192Y-150853737D01*
X58964709Y-150808030D01*
X58999102Y-150781445D01*
X59006942Y-150777312D01*
X59021597Y-150794929D01*
X59021597Y-150794929D01*
G37*
X59021597Y-150794929D02*
X59040624Y-150840367D01*
X59047874Y-150862804D01*
X59061278Y-150937627D01*
X59054273Y-151016979D01*
X59025221Y-151114101D01*
X59012728Y-151146750D01*
X59008355Y-151167339D01*
X59024875Y-151160123D01*
X59062513Y-151127126D01*
X59104482Y-151091342D01*
X59131921Y-151074084D01*
X59136405Y-151074209D01*
X59157472Y-151106510D01*
X59188128Y-151160437D01*
X59221881Y-151223609D01*
X59252236Y-151283643D01*
X59272701Y-151328156D01*
X59277666Y-151343588D01*
X59262477Y-151361577D01*
X59220059Y-151403124D01*
X59155136Y-151464015D01*
X59072432Y-151540038D01*
X58976669Y-151626980D01*
X58872572Y-151720628D01*
X58764864Y-151816771D01*
X58658270Y-151911196D01*
X58557511Y-151999689D01*
X58467314Y-152078039D01*
X58392400Y-152142032D01*
X58337493Y-152187457D01*
X58307318Y-152210101D01*
X58304248Y-152211689D01*
X58280835Y-152200741D01*
X58255568Y-152169355D01*
X58228032Y-152123012D01*
X58190237Y-152057777D01*
X58166471Y-152016140D01*
X58107338Y-151911864D01*
X58168627Y-151859246D01*
X58321580Y-151726203D01*
X58455255Y-151606427D01*
X58566811Y-151502615D01*
X58653410Y-151417465D01*
X58712213Y-151353676D01*
X58738494Y-151317759D01*
X58760413Y-151272809D01*
X58766288Y-151237295D01*
X58756150Y-151193369D01*
X58738786Y-151146083D01*
X58700547Y-151045955D01*
X58846232Y-150912124D01*
X58911192Y-150853737D01*
X58964709Y-150808030D01*
X58999102Y-150781445D01*
X59006942Y-150777312D01*
X59021597Y-150794929D01*
G36*
X58484899Y-149820383D02*
X58514272Y-149867353D01*
X58549876Y-149934307D01*
X58558431Y-149951725D01*
X58630541Y-150100783D01*
X58567812Y-150152047D01*
X58505083Y-150203310D01*
X58565317Y-150204072D01*
X58652939Y-150224897D01*
X58730674Y-150279319D01*
X58791087Y-150358672D01*
X58826746Y-150454291D01*
X58833166Y-150516294D01*
X58815645Y-150605812D01*
X58762240Y-150704572D01*
X58671688Y-150814400D01*
X58542726Y-150937123D01*
X58541314Y-150938355D01*
X58369566Y-151078210D01*
X58217672Y-151180823D01*
X58085470Y-151246256D01*
X57972799Y-151274569D01*
X57879495Y-151265823D01*
X57805398Y-151220077D01*
X57800395Y-151214928D01*
X57742403Y-151131750D01*
X57706488Y-151036142D01*
X57698396Y-150944667D01*
X57700748Y-150927649D01*
X57708155Y-150879875D01*
X57702514Y-150866197D01*
X57679872Y-150879366D01*
X57676003Y-150882271D01*
X57598606Y-150946684D01*
X57531715Y-151013162D01*
X57482611Y-151073506D01*
X57458579Y-151119517D01*
X57457333Y-151128478D01*
X57474926Y-151189763D01*
X57520395Y-151227206D01*
X57582519Y-151231814D01*
X57612297Y-151228416D01*
X57635812Y-151238481D01*
X57659856Y-151269222D01*
X57691215Y-151327854D01*
X57711037Y-151368388D01*
X57749721Y-151454549D01*
X57764168Y-151511251D01*
X57751754Y-151545436D01*
X57709854Y-151564044D01*
X57635844Y-151574019D01*
X57633204Y-151574249D01*
X57548851Y-151573562D01*
X57483714Y-151551698D01*
X57467916Y-151542327D01*
X57386215Y-151478497D01*
X57318465Y-151396903D01*
X57254803Y-151285809D01*
X57200730Y-151144160D01*
X57187050Y-151013589D01*
X57214157Y-150891309D01*
X57257009Y-150818029D01*
X57884569Y-150818029D01*
X57906066Y-150856766D01*
X57947190Y-150879157D01*
X58001373Y-150872840D01*
X58073613Y-150836360D01*
X58143682Y-150787555D01*
X58282282Y-150677817D01*
X58382922Y-150584963D01*
X58446127Y-150508239D01*
X58472420Y-150446893D01*
X58462325Y-150400169D01*
X58431000Y-150374166D01*
X58403140Y-150363790D01*
X58372273Y-150365462D01*
X58331538Y-150382400D01*
X58274074Y-150417818D01*
X58193022Y-150474934D01*
X58151783Y-150505074D01*
X58026645Y-150604177D01*
X57940685Y-150688959D01*
X57893470Y-150760037D01*
X57884569Y-150818029D01*
X57257009Y-150818029D01*
X57282447Y-150774529D01*
X57335877Y-150713498D01*
X57373423Y-150678559D01*
X57436345Y-150623954D01*
X57519958Y-150553458D01*
X57619573Y-150470843D01*
X57730504Y-150379883D01*
X57848065Y-150284349D01*
X57967567Y-150188014D01*
X58084323Y-150094653D01*
X58193648Y-150008036D01*
X58290853Y-149931938D01*
X58371252Y-149870131D01*
X58430157Y-149826388D01*
X58462882Y-149804482D01*
X58467416Y-149802666D01*
X58484899Y-149820383D01*
X58484899Y-149820383D01*
G37*
X58484899Y-149820383D02*
X58514272Y-149867353D01*
X58549876Y-149934307D01*
X58558431Y-149951725D01*
X58630541Y-150100783D01*
X58567812Y-150152047D01*
X58505083Y-150203310D01*
X58565317Y-150204072D01*
X58652939Y-150224897D01*
X58730674Y-150279319D01*
X58791087Y-150358672D01*
X58826746Y-150454291D01*
X58833166Y-150516294D01*
X58815645Y-150605812D01*
X58762240Y-150704572D01*
X58671688Y-150814400D01*
X58542726Y-150937123D01*
X58541314Y-150938355D01*
X58369566Y-151078210D01*
X58217672Y-151180823D01*
X58085470Y-151246256D01*
X57972799Y-151274569D01*
X57879495Y-151265823D01*
X57805398Y-151220077D01*
X57800395Y-151214928D01*
X57742403Y-151131750D01*
X57706488Y-151036142D01*
X57698396Y-150944667D01*
X57700748Y-150927649D01*
X57708155Y-150879875D01*
X57702514Y-150866197D01*
X57679872Y-150879366D01*
X57676003Y-150882271D01*
X57598606Y-150946684D01*
X57531715Y-151013162D01*
X57482611Y-151073506D01*
X57458579Y-151119517D01*
X57457333Y-151128478D01*
X57474926Y-151189763D01*
X57520395Y-151227206D01*
X57582519Y-151231814D01*
X57612297Y-151228416D01*
X57635812Y-151238481D01*
X57659856Y-151269222D01*
X57691215Y-151327854D01*
X57711037Y-151368388D01*
X57749721Y-151454549D01*
X57764168Y-151511251D01*
X57751754Y-151545436D01*
X57709854Y-151564044D01*
X57635844Y-151574019D01*
X57633204Y-151574249D01*
X57548851Y-151573562D01*
X57483714Y-151551698D01*
X57467916Y-151542327D01*
X57386215Y-151478497D01*
X57318465Y-151396903D01*
X57254803Y-151285809D01*
X57200730Y-151144160D01*
X57187050Y-151013589D01*
X57214157Y-150891309D01*
X57257009Y-150818029D01*
X57884569Y-150818029D01*
X57906066Y-150856766D01*
X57947190Y-150879157D01*
X58001373Y-150872840D01*
X58073613Y-150836360D01*
X58143682Y-150787555D01*
X58282282Y-150677817D01*
X58382922Y-150584963D01*
X58446127Y-150508239D01*
X58472420Y-150446893D01*
X58462325Y-150400169D01*
X58431000Y-150374166D01*
X58403140Y-150363790D01*
X58372273Y-150365462D01*
X58331538Y-150382400D01*
X58274074Y-150417818D01*
X58193022Y-150474934D01*
X58151783Y-150505074D01*
X58026645Y-150604177D01*
X57940685Y-150688959D01*
X57893470Y-150760037D01*
X57884569Y-150818029D01*
X57257009Y-150818029D01*
X57282447Y-150774529D01*
X57335877Y-150713498D01*
X57373423Y-150678559D01*
X57436345Y-150623954D01*
X57519958Y-150553458D01*
X57619573Y-150470843D01*
X57730504Y-150379883D01*
X57848065Y-150284349D01*
X57967567Y-150188014D01*
X58084323Y-150094653D01*
X58193648Y-150008036D01*
X58290853Y-149931938D01*
X58371252Y-149870131D01*
X58430157Y-149826388D01*
X58462882Y-149804482D01*
X58467416Y-149802666D01*
X58484899Y-149820383D01*
G36*
X58624540Y-148973047D02*
X58650776Y-149015961D01*
X58662491Y-149038035D01*
X58704342Y-149120071D01*
X57913397Y-149768285D01*
X57755542Y-149897443D01*
X57607663Y-150018032D01*
X57472973Y-150127460D01*
X57354687Y-150223134D01*
X57256021Y-150302461D01*
X57180188Y-150362849D01*
X57130404Y-150401706D01*
X57109884Y-150416439D01*
X57109633Y-150416500D01*
X57093306Y-150399313D01*
X57068487Y-150356535D01*
X57060943Y-150341276D01*
X57038586Y-150274994D01*
X57045410Y-150236845D01*
X57065303Y-150218042D01*
X57113743Y-150176166D01*
X57186820Y-150114418D01*
X57280626Y-150036004D01*
X57391249Y-149944128D01*
X57514781Y-149841994D01*
X57647312Y-149732805D01*
X57784931Y-149619766D01*
X57923729Y-149506080D01*
X58059797Y-149394952D01*
X58189223Y-149289586D01*
X58308099Y-149193187D01*
X58412515Y-149108956D01*
X58498561Y-149040100D01*
X58562327Y-148989822D01*
X58599903Y-148961326D01*
X58608389Y-148956000D01*
X58624540Y-148973047D01*
X58624540Y-148973047D01*
G37*
X58624540Y-148973047D02*
X58650776Y-149015961D01*
X58662491Y-149038035D01*
X58704342Y-149120071D01*
X57913397Y-149768285D01*
X57755542Y-149897443D01*
X57607663Y-150018032D01*
X57472973Y-150127460D01*
X57354687Y-150223134D01*
X57256021Y-150302461D01*
X57180188Y-150362849D01*
X57130404Y-150401706D01*
X57109884Y-150416439D01*
X57109633Y-150416500D01*
X57093306Y-150399313D01*
X57068487Y-150356535D01*
X57060943Y-150341276D01*
X57038586Y-150274994D01*
X57045410Y-150236845D01*
X57065303Y-150218042D01*
X57113743Y-150176166D01*
X57186820Y-150114418D01*
X57280626Y-150036004D01*
X57391249Y-149944128D01*
X57514781Y-149841994D01*
X57647312Y-149732805D01*
X57784931Y-149619766D01*
X57923729Y-149506080D01*
X58059797Y-149394952D01*
X58189223Y-149289586D01*
X58308099Y-149193187D01*
X58412515Y-149108956D01*
X58498561Y-149040100D01*
X58562327Y-148989822D01*
X58599903Y-148961326D01*
X58608389Y-148956000D01*
X58624540Y-148973047D01*
G36*
X57644597Y-147725563D02*
X57666124Y-147774422D01*
X57693438Y-147844249D01*
X57701363Y-147865712D01*
X57730592Y-147951713D01*
X57743509Y-148007543D01*
X57741572Y-148041457D01*
X57734616Y-148053866D01*
X57709936Y-148076237D01*
X57657655Y-148118882D01*
X57584119Y-148176780D01*
X57495672Y-148244908D01*
X57435586Y-148290495D01*
X57344046Y-148360312D01*
X57266390Y-148421017D01*
X57208068Y-148468226D01*
X57174533Y-148497558D01*
X57168680Y-148505069D01*
X57190500Y-148501605D01*
X57242339Y-148485900D01*
X57314713Y-148460935D01*
X57348533Y-148448561D01*
X57456479Y-148408424D01*
X57576268Y-148363878D01*
X57682613Y-148324328D01*
X57686006Y-148323066D01*
X57851179Y-148261632D01*
X57906235Y-148408585D01*
X57961292Y-148555537D01*
X57645812Y-148811564D01*
X57547952Y-148891271D01*
X57462448Y-148961465D01*
X57394339Y-149017966D01*
X57348661Y-149056591D01*
X57330452Y-149073160D01*
X57330333Y-149073418D01*
X57348714Y-149067396D01*
X57399717Y-149047085D01*
X57477130Y-149015051D01*
X57574740Y-148973861D01*
X57670368Y-148932956D01*
X57781976Y-148885362D01*
X57880274Y-148844241D01*
X57958613Y-148812311D01*
X58010341Y-148792291D01*
X58028331Y-148786666D01*
X58044283Y-148804852D01*
X58068377Y-148851480D01*
X58095900Y-148914658D01*
X58122141Y-148982494D01*
X58142389Y-149043096D01*
X58151933Y-149084570D01*
X58150598Y-149095289D01*
X58129168Y-149104417D01*
X58073864Y-149125409D01*
X57990751Y-149156096D01*
X57885894Y-149194307D01*
X57765358Y-149237871D01*
X57635208Y-149284620D01*
X57501509Y-149332381D01*
X57370327Y-149378985D01*
X57247725Y-149422262D01*
X57139770Y-149460041D01*
X57052526Y-149490152D01*
X56992058Y-149510424D01*
X56977930Y-149514922D01*
X56954486Y-149517966D01*
X56934708Y-149505798D01*
X56913687Y-149471450D01*
X56886518Y-149407952D01*
X56866805Y-149357105D01*
X56837340Y-149279245D01*
X56814724Y-149218147D01*
X56802423Y-149183236D01*
X56801166Y-149178671D01*
X56816677Y-149163766D01*
X56859476Y-149126924D01*
X56923960Y-149072861D01*
X57004528Y-149006293D01*
X57055166Y-148964836D01*
X57142356Y-148893287D01*
X57216636Y-148831584D01*
X57272404Y-148784441D01*
X57304059Y-148756569D01*
X57309166Y-148751121D01*
X57291088Y-148754894D01*
X57243388Y-148770793D01*
X57175869Y-148795523D01*
X57166291Y-148799159D01*
X57023700Y-148853271D01*
X56915576Y-148893559D01*
X56836959Y-148921617D01*
X56782888Y-148939035D01*
X56748403Y-148947408D01*
X56728544Y-148948327D01*
X56718350Y-148943384D01*
X56718048Y-148943059D01*
X56702944Y-148915368D01*
X56678230Y-148858903D01*
X56648677Y-148784706D01*
X56641851Y-148766704D01*
X56582675Y-148609158D01*
X56676045Y-148526209D01*
X56750733Y-148460359D01*
X56841774Y-148380882D01*
X56944517Y-148291759D01*
X57054311Y-148196971D01*
X57166504Y-148100499D01*
X57276446Y-148006324D01*
X57379486Y-147918428D01*
X57470971Y-147840791D01*
X57546252Y-147777395D01*
X57600676Y-147732220D01*
X57629592Y-147709248D01*
X57632954Y-147707166D01*
X57644597Y-147725563D01*
X57644597Y-147725563D01*
G37*
X57644597Y-147725563D02*
X57666124Y-147774422D01*
X57693438Y-147844249D01*
X57701363Y-147865712D01*
X57730592Y-147951713D01*
X57743509Y-148007543D01*
X57741572Y-148041457D01*
X57734616Y-148053866D01*
X57709936Y-148076237D01*
X57657655Y-148118882D01*
X57584119Y-148176780D01*
X57495672Y-148244908D01*
X57435586Y-148290495D01*
X57344046Y-148360312D01*
X57266390Y-148421017D01*
X57208068Y-148468226D01*
X57174533Y-148497558D01*
X57168680Y-148505069D01*
X57190500Y-148501605D01*
X57242339Y-148485900D01*
X57314713Y-148460935D01*
X57348533Y-148448561D01*
X57456479Y-148408424D01*
X57576268Y-148363878D01*
X57682613Y-148324328D01*
X57686006Y-148323066D01*
X57851179Y-148261632D01*
X57906235Y-148408585D01*
X57961292Y-148555537D01*
X57645812Y-148811564D01*
X57547952Y-148891271D01*
X57462448Y-148961465D01*
X57394339Y-149017966D01*
X57348661Y-149056591D01*
X57330452Y-149073160D01*
X57330333Y-149073418D01*
X57348714Y-149067396D01*
X57399717Y-149047085D01*
X57477130Y-149015051D01*
X57574740Y-148973861D01*
X57670368Y-148932956D01*
X57781976Y-148885362D01*
X57880274Y-148844241D01*
X57958613Y-148812311D01*
X58010341Y-148792291D01*
X58028331Y-148786666D01*
X58044283Y-148804852D01*
X58068377Y-148851480D01*
X58095900Y-148914658D01*
X58122141Y-148982494D01*
X58142389Y-149043096D01*
X58151933Y-149084570D01*
X58150598Y-149095289D01*
X58129168Y-149104417D01*
X58073864Y-149125409D01*
X57990751Y-149156096D01*
X57885894Y-149194307D01*
X57765358Y-149237871D01*
X57635208Y-149284620D01*
X57501509Y-149332381D01*
X57370327Y-149378985D01*
X57247725Y-149422262D01*
X57139770Y-149460041D01*
X57052526Y-149490152D01*
X56992058Y-149510424D01*
X56977930Y-149514922D01*
X56954486Y-149517966D01*
X56934708Y-149505798D01*
X56913687Y-149471450D01*
X56886518Y-149407952D01*
X56866805Y-149357105D01*
X56837340Y-149279245D01*
X56814724Y-149218147D01*
X56802423Y-149183236D01*
X56801166Y-149178671D01*
X56816677Y-149163766D01*
X56859476Y-149126924D01*
X56923960Y-149072861D01*
X57004528Y-149006293D01*
X57055166Y-148964836D01*
X57142356Y-148893287D01*
X57216636Y-148831584D01*
X57272404Y-148784441D01*
X57304059Y-148756569D01*
X57309166Y-148751121D01*
X57291088Y-148754894D01*
X57243388Y-148770793D01*
X57175869Y-148795523D01*
X57166291Y-148799159D01*
X57023700Y-148853271D01*
X56915576Y-148893559D01*
X56836959Y-148921617D01*
X56782888Y-148939035D01*
X56748403Y-148947408D01*
X56728544Y-148948327D01*
X56718350Y-148943384D01*
X56718048Y-148943059D01*
X56702944Y-148915368D01*
X56678230Y-148858903D01*
X56648677Y-148784706D01*
X56641851Y-148766704D01*
X56582675Y-148609158D01*
X56676045Y-148526209D01*
X56750733Y-148460359D01*
X56841774Y-148380882D01*
X56944517Y-148291759D01*
X57054311Y-148196971D01*
X57166504Y-148100499D01*
X57276446Y-148006324D01*
X57379486Y-147918428D01*
X57470971Y-147840791D01*
X57546252Y-147777395D01*
X57600676Y-147732220D01*
X57629592Y-147709248D01*
X57632954Y-147707166D01*
X57644597Y-147725563D01*
G36*
X57499013Y-147204300D02*
X57517567Y-147256997D01*
X57541654Y-147329947D01*
X57549327Y-147353937D01*
X57601521Y-147518297D01*
X57555885Y-147546598D01*
X57526076Y-147563940D01*
X57464404Y-147598954D01*
X57376015Y-147648748D01*
X57266050Y-147710434D01*
X57139654Y-147781123D01*
X57001970Y-147857923D01*
X56974931Y-147872983D01*
X56820259Y-147958952D01*
X56698412Y-148026048D01*
X56605307Y-148076128D01*
X56536860Y-148111047D01*
X56488986Y-148132663D01*
X56457602Y-148142831D01*
X56438621Y-148143408D01*
X56427961Y-148136250D01*
X56421951Y-148124325D01*
X56384576Y-148017796D01*
X56358089Y-147926598D01*
X56344238Y-147857988D01*
X56344771Y-147819222D01*
X56347421Y-147814984D01*
X56371955Y-147798734D01*
X56427032Y-147765985D01*
X56507189Y-147719764D01*
X56606966Y-147663098D01*
X56720902Y-147599013D01*
X56843536Y-147530537D01*
X56969406Y-147460696D01*
X57093053Y-147392517D01*
X57209015Y-147329028D01*
X57311830Y-147273254D01*
X57396039Y-147228224D01*
X57456180Y-147196964D01*
X57486792Y-147182501D01*
X57489502Y-147181946D01*
X57499013Y-147204300D01*
X57499013Y-147204300D01*
G37*
X57499013Y-147204300D02*
X57517567Y-147256997D01*
X57541654Y-147329947D01*
X57549327Y-147353937D01*
X57601521Y-147518297D01*
X57555885Y-147546598D01*
X57526076Y-147563940D01*
X57464404Y-147598954D01*
X57376015Y-147648748D01*
X57266050Y-147710434D01*
X57139654Y-147781123D01*
X57001970Y-147857923D01*
X56974931Y-147872983D01*
X56820259Y-147958952D01*
X56698412Y-148026048D01*
X56605307Y-148076128D01*
X56536860Y-148111047D01*
X56488986Y-148132663D01*
X56457602Y-148142831D01*
X56438621Y-148143408D01*
X56427961Y-148136250D01*
X56421951Y-148124325D01*
X56384576Y-148017796D01*
X56358089Y-147926598D01*
X56344238Y-147857988D01*
X56344771Y-147819222D01*
X56347421Y-147814984D01*
X56371955Y-147798734D01*
X56427032Y-147765985D01*
X56507189Y-147719764D01*
X56606966Y-147663098D01*
X56720902Y-147599013D01*
X56843536Y-147530537D01*
X56969406Y-147460696D01*
X57093053Y-147392517D01*
X57209015Y-147329028D01*
X57311830Y-147273254D01*
X57396039Y-147228224D01*
X57456180Y-147196964D01*
X57486792Y-147182501D01*
X57489502Y-147181946D01*
X57499013Y-147204300D01*
G36*
X57172658Y-145948514D02*
X57188736Y-145998389D01*
X57207466Y-146069427D01*
X57210624Y-146082625D01*
X57230016Y-146164197D01*
X57246939Y-146234257D01*
X57257919Y-146278437D01*
X57258362Y-146280136D01*
X57255317Y-146311537D01*
X57232043Y-146361161D01*
X57186003Y-146433432D01*
X57114660Y-146532774D01*
X57109522Y-146539688D01*
X56949142Y-146755187D01*
X57145029Y-146656665D01*
X57257408Y-146600982D01*
X57384238Y-146539422D01*
X57502965Y-146482902D01*
X57534639Y-146468092D01*
X57728362Y-146378042D01*
X57771680Y-146550479D01*
X57789829Y-146630852D01*
X57800492Y-146694951D01*
X57802071Y-146732318D01*
X57800207Y-146737120D01*
X57777736Y-146749904D01*
X57722204Y-146778415D01*
X57638546Y-146820265D01*
X57531696Y-146873068D01*
X57406590Y-146934435D01*
X57268163Y-147001981D01*
X57121349Y-147073317D01*
X56971083Y-147146058D01*
X56822301Y-147217815D01*
X56679936Y-147286201D01*
X56548925Y-147348830D01*
X56434201Y-147403315D01*
X56340700Y-147447267D01*
X56273356Y-147478301D01*
X56237105Y-147494029D01*
X56232413Y-147495500D01*
X56219074Y-147476461D01*
X56199847Y-147425762D01*
X56178205Y-147353026D01*
X56170992Y-147325296D01*
X56128248Y-147155093D01*
X56323422Y-147063888D01*
X56440581Y-147004205D01*
X56520842Y-146951361D01*
X56567083Y-146904589D01*
X56615570Y-146836495D01*
X56544326Y-146847691D01*
X56491684Y-146854004D01*
X56410584Y-146861502D01*
X56314829Y-146868964D01*
X56268029Y-146872153D01*
X56062975Y-146885419D01*
X56039132Y-146793584D01*
X56018940Y-146716234D01*
X55999183Y-146641190D01*
X55995596Y-146627666D01*
X55982479Y-146574399D01*
X55975944Y-146540181D01*
X55975784Y-146537708D01*
X55995812Y-146532694D01*
X56051574Y-146528331D01*
X56136474Y-146524887D01*
X56243916Y-146522632D01*
X56365906Y-146521833D01*
X56756146Y-146521833D01*
X56953281Y-146226233D01*
X57019179Y-146128397D01*
X57077172Y-146044143D01*
X57123160Y-145979281D01*
X57153044Y-145939617D01*
X57162421Y-145929899D01*
X57172658Y-145948514D01*
X57172658Y-145948514D01*
G37*
X57172658Y-145948514D02*
X57188736Y-145998389D01*
X57207466Y-146069427D01*
X57210624Y-146082625D01*
X57230016Y-146164197D01*
X57246939Y-146234257D01*
X57257919Y-146278437D01*
X57258362Y-146280136D01*
X57255317Y-146311537D01*
X57232043Y-146361161D01*
X57186003Y-146433432D01*
X57114660Y-146532774D01*
X57109522Y-146539688D01*
X56949142Y-146755187D01*
X57145029Y-146656665D01*
X57257408Y-146600982D01*
X57384238Y-146539422D01*
X57502965Y-146482902D01*
X57534639Y-146468092D01*
X57728362Y-146378042D01*
X57771680Y-146550479D01*
X57789829Y-146630852D01*
X57800492Y-146694951D01*
X57802071Y-146732318D01*
X57800207Y-146737120D01*
X57777736Y-146749904D01*
X57722204Y-146778415D01*
X57638546Y-146820265D01*
X57531696Y-146873068D01*
X57406590Y-146934435D01*
X57268163Y-147001981D01*
X57121349Y-147073317D01*
X56971083Y-147146058D01*
X56822301Y-147217815D01*
X56679936Y-147286201D01*
X56548925Y-147348830D01*
X56434201Y-147403315D01*
X56340700Y-147447267D01*
X56273356Y-147478301D01*
X56237105Y-147494029D01*
X56232413Y-147495500D01*
X56219074Y-147476461D01*
X56199847Y-147425762D01*
X56178205Y-147353026D01*
X56170992Y-147325296D01*
X56128248Y-147155093D01*
X56323422Y-147063888D01*
X56440581Y-147004205D01*
X56520842Y-146951361D01*
X56567083Y-146904589D01*
X56615570Y-146836495D01*
X56544326Y-146847691D01*
X56491684Y-146854004D01*
X56410584Y-146861502D01*
X56314829Y-146868964D01*
X56268029Y-146872153D01*
X56062975Y-146885419D01*
X56039132Y-146793584D01*
X56018940Y-146716234D01*
X55999183Y-146641190D01*
X55995596Y-146627666D01*
X55982479Y-146574399D01*
X55975944Y-146540181D01*
X55975784Y-146537708D01*
X55995812Y-146532694D01*
X56051574Y-146528331D01*
X56136474Y-146524887D01*
X56243916Y-146522632D01*
X56365906Y-146521833D01*
X56756146Y-146521833D01*
X56953281Y-146226233D01*
X57019179Y-146128397D01*
X57077172Y-146044143D01*
X57123160Y-145979281D01*
X57153044Y-145939617D01*
X57162421Y-145929899D01*
X57172658Y-145948514D01*
G36*
X57954328Y-147117172D02*
X57980794Y-147205987D01*
X57993103Y-147262717D01*
X57992332Y-147294775D01*
X57982109Y-147308216D01*
X57949737Y-147327364D01*
X57894395Y-147359779D01*
X57845205Y-147388462D01*
X57735660Y-147452217D01*
X57678802Y-147281487D01*
X57654955Y-147201995D01*
X57640600Y-147137864D01*
X57637862Y-147099410D01*
X57640180Y-147093791D01*
X57667147Y-147075237D01*
X57719438Y-147043632D01*
X57778801Y-147009722D01*
X57899186Y-146942619D01*
X57954328Y-147117172D01*
X57954328Y-147117172D01*
G37*
X57954328Y-147117172D02*
X57980794Y-147205987D01*
X57993103Y-147262717D01*
X57992332Y-147294775D01*
X57982109Y-147308216D01*
X57949737Y-147327364D01*
X57894395Y-147359779D01*
X57845205Y-147388462D01*
X57735660Y-147452217D01*
X57678802Y-147281487D01*
X57654955Y-147201995D01*
X57640600Y-147137864D01*
X57637862Y-147099410D01*
X57640180Y-147093791D01*
X57667147Y-147075237D01*
X57719438Y-147043632D01*
X57778801Y-147009722D01*
X57899186Y-146942619D01*
X57954328Y-147117172D01*
G36*
X57096055Y-145481403D02*
X57106846Y-145511125D01*
X57128120Y-145615094D01*
X57144711Y-145704370D01*
X57155284Y-145771059D01*
X57158508Y-145807264D01*
X57157557Y-145811364D01*
X57135831Y-145821499D01*
X57080867Y-145845130D01*
X56998498Y-145879854D01*
X56894555Y-145923271D01*
X56774870Y-145972978D01*
X56645277Y-146026574D01*
X56511606Y-146081657D01*
X56379691Y-146135826D01*
X56255363Y-146186678D01*
X56144454Y-146231813D01*
X56052797Y-146268828D01*
X55986223Y-146295322D01*
X55950566Y-146308894D01*
X55946268Y-146310166D01*
X55927666Y-146293519D01*
X55923485Y-146283708D01*
X55911116Y-146235646D01*
X55896555Y-146166084D01*
X55882823Y-146091318D01*
X55872944Y-146027649D01*
X55869833Y-145994403D01*
X55877487Y-145979861D01*
X55902772Y-145960335D01*
X55949174Y-145934151D01*
X56020179Y-145899637D01*
X56119272Y-145855118D01*
X56249939Y-145798923D01*
X56415664Y-145729379D01*
X56463022Y-145709695D01*
X56611917Y-145648165D01*
X56748448Y-145592256D01*
X56867654Y-145543960D01*
X56964572Y-145505267D01*
X57034241Y-145478169D01*
X57071698Y-145464657D01*
X57076452Y-145463500D01*
X57096055Y-145481403D01*
X57096055Y-145481403D01*
G37*
X57096055Y-145481403D02*
X57106846Y-145511125D01*
X57128120Y-145615094D01*
X57144711Y-145704370D01*
X57155284Y-145771059D01*
X57158508Y-145807264D01*
X57157557Y-145811364D01*
X57135831Y-145821499D01*
X57080867Y-145845130D01*
X56998498Y-145879854D01*
X56894555Y-145923271D01*
X56774870Y-145972978D01*
X56645277Y-146026574D01*
X56511606Y-146081657D01*
X56379691Y-146135826D01*
X56255363Y-146186678D01*
X56144454Y-146231813D01*
X56052797Y-146268828D01*
X55986223Y-146295322D01*
X55950566Y-146308894D01*
X55946268Y-146310166D01*
X55927666Y-146293519D01*
X55923485Y-146283708D01*
X55911116Y-146235646D01*
X55896555Y-146166084D01*
X55882823Y-146091318D01*
X55872944Y-146027649D01*
X55869833Y-145994403D01*
X55877487Y-145979861D01*
X55902772Y-145960335D01*
X55949174Y-145934151D01*
X56020179Y-145899637D01*
X56119272Y-145855118D01*
X56249939Y-145798923D01*
X56415664Y-145729379D01*
X56463022Y-145709695D01*
X56611917Y-145648165D01*
X56748448Y-145592256D01*
X56867654Y-145543960D01*
X56964572Y-145505267D01*
X57034241Y-145478169D01*
X57071698Y-145464657D01*
X57076452Y-145463500D01*
X57096055Y-145481403D01*
G36*
X57520417Y-145303287D02*
X57537946Y-145337954D01*
X57552095Y-145402218D01*
X57555747Y-145421166D01*
X57573323Y-145515489D01*
X57579933Y-145577863D01*
X57572267Y-145617972D01*
X57547018Y-145645503D01*
X57500877Y-145670140D01*
X57465282Y-145686016D01*
X57398134Y-145713982D01*
X57344801Y-145733075D01*
X57320774Y-145738666D01*
X57303613Y-145719270D01*
X57285009Y-145667553D01*
X57270492Y-145603934D01*
X57253584Y-145507446D01*
X57247529Y-145443317D01*
X57255345Y-145402307D01*
X57280050Y-145375171D01*
X57324664Y-145352670D01*
X57356791Y-145339709D01*
X57438918Y-145307881D01*
X57490434Y-145294502D01*
X57520417Y-145303287D01*
X57520417Y-145303287D01*
G37*
X57520417Y-145303287D02*
X57537946Y-145337954D01*
X57552095Y-145402218D01*
X57555747Y-145421166D01*
X57573323Y-145515489D01*
X57579933Y-145577863D01*
X57572267Y-145617972D01*
X57547018Y-145645503D01*
X57500877Y-145670140D01*
X57465282Y-145686016D01*
X57398134Y-145713982D01*
X57344801Y-145733075D01*
X57320774Y-145738666D01*
X57303613Y-145719270D01*
X57285009Y-145667553D01*
X57270492Y-145603934D01*
X57253584Y-145507446D01*
X57247529Y-145443317D01*
X57255345Y-145402307D01*
X57280050Y-145375171D01*
X57324664Y-145352670D01*
X57356791Y-145339709D01*
X57438918Y-145307881D01*
X57490434Y-145294502D01*
X57520417Y-145303287D01*
G36*
X57462068Y-144710565D02*
X57471402Y-144757727D01*
X57474210Y-144787604D01*
X57475470Y-144848737D01*
X57464643Y-144882829D01*
X57435366Y-144904784D01*
X57421294Y-144911574D01*
X57387848Y-144926394D01*
X57320975Y-144955535D01*
X57225617Y-144996871D01*
X57106718Y-145048275D01*
X56969220Y-145107620D01*
X56818067Y-145172781D01*
X56658202Y-145241631D01*
X56494568Y-145312043D01*
X56332108Y-145381891D01*
X56175765Y-145449049D01*
X56030482Y-145511389D01*
X55901203Y-145566786D01*
X55792870Y-145613112D01*
X55710427Y-145648242D01*
X55658817Y-145670050D01*
X55644412Y-145675969D01*
X55607207Y-145681851D01*
X55588541Y-145654503D01*
X55586493Y-145647378D01*
X55576299Y-145587709D01*
X55573789Y-145548097D01*
X55575632Y-145535045D01*
X55583462Y-145521457D01*
X55600506Y-145505757D01*
X55629995Y-145486373D01*
X55675156Y-145461729D01*
X55739219Y-145430252D01*
X55825413Y-145390368D01*
X55936967Y-145340501D01*
X56077111Y-145279079D01*
X56249073Y-145204526D01*
X56456082Y-145115269D01*
X56503373Y-145094913D01*
X56690051Y-145014683D01*
X56864929Y-144939742D01*
X57024152Y-144871728D01*
X57163864Y-144812276D01*
X57280209Y-144763024D01*
X57369334Y-144725607D01*
X57427382Y-144701662D01*
X57450499Y-144692826D01*
X57450581Y-144692815D01*
X57462068Y-144710565D01*
X57462068Y-144710565D01*
G37*
X57462068Y-144710565D02*
X57471402Y-144757727D01*
X57474210Y-144787604D01*
X57475470Y-144848737D01*
X57464643Y-144882829D01*
X57435366Y-144904784D01*
X57421294Y-144911574D01*
X57387848Y-144926394D01*
X57320975Y-144955535D01*
X57225617Y-144996871D01*
X57106718Y-145048275D01*
X56969220Y-145107620D01*
X56818067Y-145172781D01*
X56658202Y-145241631D01*
X56494568Y-145312043D01*
X56332108Y-145381891D01*
X56175765Y-145449049D01*
X56030482Y-145511389D01*
X55901203Y-145566786D01*
X55792870Y-145613112D01*
X55710427Y-145648242D01*
X55658817Y-145670050D01*
X55644412Y-145675969D01*
X55607207Y-145681851D01*
X55588541Y-145654503D01*
X55586493Y-145647378D01*
X55576299Y-145587709D01*
X55573789Y-145548097D01*
X55575632Y-145535045D01*
X55583462Y-145521457D01*
X55600506Y-145505757D01*
X55629995Y-145486373D01*
X55675156Y-145461729D01*
X55739219Y-145430252D01*
X55825413Y-145390368D01*
X55936967Y-145340501D01*
X56077111Y-145279079D01*
X56249073Y-145204526D01*
X56456082Y-145115269D01*
X56503373Y-145094913D01*
X56690051Y-145014683D01*
X56864929Y-144939742D01*
X57024152Y-144871728D01*
X57163864Y-144812276D01*
X57280209Y-144763024D01*
X57369334Y-144725607D01*
X57427382Y-144701662D01*
X57450499Y-144692826D01*
X57450581Y-144692815D01*
X57462068Y-144710565D01*
G36*
X57343687Y-143436360D02*
X57348131Y-143492049D01*
X57352467Y-143570603D01*
X57354538Y-143619585D01*
X57362083Y-143818254D01*
X56783434Y-143971960D01*
X56588276Y-144024063D01*
X56429770Y-144067172D01*
X56303554Y-144102774D01*
X56205265Y-144132354D01*
X56130538Y-144157397D01*
X56075011Y-144179390D01*
X56034320Y-144199818D01*
X56004103Y-144220166D01*
X55979995Y-144241920D01*
X55974877Y-144247256D01*
X55941954Y-144291234D01*
X55938241Y-144332035D01*
X55945619Y-144357848D01*
X55979810Y-144407587D01*
X56018389Y-144421457D01*
X56051339Y-144417626D01*
X56119746Y-144404063D01*
X56218192Y-144382040D01*
X56341256Y-144352825D01*
X56483517Y-144317688D01*
X56639554Y-144277901D01*
X56714699Y-144258324D01*
X56873279Y-144217212D01*
X57018785Y-144180404D01*
X57146161Y-144149107D01*
X57250347Y-144124530D01*
X57326285Y-144107879D01*
X57368915Y-144100363D01*
X57376158Y-144100407D01*
X57383877Y-144125026D01*
X57389887Y-144181968D01*
X57393335Y-144261232D01*
X57393833Y-144307759D01*
X57393833Y-144504186D01*
X56922875Y-144627259D01*
X56702055Y-144684570D01*
X56517878Y-144731238D01*
X56366188Y-144767931D01*
X56242832Y-144795320D01*
X56143659Y-144814073D01*
X56064515Y-144824858D01*
X56001247Y-144828344D01*
X55949701Y-144825201D01*
X55905725Y-144816097D01*
X55865166Y-144801701D01*
X55858200Y-144798727D01*
X55769861Y-144738041D01*
X55698733Y-144643737D01*
X55647814Y-144522074D01*
X55620100Y-144379311D01*
X55615833Y-144292655D01*
X55629987Y-144136597D01*
X55674018Y-144008817D01*
X55750276Y-143906174D01*
X55861115Y-143825527D01*
X56008885Y-143763736D01*
X56012757Y-143762505D01*
X56082140Y-143741621D01*
X56178293Y-143714144D01*
X56295391Y-143681607D01*
X56427614Y-143645542D01*
X56569138Y-143607482D01*
X56714141Y-143568958D01*
X56856800Y-143531502D01*
X56991294Y-143496648D01*
X57111800Y-143465927D01*
X57212495Y-143440872D01*
X57287556Y-143423015D01*
X57331163Y-143413888D01*
X57339827Y-143413261D01*
X57343687Y-143436360D01*
X57343687Y-143436360D01*
G37*
X57343687Y-143436360D02*
X57348131Y-143492049D01*
X57352467Y-143570603D01*
X57354538Y-143619585D01*
X57362083Y-143818254D01*
X56783434Y-143971960D01*
X56588276Y-144024063D01*
X56429770Y-144067172D01*
X56303554Y-144102774D01*
X56205265Y-144132354D01*
X56130538Y-144157397D01*
X56075011Y-144179390D01*
X56034320Y-144199818D01*
X56004103Y-144220166D01*
X55979995Y-144241920D01*
X55974877Y-144247256D01*
X55941954Y-144291234D01*
X55938241Y-144332035D01*
X55945619Y-144357848D01*
X55979810Y-144407587D01*
X56018389Y-144421457D01*
X56051339Y-144417626D01*
X56119746Y-144404063D01*
X56218192Y-144382040D01*
X56341256Y-144352825D01*
X56483517Y-144317688D01*
X56639554Y-144277901D01*
X56714699Y-144258324D01*
X56873279Y-144217212D01*
X57018785Y-144180404D01*
X57146161Y-144149107D01*
X57250347Y-144124530D01*
X57326285Y-144107879D01*
X57368915Y-144100363D01*
X57376158Y-144100407D01*
X57383877Y-144125026D01*
X57389887Y-144181968D01*
X57393335Y-144261232D01*
X57393833Y-144307759D01*
X57393833Y-144504186D01*
X56922875Y-144627259D01*
X56702055Y-144684570D01*
X56517878Y-144731238D01*
X56366188Y-144767931D01*
X56242832Y-144795320D01*
X56143659Y-144814073D01*
X56064515Y-144824858D01*
X56001247Y-144828344D01*
X55949701Y-144825201D01*
X55905725Y-144816097D01*
X55865166Y-144801701D01*
X55858200Y-144798727D01*
X55769861Y-144738041D01*
X55698733Y-144643737D01*
X55647814Y-144522074D01*
X55620100Y-144379311D01*
X55615833Y-144292655D01*
X55629987Y-144136597D01*
X55674018Y-144008817D01*
X55750276Y-143906174D01*
X55861115Y-143825527D01*
X56008885Y-143763736D01*
X56012757Y-143762505D01*
X56082140Y-143741621D01*
X56178293Y-143714144D01*
X56295391Y-143681607D01*
X56427614Y-143645542D01*
X56569138Y-143607482D01*
X56714141Y-143568958D01*
X56856800Y-143531502D01*
X56991294Y-143496648D01*
X57111800Y-143465927D01*
X57212495Y-143440872D01*
X57287556Y-143423015D01*
X57331163Y-143413888D01*
X57339827Y-143413261D01*
X57343687Y-143436360D01*
G36*
X56825365Y-142489564D02*
X56876917Y-142500619D01*
X56914055Y-142521830D01*
X56950736Y-142558337D01*
X56951813Y-142559540D01*
X56991218Y-142612727D01*
X57009103Y-142668513D01*
X57012833Y-142734725D01*
X57005467Y-142829750D01*
X56978314Y-142904631D01*
X56923785Y-142978434D01*
X56909705Y-142993907D01*
X56854083Y-143053732D01*
X56912214Y-143039257D01*
X56970344Y-143024783D01*
X56956885Y-143191099D01*
X56950162Y-143269636D01*
X56944347Y-143329485D01*
X56940474Y-143360198D01*
X56939928Y-143362103D01*
X56918627Y-143366167D01*
X56861549Y-143374313D01*
X56774974Y-143385783D01*
X56665181Y-143399817D01*
X56538447Y-143415655D01*
X56401052Y-143432537D01*
X56259275Y-143449704D01*
X56119395Y-143466395D01*
X55987690Y-143481852D01*
X55870440Y-143495315D01*
X55773924Y-143506023D01*
X55704419Y-143513217D01*
X55668206Y-143516138D01*
X55666595Y-143516166D01*
X55612924Y-143516166D01*
X55627677Y-143341541D01*
X55634775Y-143261048D01*
X55640798Y-143199136D01*
X55644741Y-143165922D01*
X55645421Y-143162974D01*
X55666334Y-143159382D01*
X55723176Y-143151540D01*
X55809847Y-143140239D01*
X55920242Y-143126269D01*
X56048260Y-143110420D01*
X56103080Y-143103726D01*
X56277398Y-143081996D01*
X56414382Y-143063426D01*
X56518819Y-143046936D01*
X56595496Y-143031451D01*
X56649200Y-143015890D01*
X56684718Y-142999176D01*
X56706836Y-142980230D01*
X56716662Y-142965529D01*
X56735348Y-142923287D01*
X56737866Y-142891629D01*
X56720516Y-142870004D01*
X56679603Y-142857860D01*
X56611427Y-142854646D01*
X56512293Y-142859809D01*
X56378502Y-142872798D01*
X56219891Y-142891398D01*
X56084942Y-142907575D01*
X55960810Y-142921776D01*
X55854919Y-142933204D01*
X55774691Y-142941064D01*
X55727550Y-142944560D01*
X55722738Y-142944666D01*
X55660161Y-142944666D01*
X55670878Y-142833541D01*
X55682741Y-142722712D01*
X55693908Y-142648424D01*
X55705652Y-142604933D01*
X55719249Y-142586492D01*
X55726042Y-142584833D01*
X55753413Y-142582244D01*
X55816051Y-142575021D01*
X55907241Y-142563979D01*
X56020268Y-142549934D01*
X56148416Y-142533701D01*
X56174874Y-142530315D01*
X56318135Y-142513297D01*
X56456221Y-142499359D01*
X56579881Y-142489258D01*
X56679864Y-142483754D01*
X56745438Y-142483522D01*
X56825365Y-142489564D01*
X56825365Y-142489564D01*
G37*
X56825365Y-142489564D02*
X56876917Y-142500619D01*
X56914055Y-142521830D01*
X56950736Y-142558337D01*
X56951813Y-142559540D01*
X56991218Y-142612727D01*
X57009103Y-142668513D01*
X57012833Y-142734725D01*
X57005467Y-142829750D01*
X56978314Y-142904631D01*
X56923785Y-142978434D01*
X56909705Y-142993907D01*
X56854083Y-143053732D01*
X56912214Y-143039257D01*
X56970344Y-143024783D01*
X56956885Y-143191099D01*
X56950162Y-143269636D01*
X56944347Y-143329485D01*
X56940474Y-143360198D01*
X56939928Y-143362103D01*
X56918627Y-143366167D01*
X56861549Y-143374313D01*
X56774974Y-143385783D01*
X56665181Y-143399817D01*
X56538447Y-143415655D01*
X56401052Y-143432537D01*
X56259275Y-143449704D01*
X56119395Y-143466395D01*
X55987690Y-143481852D01*
X55870440Y-143495315D01*
X55773924Y-143506023D01*
X55704419Y-143513217D01*
X55668206Y-143516138D01*
X55666595Y-143516166D01*
X55612924Y-143516166D01*
X55627677Y-143341541D01*
X55634775Y-143261048D01*
X55640798Y-143199136D01*
X55644741Y-143165922D01*
X55645421Y-143162974D01*
X55666334Y-143159382D01*
X55723176Y-143151540D01*
X55809847Y-143140239D01*
X55920242Y-143126269D01*
X56048260Y-143110420D01*
X56103080Y-143103726D01*
X56277398Y-143081996D01*
X56414382Y-143063426D01*
X56518819Y-143046936D01*
X56595496Y-143031451D01*
X56649200Y-143015890D01*
X56684718Y-142999176D01*
X56706836Y-142980230D01*
X56716662Y-142965529D01*
X56735348Y-142923287D01*
X56737866Y-142891629D01*
X56720516Y-142870004D01*
X56679603Y-142857860D01*
X56611427Y-142854646D01*
X56512293Y-142859809D01*
X56378502Y-142872798D01*
X56219891Y-142891398D01*
X56084942Y-142907575D01*
X55960810Y-142921776D01*
X55854919Y-142933204D01*
X55774691Y-142941064D01*
X55727550Y-142944560D01*
X55722738Y-142944666D01*
X55660161Y-142944666D01*
X55670878Y-142833541D01*
X55682741Y-142722712D01*
X55693908Y-142648424D01*
X55705652Y-142604933D01*
X55719249Y-142586492D01*
X55726042Y-142584833D01*
X55753413Y-142582244D01*
X55816051Y-142575021D01*
X55907241Y-142563979D01*
X56020268Y-142549934D01*
X56148416Y-142533701D01*
X56174874Y-142530315D01*
X56318135Y-142513297D01*
X56456221Y-142499359D01*
X56579881Y-142489258D01*
X56679864Y-142483754D01*
X56745438Y-142483522D01*
X56825365Y-142489564D01*
G36*
X56018000Y-141345302D02*
X56075307Y-141355214D01*
X56167156Y-141367253D01*
X56285857Y-141380595D01*
X56423722Y-141394418D01*
X56573062Y-141407899D01*
X56699501Y-141418185D01*
X56845806Y-141433211D01*
X56957026Y-141454421D01*
X57040261Y-141484458D01*
X57102611Y-141525962D01*
X57151176Y-141581577D01*
X57155429Y-141587838D01*
X57191304Y-141675180D01*
X57203556Y-141787009D01*
X57192028Y-141912576D01*
X57161824Y-142026658D01*
X57102052Y-142159938D01*
X57026602Y-142256672D01*
X56929865Y-142321433D01*
X56806231Y-142358794D01*
X56743687Y-142367544D01*
X56625596Y-142379732D01*
X56640190Y-142318241D01*
X56668252Y-142204132D01*
X56691010Y-142125190D01*
X56711591Y-142075097D01*
X56733122Y-142047534D01*
X56758729Y-142036183D01*
X56780591Y-142034500D01*
X56852449Y-142015549D01*
X56904951Y-141965565D01*
X56927886Y-141894847D01*
X56928166Y-141885651D01*
X56917590Y-141832065D01*
X56881014Y-141803942D01*
X56880541Y-141803765D01*
X56817842Y-141797358D01*
X56752987Y-141825736D01*
X56683702Y-141890738D01*
X56607710Y-141994202D01*
X56570478Y-142054202D01*
X56503861Y-142158044D01*
X56443766Y-142231062D01*
X56381607Y-142281976D01*
X56309432Y-142319239D01*
X56224864Y-142345330D01*
X56139687Y-142348945D01*
X56038607Y-142330112D01*
X56001824Y-142319771D01*
X55886804Y-142268149D01*
X55805782Y-142195175D01*
X55760136Y-142106475D01*
X55751242Y-142007678D01*
X55780477Y-141904411D01*
X55811188Y-141858792D01*
X56071971Y-141858792D01*
X56075165Y-141912702D01*
X56111723Y-141957943D01*
X56172677Y-141986442D01*
X56220094Y-141992166D01*
X56291885Y-141978292D01*
X56349292Y-141933958D01*
X56399297Y-141876259D01*
X56444416Y-141818318D01*
X56444972Y-141817541D01*
X56486549Y-141759333D01*
X56319820Y-141759333D01*
X56216172Y-141762999D01*
X56146460Y-141776119D01*
X56102752Y-141801875D01*
X56077118Y-141843450D01*
X56071971Y-141858792D01*
X55811188Y-141858792D01*
X55849219Y-141802302D01*
X55869867Y-141780466D01*
X55915369Y-141732644D01*
X55932931Y-141705362D01*
X55926133Y-141690900D01*
X55913766Y-141685757D01*
X55895507Y-141677489D01*
X55887321Y-141661565D01*
X55889514Y-141629219D01*
X55902392Y-141571688D01*
X55920141Y-141503354D01*
X55942861Y-141420290D01*
X55960093Y-141370726D01*
X55976536Y-141347072D01*
X55996890Y-141341740D01*
X56018000Y-141345302D01*
X56018000Y-141345302D01*
G37*
X56018000Y-141345302D02*
X56075307Y-141355214D01*
X56167156Y-141367253D01*
X56285857Y-141380595D01*
X56423722Y-141394418D01*
X56573062Y-141407899D01*
X56699501Y-141418185D01*
X56845806Y-141433211D01*
X56957026Y-141454421D01*
X57040261Y-141484458D01*
X57102611Y-141525962D01*
X57151176Y-141581577D01*
X57155429Y-141587838D01*
X57191304Y-141675180D01*
X57203556Y-141787009D01*
X57192028Y-141912576D01*
X57161824Y-142026658D01*
X57102052Y-142159938D01*
X57026602Y-142256672D01*
X56929865Y-142321433D01*
X56806231Y-142358794D01*
X56743687Y-142367544D01*
X56625596Y-142379732D01*
X56640190Y-142318241D01*
X56668252Y-142204132D01*
X56691010Y-142125190D01*
X56711591Y-142075097D01*
X56733122Y-142047534D01*
X56758729Y-142036183D01*
X56780591Y-142034500D01*
X56852449Y-142015549D01*
X56904951Y-141965565D01*
X56927886Y-141894847D01*
X56928166Y-141885651D01*
X56917590Y-141832065D01*
X56881014Y-141803942D01*
X56880541Y-141803765D01*
X56817842Y-141797358D01*
X56752987Y-141825736D01*
X56683702Y-141890738D01*
X56607710Y-141994202D01*
X56570478Y-142054202D01*
X56503861Y-142158044D01*
X56443766Y-142231062D01*
X56381607Y-142281976D01*
X56309432Y-142319239D01*
X56224864Y-142345330D01*
X56139687Y-142348945D01*
X56038607Y-142330112D01*
X56001824Y-142319771D01*
X55886804Y-142268149D01*
X55805782Y-142195175D01*
X55760136Y-142106475D01*
X55751242Y-142007678D01*
X55780477Y-141904411D01*
X55811188Y-141858792D01*
X56071971Y-141858792D01*
X56075165Y-141912702D01*
X56111723Y-141957943D01*
X56172677Y-141986442D01*
X56220094Y-141992166D01*
X56291885Y-141978292D01*
X56349292Y-141933958D01*
X56399297Y-141876259D01*
X56444416Y-141818318D01*
X56444972Y-141817541D01*
X56486549Y-141759333D01*
X56319820Y-141759333D01*
X56216172Y-141762999D01*
X56146460Y-141776119D01*
X56102752Y-141801875D01*
X56077118Y-141843450D01*
X56071971Y-141858792D01*
X55811188Y-141858792D01*
X55849219Y-141802302D01*
X55869867Y-141780466D01*
X55915369Y-141732644D01*
X55932931Y-141705362D01*
X55926133Y-141690900D01*
X55913766Y-141685757D01*
X55895507Y-141677489D01*
X55887321Y-141661565D01*
X55889514Y-141629219D01*
X55902392Y-141571688D01*
X55920141Y-141503354D01*
X55942861Y-141420290D01*
X55960093Y-141370726D01*
X55976536Y-141347072D01*
X55996890Y-141341740D01*
X56018000Y-141345302D01*
G36*
X113494305Y-133897340D02*
X113597157Y-133928724D01*
X113730018Y-133985122D01*
X113889859Y-134065079D01*
X114073649Y-134167143D01*
X114149373Y-134211560D01*
X114275261Y-134283974D01*
X114413043Y-134359222D01*
X114548197Y-134429608D01*
X114666200Y-134487438D01*
X114695069Y-134500729D01*
X114941555Y-134612006D01*
X114998182Y-134800696D01*
X115026961Y-134891432D01*
X115049155Y-134947045D01*
X115067878Y-134973622D01*
X115086244Y-134977246D01*
X115088194Y-134976576D01*
X115125080Y-134968497D01*
X115190398Y-134959400D01*
X115270346Y-134951193D01*
X115274340Y-134950852D01*
X115347137Y-134947458D01*
X115413804Y-134952229D01*
X115480239Y-134967858D01*
X115552341Y-134997038D01*
X115636010Y-135042462D01*
X115737145Y-135106824D01*
X115861645Y-135192816D01*
X115962898Y-135265191D01*
X116080978Y-135349644D01*
X116204918Y-135437205D01*
X116323463Y-135519993D01*
X116425357Y-135590125D01*
X116470898Y-135620900D01*
X116605348Y-135719052D01*
X116738788Y-135831325D01*
X116863651Y-135950194D01*
X116972368Y-136068131D01*
X117057371Y-136177609D01*
X117098834Y-136245416D01*
X117157595Y-136382556D01*
X117209695Y-136551790D01*
X117254405Y-136745449D01*
X117290996Y-136955864D01*
X117318739Y-137175367D01*
X117336906Y-137396289D01*
X117344767Y-137610962D01*
X117341593Y-137811718D01*
X117326656Y-137990887D01*
X117299226Y-138140802D01*
X117283956Y-138192750D01*
X117190007Y-138417681D01*
X117070912Y-138613752D01*
X116928943Y-138777708D01*
X116803009Y-138881757D01*
X116606038Y-138995573D01*
X116380804Y-139082043D01*
X116131573Y-139140913D01*
X115862613Y-139171927D01*
X115578190Y-139174831D01*
X115282570Y-139149368D01*
X114980021Y-139095285D01*
X114674809Y-139012326D01*
X114665971Y-139009490D01*
X114538014Y-138968960D01*
X114396320Y-138925215D01*
X114260560Y-138884276D01*
X114175314Y-138859280D01*
X114055413Y-138822006D01*
X113925472Y-138777219D01*
X113805721Y-138732053D01*
X113753867Y-138710645D01*
X113563354Y-138628511D01*
X113440428Y-138669922D01*
X113260499Y-138708368D01*
X113071297Y-138705588D01*
X112872781Y-138661572D01*
X112664908Y-138576309D01*
X112447638Y-138449791D01*
X112425793Y-138435141D01*
X112360207Y-138387702D01*
X112319652Y-138346110D01*
X112292668Y-138294749D01*
X112268695Y-138221080D01*
X112202085Y-138029858D01*
X112124062Y-137869523D01*
X112037243Y-137745386D01*
X112030435Y-137737666D01*
X111944916Y-137642416D01*
X111852666Y-137711376D01*
X111795910Y-137751507D01*
X111715069Y-137805736D01*
X111622183Y-137866088D01*
X111552788Y-137909992D01*
X111460824Y-137969892D01*
X111383404Y-138027362D01*
X111310620Y-138091151D01*
X111232562Y-138170012D01*
X111139321Y-138272695D01*
X111129455Y-138283846D01*
X110921358Y-138506095D01*
X110701990Y-138715758D01*
X110477093Y-138908319D01*
X110252409Y-139079261D01*
X110033682Y-139224069D01*
X109826654Y-139338227D01*
X109736391Y-139379431D01*
X109589891Y-139425413D01*
X109431152Y-139448222D01*
X109274914Y-139446963D01*
X109135917Y-139420736D01*
X109123614Y-139416733D01*
X109005645Y-139376595D01*
X108911947Y-139544519D01*
X108808838Y-139705631D01*
X108697096Y-139837019D01*
X108581413Y-139933513D01*
X108532500Y-139962537D01*
X108446149Y-139994607D01*
X108336925Y-140011702D01*
X108201356Y-140013731D01*
X108035973Y-140000604D01*
X107837305Y-139972232D01*
X107659329Y-139939913D01*
X107499977Y-139910083D01*
X107374805Y-139890845D01*
X107276773Y-139883137D01*
X107198845Y-139887893D01*
X107133983Y-139906051D01*
X107075149Y-139938546D01*
X107015304Y-139986314D01*
X106966166Y-140032108D01*
X106892567Y-140100789D01*
X106826603Y-140155540D01*
X106759145Y-140201888D01*
X106681063Y-140245357D01*
X106583229Y-140291474D01*
X106456515Y-140345765D01*
X106429277Y-140357106D01*
X106277701Y-140419778D01*
X106158930Y-140467783D01*
X106066764Y-140502901D01*
X105994998Y-140526911D01*
X105937431Y-140541590D01*
X105887859Y-140548720D01*
X105840082Y-140550078D01*
X105787895Y-140547443D01*
X105770250Y-140546124D01*
X105679499Y-140535430D01*
X105591843Y-140519064D01*
X105534638Y-140503253D01*
X105447192Y-140471817D01*
X105365304Y-140556338D01*
X105229700Y-140683515D01*
X105086885Y-140789915D01*
X104928687Y-140880004D01*
X104746932Y-140958250D01*
X104533446Y-141029119D01*
X104463555Y-141049174D01*
X104393491Y-141073136D01*
X104332988Y-141106575D01*
X104268998Y-141157997D01*
X104209555Y-141214787D01*
X104098917Y-141314349D01*
X103985292Y-141392536D01*
X103855306Y-141457273D01*
X103706500Y-141512860D01*
X103519791Y-141561888D01*
X103349960Y-141579319D01*
X103201849Y-141564702D01*
X103187916Y-141561331D01*
X102999789Y-141493556D01*
X102839605Y-141395651D01*
X102709545Y-141270369D01*
X102611788Y-141120464D01*
X102548512Y-140948690D01*
X102521899Y-140757800D01*
X102521166Y-140718888D01*
X102504967Y-140572917D01*
X102458651Y-140409280D01*
X102385638Y-140236143D01*
X102289349Y-140061673D01*
X102178559Y-139900991D01*
X102063656Y-139747002D01*
X101974986Y-139617801D01*
X101909644Y-139507464D01*
X101864724Y-139410068D01*
X101837323Y-139319691D01*
X101824534Y-139230410D01*
X101823860Y-139210548D01*
X101994614Y-139210548D01*
X102001467Y-139286035D01*
X102022302Y-139359908D01*
X102060315Y-139439827D01*
X102118705Y-139533454D01*
X102200666Y-139648449D01*
X102236895Y-139697002D01*
X102374102Y-139888239D01*
X102482047Y-140060275D01*
X102564138Y-140220827D01*
X102623784Y-140377613D01*
X102664392Y-140538352D01*
X102689372Y-140710763D01*
X102690743Y-140724717D01*
X102711693Y-140879037D01*
X102743733Y-141001555D01*
X102790236Y-141102092D01*
X102848133Y-141182956D01*
X102940323Y-141266293D01*
X103059954Y-141337610D01*
X103192461Y-141390152D01*
X103323281Y-141417167D01*
X103357675Y-141419238D01*
X103409354Y-141414291D01*
X103485819Y-141399926D01*
X103571380Y-141379135D01*
X103579579Y-141376888D01*
X103738769Y-141322865D01*
X103884689Y-141254412D01*
X104007942Y-141176700D01*
X104099129Y-141094900D01*
X104105404Y-141087559D01*
X104160164Y-141026804D01*
X104215294Y-140979637D01*
X104279923Y-140941099D01*
X104363180Y-140906232D01*
X104474195Y-140870075D01*
X104542583Y-140850073D01*
X104742005Y-140782460D01*
X104912812Y-140699348D01*
X105067973Y-140593166D01*
X105220457Y-140456347D01*
X105224975Y-140451841D01*
X105385809Y-140291007D01*
X105567446Y-140337806D01*
X105707842Y-140368855D01*
X105822253Y-140380761D01*
X105922572Y-140373285D01*
X106020689Y-140346191D01*
X106066583Y-140327840D01*
X106144489Y-140294676D01*
X106244568Y-140252578D01*
X106349826Y-140208680D01*
X106392114Y-140191165D01*
X106529288Y-140132113D01*
X106635066Y-140080050D01*
X106718480Y-140029414D01*
X106788563Y-139974641D01*
X106854349Y-139910168D01*
X106862319Y-139901585D01*
X106957468Y-139815608D01*
X107063981Y-139757277D01*
X107084343Y-139749239D01*
X107146537Y-139728682D01*
X107208361Y-139716106D01*
X107276859Y-139711854D01*
X107359075Y-139716267D01*
X107462053Y-139729685D01*
X107592839Y-139752449D01*
X107738750Y-139780931D01*
X107954943Y-139820035D01*
X108134808Y-139843296D01*
X108277511Y-139850650D01*
X108382215Y-139842030D01*
X108413260Y-139834098D01*
X108503432Y-139784754D01*
X108599112Y-139695126D01*
X108698974Y-139566712D01*
X108801690Y-139401004D01*
X108808675Y-139388547D01*
X108936572Y-139159047D01*
X109057327Y-139215648D01*
X109122736Y-139243522D01*
X109182863Y-139260536D01*
X109252130Y-139269226D01*
X109344956Y-139272128D01*
X109379166Y-139272250D01*
X109470225Y-139271507D01*
X109537263Y-139266996D01*
X109593972Y-139255286D01*
X109654046Y-139232950D01*
X109731180Y-139196560D01*
X109781333Y-139171567D01*
X110018675Y-139036228D01*
X110264860Y-138864400D01*
X110515369Y-138659764D01*
X110765683Y-138426002D01*
X111001301Y-138177944D01*
X111101294Y-138068475D01*
X111183088Y-137984449D01*
X111255078Y-137918375D01*
X111325660Y-137862761D01*
X111403230Y-137810114D01*
X111437967Y-137788288D01*
X111532404Y-137728599D01*
X111626185Y-137667129D01*
X111705485Y-137613034D01*
X111739250Y-137588755D01*
X111822486Y-137528527D01*
X111881405Y-137491815D01*
X111924558Y-137475453D01*
X111960492Y-137476275D01*
X111997760Y-137491117D01*
X111999941Y-137492237D01*
X112094602Y-137560665D01*
X112187594Y-137664056D01*
X112273979Y-137795167D01*
X112348821Y-137946753D01*
X112395301Y-138072319D01*
X112456075Y-138263090D01*
X112616245Y-138358974D01*
X112816245Y-138461336D01*
X113005788Y-138522720D01*
X113184846Y-138543121D01*
X113353390Y-138522533D01*
X113445582Y-138492112D01*
X113564414Y-138443230D01*
X113763082Y-138532361D01*
X113857137Y-138570846D01*
X113985480Y-138617843D01*
X114141435Y-138671188D01*
X114318324Y-138728718D01*
X114509471Y-138788268D01*
X114708200Y-138847675D01*
X114907833Y-138904775D01*
X114938418Y-138913277D01*
X115159852Y-138964455D01*
X115384156Y-138994620D01*
X115624805Y-139005167D01*
X115797445Y-139002121D01*
X116038978Y-138983426D01*
X116250461Y-138945579D01*
X116440568Y-138886525D01*
X116605879Y-138810726D01*
X116764375Y-138702897D01*
X116902077Y-138561819D01*
X117015862Y-138392712D01*
X117102613Y-138200792D01*
X117159208Y-137991279D01*
X117177849Y-137854083D01*
X117182971Y-137711570D01*
X117177953Y-137538772D01*
X117164067Y-137346167D01*
X117142579Y-137144239D01*
X117114758Y-136943468D01*
X117081874Y-136754336D01*
X117045195Y-136587323D01*
X117009497Y-136463132D01*
X116964917Y-136352792D01*
X116905996Y-136248553D01*
X116828829Y-136146337D01*
X116729507Y-136042066D01*
X116604121Y-135931663D01*
X116448766Y-135811051D01*
X116259531Y-135676152D01*
X116246894Y-135667432D01*
X116126349Y-135583866D01*
X116000294Y-135495595D01*
X115880032Y-135410591D01*
X115776865Y-135336826D01*
X115729166Y-135302225D01*
X115641227Y-135240838D01*
X115557097Y-135187242D01*
X115487223Y-135147804D01*
X115447126Y-135130260D01*
X115395454Y-135120341D01*
X115325913Y-135118356D01*
X115232596Y-135124699D01*
X115109596Y-135139762D01*
X114958231Y-135162770D01*
X114944225Y-135145230D01*
X114921628Y-135095348D01*
X114893874Y-135021370D01*
X114871487Y-134954250D01*
X114804261Y-134742583D01*
X114467672Y-134571984D01*
X114342406Y-134507329D01*
X114215400Y-134439741D01*
X114097683Y-134375227D01*
X114000288Y-134319797D01*
X113956159Y-134293377D01*
X113855212Y-134234839D01*
X113743070Y-134175663D01*
X113640243Y-134126549D01*
X113617492Y-134116717D01*
X113453750Y-134048066D01*
X113292423Y-134080994D01*
X113200997Y-134102535D01*
X113115752Y-134130130D01*
X113024513Y-134168598D01*
X112915105Y-134222758D01*
X112857396Y-134253161D01*
X112817738Y-134271988D01*
X112783527Y-134277600D01*
X112740136Y-134269313D01*
X112672940Y-134246442D01*
X112666896Y-134244252D01*
X112520376Y-134191735D01*
X112404930Y-134152205D01*
X112312201Y-134123243D01*
X112233832Y-134102431D01*
X112161468Y-134087348D01*
X112086751Y-134075576D01*
X112081969Y-134074917D01*
X111852829Y-134064096D01*
X111626761Y-134092572D01*
X111408928Y-134157621D01*
X111204494Y-134256519D01*
X111018624Y-134386544D01*
X110856483Y-134544971D01*
X110723234Y-134729077D01*
X110675509Y-134816666D01*
X110612679Y-134959830D01*
X110560768Y-135109624D01*
X110523251Y-135253831D01*
X110503602Y-135380232D01*
X110501517Y-135428594D01*
X110508941Y-135534907D01*
X110531752Y-135649476D01*
X110572452Y-135782852D01*
X110609400Y-135883889D01*
X110640680Y-135969276D01*
X110656724Y-136026112D01*
X110659312Y-136064612D01*
X110650227Y-136094987D01*
X110647240Y-136100848D01*
X110616927Y-136139521D01*
X110578893Y-136150584D01*
X110529131Y-136132387D01*
X110463629Y-136083281D01*
X110378378Y-136001614D01*
X110359962Y-135982639D01*
X110288344Y-135909261D01*
X110238723Y-135862417D01*
X110204378Y-135837533D01*
X110178594Y-135830037D01*
X110154651Y-135835355D01*
X110147885Y-135838278D01*
X110103906Y-135849757D01*
X110067185Y-135830900D01*
X110054620Y-135819028D01*
X110020999Y-135765695D01*
X110007442Y-135714687D01*
X109999481Y-135677126D01*
X109976050Y-135649491D01*
X109927342Y-135622935D01*
X109886716Y-135605783D01*
X109749439Y-135567168D01*
X109603619Y-135561148D01*
X109441836Y-135587797D01*
X109360170Y-135610996D01*
X109190823Y-135664493D01*
X109037266Y-135568932D01*
X108955771Y-135519460D01*
X108883156Y-135479878D01*
X108813653Y-135449414D01*
X108741498Y-135427297D01*
X108660925Y-135412753D01*
X108566169Y-135405012D01*
X108451463Y-135403301D01*
X108311042Y-135406849D01*
X108139141Y-135414883D01*
X107961000Y-135424834D01*
X107780286Y-135436544D01*
X107635369Y-135449357D01*
X107519710Y-135464614D01*
X107426772Y-135483655D01*
X107350018Y-135507820D01*
X107282912Y-135538450D01*
X107218915Y-135576883D01*
X107218724Y-135577010D01*
X107141026Y-135632860D01*
X107082294Y-135688522D01*
X107035004Y-135754388D01*
X106991631Y-135840847D01*
X106946836Y-135952492D01*
X106868482Y-136160076D01*
X106669481Y-136196928D01*
X106531564Y-136225343D01*
X106424028Y-136255585D01*
X106335021Y-136292401D01*
X106252690Y-136340536D01*
X106180702Y-136392664D01*
X106109572Y-136446584D01*
X106053618Y-136484377D01*
X106001207Y-136511021D01*
X105940704Y-136531493D01*
X105860477Y-136550772D01*
X105764887Y-136570588D01*
X105597104Y-136611030D01*
X105457739Y-136660871D01*
X105332981Y-136726558D01*
X105209017Y-136814538D01*
X105164323Y-136850902D01*
X105082940Y-136918389D01*
X105022912Y-136964188D01*
X104972913Y-136993522D01*
X104921618Y-137011614D01*
X104857702Y-137023686D01*
X104769839Y-137034961D01*
X104763500Y-137035733D01*
X104661980Y-137051991D01*
X104560064Y-137074670D01*
X104477505Y-137099278D01*
X104467609Y-137103017D01*
X104319499Y-137177953D01*
X104172125Y-137282285D01*
X104039685Y-137405273D01*
X103986006Y-137467257D01*
X103910654Y-137559009D01*
X103850675Y-137623095D01*
X103796953Y-137666375D01*
X103740370Y-137695714D01*
X103671809Y-137717971D01*
X103643000Y-137725433D01*
X103493637Y-137769873D01*
X103377789Y-137822523D01*
X103286724Y-137888870D01*
X103211709Y-137974403D01*
X103185751Y-138012833D01*
X103109147Y-138127133D01*
X103044994Y-138207250D01*
X102988535Y-138257677D01*
X102935010Y-138282908D01*
X102894359Y-138288000D01*
X102796208Y-138301429D01*
X102677899Y-138338303D01*
X102550521Y-138393504D01*
X102425159Y-138461912D01*
X102312902Y-138538408D01*
X102264175Y-138578970D01*
X102194357Y-138659423D01*
X102126146Y-138767964D01*
X102066309Y-138890664D01*
X102021614Y-139013594D01*
X101998825Y-139122825D01*
X101998547Y-139125785D01*
X101994614Y-139210548D01*
X101823860Y-139210548D01*
X101822666Y-139175387D01*
X101839031Y-139036953D01*
X101884729Y-138885118D01*
X101954668Y-138731120D01*
X102043754Y-138586193D01*
X102145733Y-138462759D01*
X102220639Y-138399439D01*
X102321490Y-138332780D01*
X102438243Y-138267620D01*
X102560854Y-138208795D01*
X102679279Y-138161141D01*
X102783476Y-138129496D01*
X102860249Y-138118666D01*
X102891283Y-138113413D01*
X102921357Y-138093222D01*
X102956998Y-138051445D01*
X103004735Y-137981434D01*
X103023088Y-137952836D01*
X103079361Y-137871081D01*
X103137906Y-137796844D01*
X103188757Y-137742444D01*
X103203304Y-137730056D01*
X103257163Y-137697161D01*
X103335690Y-137658898D01*
X103426882Y-137620035D01*
X103518739Y-137585339D01*
X103599259Y-137559576D01*
X103656440Y-137547515D01*
X103663722Y-137547166D01*
X103699282Y-137531025D01*
X103747774Y-137488462D01*
X103784576Y-137446625D01*
X103943471Y-137268219D01*
X104108952Y-137121844D01*
X104275742Y-137012043D01*
X104308905Y-136994816D01*
X104382597Y-136959980D01*
X104450022Y-136933157D01*
X104520983Y-136911808D01*
X104605288Y-136893394D01*
X104712741Y-136875376D01*
X104842342Y-136856710D01*
X104898561Y-136835453D01*
X104976409Y-136786280D01*
X105060582Y-136720715D01*
X105207718Y-136609168D01*
X105353353Y-136525695D01*
X105511894Y-136463385D01*
X105697225Y-136415441D01*
X105800330Y-136393387D01*
X105873051Y-136375845D01*
X105926357Y-136358260D01*
X105971216Y-136336078D01*
X106018596Y-136304743D01*
X106079465Y-136259702D01*
X106088424Y-136252989D01*
X106275342Y-136138447D01*
X106477415Y-136063419D01*
X106588756Y-136039994D01*
X106746346Y-136014920D01*
X106808631Y-135846302D01*
X106887342Y-135680747D01*
X106991518Y-135546168D01*
X107126077Y-135436528D01*
X107159634Y-135415521D01*
X107239369Y-135372854D01*
X107324143Y-135339125D01*
X107420954Y-135312914D01*
X107536804Y-135292803D01*
X107678693Y-135277374D01*
X107853620Y-135265209D01*
X107918666Y-135261726D01*
X108052502Y-135254526D01*
X108180282Y-135246873D01*
X108292551Y-135239392D01*
X108379854Y-135232707D01*
X108426666Y-135228199D01*
X108563905Y-135224530D01*
X108705386Y-135247293D01*
X108859271Y-135298440D01*
X109009728Y-135367615D01*
X109222372Y-135475372D01*
X109379719Y-135431769D01*
X109572583Y-135394477D01*
X109750992Y-135394995D01*
X109919206Y-135434391D01*
X110081489Y-135513731D01*
X110242103Y-135634082D01*
X110263105Y-135652816D01*
X110326098Y-135708924D01*
X110362928Y-135738102D01*
X110377931Y-135742775D01*
X110375446Y-135725370D01*
X110370599Y-135712943D01*
X110359997Y-135666608D01*
X110351544Y-135590145D01*
X110346339Y-135495748D01*
X110345215Y-135430500D01*
X110351669Y-135282155D01*
X110373557Y-135143382D01*
X110413919Y-135003318D01*
X110475791Y-134851104D01*
X110549375Y-134700546D01*
X110664922Y-134518299D01*
X110813612Y-134348845D01*
X110986450Y-134200899D01*
X111174441Y-134083177D01*
X111199500Y-134070560D01*
X111358659Y-133998247D01*
X111498996Y-133948677D01*
X111634952Y-133918409D01*
X111780969Y-133903999D01*
X111908583Y-133901540D01*
X112082755Y-133909336D01*
X112244874Y-133932973D01*
X112409681Y-133975531D01*
X112591918Y-134040088D01*
X112614391Y-134048956D01*
X112769866Y-134110840D01*
X112931891Y-134030999D01*
X113041325Y-133984170D01*
X113161320Y-133944425D01*
X113280685Y-133914423D01*
X113388230Y-133896825D01*
X113472762Y-133894291D01*
X113494305Y-133897340D01*
X113494305Y-133897340D01*
G37*
X113494305Y-133897340D02*
X113597157Y-133928724D01*
X113730018Y-133985122D01*
X113889859Y-134065079D01*
X114073649Y-134167143D01*
X114149373Y-134211560D01*
X114275261Y-134283974D01*
X114413043Y-134359222D01*
X114548197Y-134429608D01*
X114666200Y-134487438D01*
X114695069Y-134500729D01*
X114941555Y-134612006D01*
X114998182Y-134800696D01*
X115026961Y-134891432D01*
X115049155Y-134947045D01*
X115067878Y-134973622D01*
X115086244Y-134977246D01*
X115088194Y-134976576D01*
X115125080Y-134968497D01*
X115190398Y-134959400D01*
X115270346Y-134951193D01*
X115274340Y-134950852D01*
X115347137Y-134947458D01*
X115413804Y-134952229D01*
X115480239Y-134967858D01*
X115552341Y-134997038D01*
X115636010Y-135042462D01*
X115737145Y-135106824D01*
X115861645Y-135192816D01*
X115962898Y-135265191D01*
X116080978Y-135349644D01*
X116204918Y-135437205D01*
X116323463Y-135519993D01*
X116425357Y-135590125D01*
X116470898Y-135620900D01*
X116605348Y-135719052D01*
X116738788Y-135831325D01*
X116863651Y-135950194D01*
X116972368Y-136068131D01*
X117057371Y-136177609D01*
X117098834Y-136245416D01*
X117157595Y-136382556D01*
X117209695Y-136551790D01*
X117254405Y-136745449D01*
X117290996Y-136955864D01*
X117318739Y-137175367D01*
X117336906Y-137396289D01*
X117344767Y-137610962D01*
X117341593Y-137811718D01*
X117326656Y-137990887D01*
X117299226Y-138140802D01*
X117283956Y-138192750D01*
X117190007Y-138417681D01*
X117070912Y-138613752D01*
X116928943Y-138777708D01*
X116803009Y-138881757D01*
X116606038Y-138995573D01*
X116380804Y-139082043D01*
X116131573Y-139140913D01*
X115862613Y-139171927D01*
X115578190Y-139174831D01*
X115282570Y-139149368D01*
X114980021Y-139095285D01*
X114674809Y-139012326D01*
X114665971Y-139009490D01*
X114538014Y-138968960D01*
X114396320Y-138925215D01*
X114260560Y-138884276D01*
X114175314Y-138859280D01*
X114055413Y-138822006D01*
X113925472Y-138777219D01*
X113805721Y-138732053D01*
X113753867Y-138710645D01*
X113563354Y-138628511D01*
X113440428Y-138669922D01*
X113260499Y-138708368D01*
X113071297Y-138705588D01*
X112872781Y-138661572D01*
X112664908Y-138576309D01*
X112447638Y-138449791D01*
X112425793Y-138435141D01*
X112360207Y-138387702D01*
X112319652Y-138346110D01*
X112292668Y-138294749D01*
X112268695Y-138221080D01*
X112202085Y-138029858D01*
X112124062Y-137869523D01*
X112037243Y-137745386D01*
X112030435Y-137737666D01*
X111944916Y-137642416D01*
X111852666Y-137711376D01*
X111795910Y-137751507D01*
X111715069Y-137805736D01*
X111622183Y-137866088D01*
X111552788Y-137909992D01*
X111460824Y-137969892D01*
X111383404Y-138027362D01*
X111310620Y-138091151D01*
X111232562Y-138170012D01*
X111139321Y-138272695D01*
X111129455Y-138283846D01*
X110921358Y-138506095D01*
X110701990Y-138715758D01*
X110477093Y-138908319D01*
X110252409Y-139079261D01*
X110033682Y-139224069D01*
X109826654Y-139338227D01*
X109736391Y-139379431D01*
X109589891Y-139425413D01*
X109431152Y-139448222D01*
X109274914Y-139446963D01*
X109135917Y-139420736D01*
X109123614Y-139416733D01*
X109005645Y-139376595D01*
X108911947Y-139544519D01*
X108808838Y-139705631D01*
X108697096Y-139837019D01*
X108581413Y-139933513D01*
X108532500Y-139962537D01*
X108446149Y-139994607D01*
X108336925Y-140011702D01*
X108201356Y-140013731D01*
X108035973Y-140000604D01*
X107837305Y-139972232D01*
X107659329Y-139939913D01*
X107499977Y-139910083D01*
X107374805Y-139890845D01*
X107276773Y-139883137D01*
X107198845Y-139887893D01*
X107133983Y-139906051D01*
X107075149Y-139938546D01*
X107015304Y-139986314D01*
X106966166Y-140032108D01*
X106892567Y-140100789D01*
X106826603Y-140155540D01*
X106759145Y-140201888D01*
X106681063Y-140245357D01*
X106583229Y-140291474D01*
X106456515Y-140345765D01*
X106429277Y-140357106D01*
X106277701Y-140419778D01*
X106158930Y-140467783D01*
X106066764Y-140502901D01*
X105994998Y-140526911D01*
X105937431Y-140541590D01*
X105887859Y-140548720D01*
X105840082Y-140550078D01*
X105787895Y-140547443D01*
X105770250Y-140546124D01*
X105679499Y-140535430D01*
X105591843Y-140519064D01*
X105534638Y-140503253D01*
X105447192Y-140471817D01*
X105365304Y-140556338D01*
X105229700Y-140683515D01*
X105086885Y-140789915D01*
X104928687Y-140880004D01*
X104746932Y-140958250D01*
X104533446Y-141029119D01*
X104463555Y-141049174D01*
X104393491Y-141073136D01*
X104332988Y-141106575D01*
X104268998Y-141157997D01*
X104209555Y-141214787D01*
X104098917Y-141314349D01*
X103985292Y-141392536D01*
X103855306Y-141457273D01*
X103706500Y-141512860D01*
X103519791Y-141561888D01*
X103349960Y-141579319D01*
X103201849Y-141564702D01*
X103187916Y-141561331D01*
X102999789Y-141493556D01*
X102839605Y-141395651D01*
X102709545Y-141270369D01*
X102611788Y-141120464D01*
X102548512Y-140948690D01*
X102521899Y-140757800D01*
X102521166Y-140718888D01*
X102504967Y-140572917D01*
X102458651Y-140409280D01*
X102385638Y-140236143D01*
X102289349Y-140061673D01*
X102178559Y-139900991D01*
X102063656Y-139747002D01*
X101974986Y-139617801D01*
X101909644Y-139507464D01*
X101864724Y-139410068D01*
X101837323Y-139319691D01*
X101824534Y-139230410D01*
X101823860Y-139210548D01*
X101994614Y-139210548D01*
X102001467Y-139286035D01*
X102022302Y-139359908D01*
X102060315Y-139439827D01*
X102118705Y-139533454D01*
X102200666Y-139648449D01*
X102236895Y-139697002D01*
X102374102Y-139888239D01*
X102482047Y-140060275D01*
X102564138Y-140220827D01*
X102623784Y-140377613D01*
X102664392Y-140538352D01*
X102689372Y-140710763D01*
X102690743Y-140724717D01*
X102711693Y-140879037D01*
X102743733Y-141001555D01*
X102790236Y-141102092D01*
X102848133Y-141182956D01*
X102940323Y-141266293D01*
X103059954Y-141337610D01*
X103192461Y-141390152D01*
X103323281Y-141417167D01*
X103357675Y-141419238D01*
X103409354Y-141414291D01*
X103485819Y-141399926D01*
X103571380Y-141379135D01*
X103579579Y-141376888D01*
X103738769Y-141322865D01*
X103884689Y-141254412D01*
X104007942Y-141176700D01*
X104099129Y-141094900D01*
X104105404Y-141087559D01*
X104160164Y-141026804D01*
X104215294Y-140979637D01*
X104279923Y-140941099D01*
X104363180Y-140906232D01*
X104474195Y-140870075D01*
X104542583Y-140850073D01*
X104742005Y-140782460D01*
X104912812Y-140699348D01*
X105067973Y-140593166D01*
X105220457Y-140456347D01*
X105224975Y-140451841D01*
X105385809Y-140291007D01*
X105567446Y-140337806D01*
X105707842Y-140368855D01*
X105822253Y-140380761D01*
X105922572Y-140373285D01*
X106020689Y-140346191D01*
X106066583Y-140327840D01*
X106144489Y-140294676D01*
X106244568Y-140252578D01*
X106349826Y-140208680D01*
X106392114Y-140191165D01*
X106529288Y-140132113D01*
X106635066Y-140080050D01*
X106718480Y-140029414D01*
X106788563Y-139974641D01*
X106854349Y-139910168D01*
X106862319Y-139901585D01*
X106957468Y-139815608D01*
X107063981Y-139757277D01*
X107084343Y-139749239D01*
X107146537Y-139728682D01*
X107208361Y-139716106D01*
X107276859Y-139711854D01*
X107359075Y-139716267D01*
X107462053Y-139729685D01*
X107592839Y-139752449D01*
X107738750Y-139780931D01*
X107954943Y-139820035D01*
X108134808Y-139843296D01*
X108277511Y-139850650D01*
X108382215Y-139842030D01*
X108413260Y-139834098D01*
X108503432Y-139784754D01*
X108599112Y-139695126D01*
X108698974Y-139566712D01*
X108801690Y-139401004D01*
X108808675Y-139388547D01*
X108936572Y-139159047D01*
X109057327Y-139215648D01*
X109122736Y-139243522D01*
X109182863Y-139260536D01*
X109252130Y-139269226D01*
X109344956Y-139272128D01*
X109379166Y-139272250D01*
X109470225Y-139271507D01*
X109537263Y-139266996D01*
X109593972Y-139255286D01*
X109654046Y-139232950D01*
X109731180Y-139196560D01*
X109781333Y-139171567D01*
X110018675Y-139036228D01*
X110264860Y-138864400D01*
X110515369Y-138659764D01*
X110765683Y-138426002D01*
X111001301Y-138177944D01*
X111101294Y-138068475D01*
X111183088Y-137984449D01*
X111255078Y-137918375D01*
X111325660Y-137862761D01*
X111403230Y-137810114D01*
X111437967Y-137788288D01*
X111532404Y-137728599D01*
X111626185Y-137667129D01*
X111705485Y-137613034D01*
X111739250Y-137588755D01*
X111822486Y-137528527D01*
X111881405Y-137491815D01*
X111924558Y-137475453D01*
X111960492Y-137476275D01*
X111997760Y-137491117D01*
X111999941Y-137492237D01*
X112094602Y-137560665D01*
X112187594Y-137664056D01*
X112273979Y-137795167D01*
X112348821Y-137946753D01*
X112395301Y-138072319D01*
X112456075Y-138263090D01*
X112616245Y-138358974D01*
X112816245Y-138461336D01*
X113005788Y-138522720D01*
X113184846Y-138543121D01*
X113353390Y-138522533D01*
X113445582Y-138492112D01*
X113564414Y-138443230D01*
X113763082Y-138532361D01*
X113857137Y-138570846D01*
X113985480Y-138617843D01*
X114141435Y-138671188D01*
X114318324Y-138728718D01*
X114509471Y-138788268D01*
X114708200Y-138847675D01*
X114907833Y-138904775D01*
X114938418Y-138913277D01*
X115159852Y-138964455D01*
X115384156Y-138994620D01*
X115624805Y-139005167D01*
X115797445Y-139002121D01*
X116038978Y-138983426D01*
X116250461Y-138945579D01*
X116440568Y-138886525D01*
X116605879Y-138810726D01*
X116764375Y-138702897D01*
X116902077Y-138561819D01*
X117015862Y-138392712D01*
X117102613Y-138200792D01*
X117159208Y-137991279D01*
X117177849Y-137854083D01*
X117182971Y-137711570D01*
X117177953Y-137538772D01*
X117164067Y-137346167D01*
X117142579Y-137144239D01*
X117114758Y-136943468D01*
X117081874Y-136754336D01*
X117045195Y-136587323D01*
X117009497Y-136463132D01*
X116964917Y-136352792D01*
X116905996Y-136248553D01*
X116828829Y-136146337D01*
X116729507Y-136042066D01*
X116604121Y-135931663D01*
X116448766Y-135811051D01*
X116259531Y-135676152D01*
X116246894Y-135667432D01*
X116126349Y-135583866D01*
X116000294Y-135495595D01*
X115880032Y-135410591D01*
X115776865Y-135336826D01*
X115729166Y-135302225D01*
X115641227Y-135240838D01*
X115557097Y-135187242D01*
X115487223Y-135147804D01*
X115447126Y-135130260D01*
X115395454Y-135120341D01*
X115325913Y-135118356D01*
X115232596Y-135124699D01*
X115109596Y-135139762D01*
X114958231Y-135162770D01*
X114944225Y-135145230D01*
X114921628Y-135095348D01*
X114893874Y-135021370D01*
X114871487Y-134954250D01*
X114804261Y-134742583D01*
X114467672Y-134571984D01*
X114342406Y-134507329D01*
X114215400Y-134439741D01*
X114097683Y-134375227D01*
X114000288Y-134319797D01*
X113956159Y-134293377D01*
X113855212Y-134234839D01*
X113743070Y-134175663D01*
X113640243Y-134126549D01*
X113617492Y-134116717D01*
X113453750Y-134048066D01*
X113292423Y-134080994D01*
X113200997Y-134102535D01*
X113115752Y-134130130D01*
X113024513Y-134168598D01*
X112915105Y-134222758D01*
X112857396Y-134253161D01*
X112817738Y-134271988D01*
X112783527Y-134277600D01*
X112740136Y-134269313D01*
X112672940Y-134246442D01*
X112666896Y-134244252D01*
X112520376Y-134191735D01*
X112404930Y-134152205D01*
X112312201Y-134123243D01*
X112233832Y-134102431D01*
X112161468Y-134087348D01*
X112086751Y-134075576D01*
X112081969Y-134074917D01*
X111852829Y-134064096D01*
X111626761Y-134092572D01*
X111408928Y-134157621D01*
X111204494Y-134256519D01*
X111018624Y-134386544D01*
X110856483Y-134544971D01*
X110723234Y-134729077D01*
X110675509Y-134816666D01*
X110612679Y-134959830D01*
X110560768Y-135109624D01*
X110523251Y-135253831D01*
X110503602Y-135380232D01*
X110501517Y-135428594D01*
X110508941Y-135534907D01*
X110531752Y-135649476D01*
X110572452Y-135782852D01*
X110609400Y-135883889D01*
X110640680Y-135969276D01*
X110656724Y-136026112D01*
X110659312Y-136064612D01*
X110650227Y-136094987D01*
X110647240Y-136100848D01*
X110616927Y-136139521D01*
X110578893Y-136150584D01*
X110529131Y-136132387D01*
X110463629Y-136083281D01*
X110378378Y-136001614D01*
X110359962Y-135982639D01*
X110288344Y-135909261D01*
X110238723Y-135862417D01*
X110204378Y-135837533D01*
X110178594Y-135830037D01*
X110154651Y-135835355D01*
X110147885Y-135838278D01*
X110103906Y-135849757D01*
X110067185Y-135830900D01*
X110054620Y-135819028D01*
X110020999Y-135765695D01*
X110007442Y-135714687D01*
X109999481Y-135677126D01*
X109976050Y-135649491D01*
X109927342Y-135622935D01*
X109886716Y-135605783D01*
X109749439Y-135567168D01*
X109603619Y-135561148D01*
X109441836Y-135587797D01*
X109360170Y-135610996D01*
X109190823Y-135664493D01*
X109037266Y-135568932D01*
X108955771Y-135519460D01*
X108883156Y-135479878D01*
X108813653Y-135449414D01*
X108741498Y-135427297D01*
X108660925Y-135412753D01*
X108566169Y-135405012D01*
X108451463Y-135403301D01*
X108311042Y-135406849D01*
X108139141Y-135414883D01*
X107961000Y-135424834D01*
X107780286Y-135436544D01*
X107635369Y-135449357D01*
X107519710Y-135464614D01*
X107426772Y-135483655D01*
X107350018Y-135507820D01*
X107282912Y-135538450D01*
X107218915Y-135576883D01*
X107218724Y-135577010D01*
X107141026Y-135632860D01*
X107082294Y-135688522D01*
X107035004Y-135754388D01*
X106991631Y-135840847D01*
X106946836Y-135952492D01*
X106868482Y-136160076D01*
X106669481Y-136196928D01*
X106531564Y-136225343D01*
X106424028Y-136255585D01*
X106335021Y-136292401D01*
X106252690Y-136340536D01*
X106180702Y-136392664D01*
X106109572Y-136446584D01*
X106053618Y-136484377D01*
X106001207Y-136511021D01*
X105940704Y-136531493D01*
X105860477Y-136550772D01*
X105764887Y-136570588D01*
X105597104Y-136611030D01*
X105457739Y-136660871D01*
X105332981Y-136726558D01*
X105209017Y-136814538D01*
X105164323Y-136850902D01*
X105082940Y-136918389D01*
X105022912Y-136964188D01*
X104972913Y-136993522D01*
X104921618Y-137011614D01*
X104857702Y-137023686D01*
X104769839Y-137034961D01*
X104763500Y-137035733D01*
X104661980Y-137051991D01*
X104560064Y-137074670D01*
X104477505Y-137099278D01*
X104467609Y-137103017D01*
X104319499Y-137177953D01*
X104172125Y-137282285D01*
X104039685Y-137405273D01*
X103986006Y-137467257D01*
X103910654Y-137559009D01*
X103850675Y-137623095D01*
X103796953Y-137666375D01*
X103740370Y-137695714D01*
X103671809Y-137717971D01*
X103643000Y-137725433D01*
X103493637Y-137769873D01*
X103377789Y-137822523D01*
X103286724Y-137888870D01*
X103211709Y-137974403D01*
X103185751Y-138012833D01*
X103109147Y-138127133D01*
X103044994Y-138207250D01*
X102988535Y-138257677D01*
X102935010Y-138282908D01*
X102894359Y-138288000D01*
X102796208Y-138301429D01*
X102677899Y-138338303D01*
X102550521Y-138393504D01*
X102425159Y-138461912D01*
X102312902Y-138538408D01*
X102264175Y-138578970D01*
X102194357Y-138659423D01*
X102126146Y-138767964D01*
X102066309Y-138890664D01*
X102021614Y-139013594D01*
X101998825Y-139122825D01*
X101998547Y-139125785D01*
X101994614Y-139210548D01*
X101823860Y-139210548D01*
X101822666Y-139175387D01*
X101839031Y-139036953D01*
X101884729Y-138885118D01*
X101954668Y-138731120D01*
X102043754Y-138586193D01*
X102145733Y-138462759D01*
X102220639Y-138399439D01*
X102321490Y-138332780D01*
X102438243Y-138267620D01*
X102560854Y-138208795D01*
X102679279Y-138161141D01*
X102783476Y-138129496D01*
X102860249Y-138118666D01*
X102891283Y-138113413D01*
X102921357Y-138093222D01*
X102956998Y-138051445D01*
X103004735Y-137981434D01*
X103023088Y-137952836D01*
X103079361Y-137871081D01*
X103137906Y-137796844D01*
X103188757Y-137742444D01*
X103203304Y-137730056D01*
X103257163Y-137697161D01*
X103335690Y-137658898D01*
X103426882Y-137620035D01*
X103518739Y-137585339D01*
X103599259Y-137559576D01*
X103656440Y-137547515D01*
X103663722Y-137547166D01*
X103699282Y-137531025D01*
X103747774Y-137488462D01*
X103784576Y-137446625D01*
X103943471Y-137268219D01*
X104108952Y-137121844D01*
X104275742Y-137012043D01*
X104308905Y-136994816D01*
X104382597Y-136959980D01*
X104450022Y-136933157D01*
X104520983Y-136911808D01*
X104605288Y-136893394D01*
X104712741Y-136875376D01*
X104842342Y-136856710D01*
X104898561Y-136835453D01*
X104976409Y-136786280D01*
X105060582Y-136720715D01*
X105207718Y-136609168D01*
X105353353Y-136525695D01*
X105511894Y-136463385D01*
X105697225Y-136415441D01*
X105800330Y-136393387D01*
X105873051Y-136375845D01*
X105926357Y-136358260D01*
X105971216Y-136336078D01*
X106018596Y-136304743D01*
X106079465Y-136259702D01*
X106088424Y-136252989D01*
X106275342Y-136138447D01*
X106477415Y-136063419D01*
X106588756Y-136039994D01*
X106746346Y-136014920D01*
X106808631Y-135846302D01*
X106887342Y-135680747D01*
X106991518Y-135546168D01*
X107126077Y-135436528D01*
X107159634Y-135415521D01*
X107239369Y-135372854D01*
X107324143Y-135339125D01*
X107420954Y-135312914D01*
X107536804Y-135292803D01*
X107678693Y-135277374D01*
X107853620Y-135265209D01*
X107918666Y-135261726D01*
X108052502Y-135254526D01*
X108180282Y-135246873D01*
X108292551Y-135239392D01*
X108379854Y-135232707D01*
X108426666Y-135228199D01*
X108563905Y-135224530D01*
X108705386Y-135247293D01*
X108859271Y-135298440D01*
X109009728Y-135367615D01*
X109222372Y-135475372D01*
X109379719Y-135431769D01*
X109572583Y-135394477D01*
X109750992Y-135394995D01*
X109919206Y-135434391D01*
X110081489Y-135513731D01*
X110242103Y-135634082D01*
X110263105Y-135652816D01*
X110326098Y-135708924D01*
X110362928Y-135738102D01*
X110377931Y-135742775D01*
X110375446Y-135725370D01*
X110370599Y-135712943D01*
X110359997Y-135666608D01*
X110351544Y-135590145D01*
X110346339Y-135495748D01*
X110345215Y-135430500D01*
X110351669Y-135282155D01*
X110373557Y-135143382D01*
X110413919Y-135003318D01*
X110475791Y-134851104D01*
X110549375Y-134700546D01*
X110664922Y-134518299D01*
X110813612Y-134348845D01*
X110986450Y-134200899D01*
X111174441Y-134083177D01*
X111199500Y-134070560D01*
X111358659Y-133998247D01*
X111498996Y-133948677D01*
X111634952Y-133918409D01*
X111780969Y-133903999D01*
X111908583Y-133901540D01*
X112082755Y-133909336D01*
X112244874Y-133932973D01*
X112409681Y-133975531D01*
X112591918Y-134040088D01*
X112614391Y-134048956D01*
X112769866Y-134110840D01*
X112931891Y-134030999D01*
X113041325Y-133984170D01*
X113161320Y-133944425D01*
X113280685Y-133914423D01*
X113388230Y-133896825D01*
X113472762Y-133894291D01*
X113494305Y-133897340D01*
G36*
X56346113Y-140214171D02*
X56406720Y-140226555D01*
X56495879Y-140248140D01*
X56607961Y-140277283D01*
X56737338Y-140312339D01*
X56878382Y-140351664D01*
X57025462Y-140393615D01*
X57172949Y-140436547D01*
X57315216Y-140478817D01*
X57446634Y-140518781D01*
X57561572Y-140554794D01*
X57654403Y-140585212D01*
X57719497Y-140608392D01*
X57751225Y-140622690D01*
X57753414Y-140625187D01*
X57743524Y-140654111D01*
X57717840Y-140707940D01*
X57681918Y-140775024D01*
X57681885Y-140775083D01*
X57642478Y-140842348D01*
X57613371Y-140879838D01*
X57585498Y-140895420D01*
X57549795Y-140896963D01*
X57542133Y-140896382D01*
X57496711Y-140895745D01*
X57484090Y-140908219D01*
X57490262Y-140928132D01*
X57513325Y-141021008D01*
X57510455Y-141122020D01*
X57482678Y-141209000D01*
X57416278Y-141298066D01*
X57330232Y-141352494D01*
X57219464Y-141375024D01*
X57173744Y-141375877D01*
X57097065Y-141373041D01*
X57032629Y-141368252D01*
X57002250Y-141364011D01*
X56765097Y-141304399D01*
X56569903Y-141240333D01*
X56416694Y-141171829D01*
X56305501Y-141098905D01*
X56236352Y-141021575D01*
X56209277Y-140939857D01*
X56208848Y-140926917D01*
X56227120Y-140839607D01*
X56264726Y-140769520D01*
X56572666Y-140769520D01*
X56574132Y-140818725D01*
X56578266Y-140826947D01*
X56618208Y-140861516D01*
X56697279Y-140898341D01*
X56816647Y-140937903D01*
X56911346Y-140964001D01*
X57022719Y-140992034D01*
X57101583Y-141008703D01*
X57156019Y-141014660D01*
X57194111Y-141010557D01*
X57223939Y-140997046D01*
X57234158Y-140990043D01*
X57262021Y-140952156D01*
X57259347Y-140906888D01*
X57240584Y-140869688D01*
X57199341Y-140838973D01*
X57129175Y-140808623D01*
X57019218Y-140770774D01*
X56907213Y-140737868D01*
X56802667Y-140712146D01*
X56715084Y-140695852D01*
X56653971Y-140691229D01*
X56639410Y-140693062D01*
X56597297Y-140721343D01*
X56572666Y-140769520D01*
X56264726Y-140769520D01*
X56274683Y-140750965D01*
X56341923Y-140676350D01*
X56384325Y-140646565D01*
X56464038Y-140601852D01*
X56304563Y-140564296D01*
X56222442Y-140545899D01*
X56169632Y-140538016D01*
X56134475Y-140540490D01*
X56105316Y-140553163D01*
X56092127Y-140561441D01*
X56050787Y-140607513D01*
X56040329Y-140662209D01*
X56061830Y-140711155D01*
X56079777Y-140726003D01*
X56100893Y-140741913D01*
X56106919Y-140761504D01*
X56096417Y-140795367D01*
X56067946Y-140854090D01*
X56060322Y-140869057D01*
X56013441Y-140959395D01*
X55979484Y-141015994D01*
X55952273Y-141042895D01*
X55925632Y-141044139D01*
X55893382Y-141023767D01*
X55863228Y-140997987D01*
X55789046Y-140908110D01*
X55754916Y-140804918D01*
X55761462Y-140690476D01*
X55765329Y-140674896D01*
X55817795Y-140532879D01*
X55891510Y-140408161D01*
X55980775Y-140307739D01*
X56079892Y-140238608D01*
X56139343Y-140215689D01*
X56250450Y-140204547D01*
X56346113Y-140214171D01*
X56346113Y-140214171D01*
G37*
X56346113Y-140214171D02*
X56406720Y-140226555D01*
X56495879Y-140248140D01*
X56607961Y-140277283D01*
X56737338Y-140312339D01*
X56878382Y-140351664D01*
X57025462Y-140393615D01*
X57172949Y-140436547D01*
X57315216Y-140478817D01*
X57446634Y-140518781D01*
X57561572Y-140554794D01*
X57654403Y-140585212D01*
X57719497Y-140608392D01*
X57751225Y-140622690D01*
X57753414Y-140625187D01*
X57743524Y-140654111D01*
X57717840Y-140707940D01*
X57681918Y-140775024D01*
X57681885Y-140775083D01*
X57642478Y-140842348D01*
X57613371Y-140879838D01*
X57585498Y-140895420D01*
X57549795Y-140896963D01*
X57542133Y-140896382D01*
X57496711Y-140895745D01*
X57484090Y-140908219D01*
X57490262Y-140928132D01*
X57513325Y-141021008D01*
X57510455Y-141122020D01*
X57482678Y-141209000D01*
X57416278Y-141298066D01*
X57330232Y-141352494D01*
X57219464Y-141375024D01*
X57173744Y-141375877D01*
X57097065Y-141373041D01*
X57032629Y-141368252D01*
X57002250Y-141364011D01*
X56765097Y-141304399D01*
X56569903Y-141240333D01*
X56416694Y-141171829D01*
X56305501Y-141098905D01*
X56236352Y-141021575D01*
X56209277Y-140939857D01*
X56208848Y-140926917D01*
X56227120Y-140839607D01*
X56264726Y-140769520D01*
X56572666Y-140769520D01*
X56574132Y-140818725D01*
X56578266Y-140826947D01*
X56618208Y-140861516D01*
X56697279Y-140898341D01*
X56816647Y-140937903D01*
X56911346Y-140964001D01*
X57022719Y-140992034D01*
X57101583Y-141008703D01*
X57156019Y-141014660D01*
X57194111Y-141010557D01*
X57223939Y-140997046D01*
X57234158Y-140990043D01*
X57262021Y-140952156D01*
X57259347Y-140906888D01*
X57240584Y-140869688D01*
X57199341Y-140838973D01*
X57129175Y-140808623D01*
X57019218Y-140770774D01*
X56907213Y-140737868D01*
X56802667Y-140712146D01*
X56715084Y-140695852D01*
X56653971Y-140691229D01*
X56639410Y-140693062D01*
X56597297Y-140721343D01*
X56572666Y-140769520D01*
X56264726Y-140769520D01*
X56274683Y-140750965D01*
X56341923Y-140676350D01*
X56384325Y-140646565D01*
X56464038Y-140601852D01*
X56304563Y-140564296D01*
X56222442Y-140545899D01*
X56169632Y-140538016D01*
X56134475Y-140540490D01*
X56105316Y-140553163D01*
X56092127Y-140561441D01*
X56050787Y-140607513D01*
X56040329Y-140662209D01*
X56061830Y-140711155D01*
X56079777Y-140726003D01*
X56100893Y-140741913D01*
X56106919Y-140761504D01*
X56096417Y-140795367D01*
X56067946Y-140854090D01*
X56060322Y-140869057D01*
X56013441Y-140959395D01*
X55979484Y-141015994D01*
X55952273Y-141042895D01*
X55925632Y-141044139D01*
X55893382Y-141023767D01*
X55863228Y-140997987D01*
X55789046Y-140908110D01*
X55754916Y-140804918D01*
X55761462Y-140690476D01*
X55765329Y-140674896D01*
X55817795Y-140532879D01*
X55891510Y-140408161D01*
X55980775Y-140307739D01*
X56079892Y-140238608D01*
X56139343Y-140215689D01*
X56250450Y-140204547D01*
X56346113Y-140214171D01*
G36*
X58277578Y-140285762D02*
X58330127Y-140306340D01*
X58391549Y-140333841D01*
X58450059Y-140362701D01*
X58493870Y-140387361D01*
X58511198Y-140402257D01*
X58511071Y-140402897D01*
X58488281Y-140441367D01*
X58450107Y-140495825D01*
X58404200Y-140556516D01*
X58358213Y-140613684D01*
X58319795Y-140657574D01*
X58296598Y-140678429D01*
X58294541Y-140678983D01*
X58264323Y-140670570D01*
X58208905Y-140649648D01*
X58155833Y-140627425D01*
X58090722Y-140594111D01*
X58050473Y-140563351D01*
X58041884Y-140546441D01*
X58055409Y-140514058D01*
X58087512Y-140462768D01*
X58130237Y-140403063D01*
X58175628Y-140345434D01*
X58215730Y-140300374D01*
X58242587Y-140278375D01*
X58245687Y-140277666D01*
X58277578Y-140285762D01*
X58277578Y-140285762D01*
G37*
X58277578Y-140285762D02*
X58330127Y-140306340D01*
X58391549Y-140333841D01*
X58450059Y-140362701D01*
X58493870Y-140387361D01*
X58511198Y-140402257D01*
X58511071Y-140402897D01*
X58488281Y-140441367D01*
X58450107Y-140495825D01*
X58404200Y-140556516D01*
X58358213Y-140613684D01*
X58319795Y-140657574D01*
X58296598Y-140678429D01*
X58294541Y-140678983D01*
X58264323Y-140670570D01*
X58208905Y-140649648D01*
X58155833Y-140627425D01*
X58090722Y-140594111D01*
X58050473Y-140563351D01*
X58041884Y-140546441D01*
X58055409Y-140514058D01*
X58087512Y-140462768D01*
X58130237Y-140403063D01*
X58175628Y-140345434D01*
X58215730Y-140300374D01*
X58242587Y-140278375D01*
X58245687Y-140277666D01*
X58277578Y-140285762D01*
G36*
X56905117Y-139672131D02*
X56959562Y-139695313D01*
X57041085Y-139730813D01*
X57143941Y-139776064D01*
X57262386Y-139828498D01*
X57390674Y-139885549D01*
X57523060Y-139944651D01*
X57653799Y-140003235D01*
X57777146Y-140058735D01*
X57887355Y-140108585D01*
X57978682Y-140150217D01*
X58045381Y-140181064D01*
X58081707Y-140198560D01*
X58086597Y-140201375D01*
X58079340Y-140221139D01*
X58052190Y-140263893D01*
X58012342Y-140320097D01*
X57966988Y-140380207D01*
X57923323Y-140434681D01*
X57888542Y-140473977D01*
X57870083Y-140488566D01*
X57846049Y-140480192D01*
X57788492Y-140456507D01*
X57702439Y-140419690D01*
X57592917Y-140371920D01*
X57464954Y-140315377D01*
X57323577Y-140252240D01*
X57288000Y-140236254D01*
X57143428Y-140171051D01*
X57010585Y-140110823D01*
X56894622Y-140057932D01*
X56800689Y-140014736D01*
X56733939Y-139983598D01*
X56699523Y-139966877D01*
X56696776Y-139965351D01*
X56686026Y-139949472D01*
X56693405Y-139920371D01*
X56721904Y-139871274D01*
X56767425Y-139805311D01*
X56815716Y-139740041D01*
X56855489Y-139690701D01*
X56880026Y-139665476D01*
X56883496Y-139663833D01*
X56905117Y-139672131D01*
X56905117Y-139672131D01*
G37*
X56905117Y-139672131D02*
X56959562Y-139695313D01*
X57041085Y-139730813D01*
X57143941Y-139776064D01*
X57262386Y-139828498D01*
X57390674Y-139885549D01*
X57523060Y-139944651D01*
X57653799Y-140003235D01*
X57777146Y-140058735D01*
X57887355Y-140108585D01*
X57978682Y-140150217D01*
X58045381Y-140181064D01*
X58081707Y-140198560D01*
X58086597Y-140201375D01*
X58079340Y-140221139D01*
X58052190Y-140263893D01*
X58012342Y-140320097D01*
X57966988Y-140380207D01*
X57923323Y-140434681D01*
X57888542Y-140473977D01*
X57870083Y-140488566D01*
X57846049Y-140480192D01*
X57788492Y-140456507D01*
X57702439Y-140419690D01*
X57592917Y-140371920D01*
X57464954Y-140315377D01*
X57323577Y-140252240D01*
X57288000Y-140236254D01*
X57143428Y-140171051D01*
X57010585Y-140110823D01*
X56894622Y-140057932D01*
X56800689Y-140014736D01*
X56733939Y-139983598D01*
X56699523Y-139966877D01*
X56696776Y-139965351D01*
X56686026Y-139949472D01*
X56693405Y-139920371D01*
X56721904Y-139871274D01*
X56767425Y-139805311D01*
X56815716Y-139740041D01*
X56855489Y-139690701D01*
X56880026Y-139665476D01*
X56883496Y-139663833D01*
X56905117Y-139672131D01*
M02*
